G04 #@! TF.GenerationSoftware,KiCad,Pcbnew,(5.1.10)-1*
G04 #@! TF.CreationDate,2021-07-17T14:00:26+02:00*
G04 #@! TF.ProjectId,WheelBarrow Pro Micro,57686565-6c42-4617-9272-6f772050726f,rev?*
G04 #@! TF.SameCoordinates,Original*
G04 #@! TF.FileFunction,Soldermask,Bot*
G04 #@! TF.FilePolarity,Negative*
%FSLAX46Y46*%
G04 Gerber Fmt 4.6, Leading zero omitted, Abs format (unit mm)*
G04 Created by KiCad (PCBNEW (5.1.10)-1) date 2021-07-17 14:00:26*
%MOMM*%
%LPD*%
G01*
G04 APERTURE LIST*
%ADD10C,2.250000*%
%ADD11C,3.987800*%
%ADD12C,1.750000*%
%ADD13C,2.200000*%
%ADD14C,1.600000*%
%ADD15R,1.600000X1.600000*%
%ADD16R,1.100000X1.800000*%
%ADD17R,1.200000X0.900000*%
%ADD18C,3.048000*%
G04 APERTURE END LIST*
D10*
X164187500Y-209518750D03*
G36*
G01*
X162126188Y-211816100D02*
X162126183Y-211816095D01*
G75*
G02*
X162040155Y-210227433I751317J837345D01*
G01*
X163350157Y-208767433D01*
G75*
G02*
X164938819Y-208681405I837345J-751317D01*
G01*
X164938819Y-208681405D01*
G75*
G02*
X165024847Y-210270067I-751317J-837345D01*
G01*
X163714845Y-211730067D01*
G75*
G02*
X162126183Y-211816095I-837345J751317D01*
G01*
G37*
G36*
G01*
X169110983Y-210141145D02*
X169110097Y-210141084D01*
G75*
G02*
X168065166Y-208941347I77403J1122334D01*
G01*
X168105166Y-208361347D01*
G75*
G02*
X169304903Y-207316416I1122334J-77403D01*
G01*
X169304903Y-207316416D01*
G75*
G02*
X170349834Y-208516153I-77403J-1122334D01*
G01*
X170309834Y-209096153D01*
G75*
G02*
X169110097Y-210141084I-1122334J77403D01*
G01*
G37*
X169227500Y-208438750D03*
D11*
X166687500Y-213518750D03*
D12*
X161607500Y-213518750D03*
X171767500Y-213518750D03*
D10*
X311825000Y-209518750D03*
G36*
G01*
X309763688Y-211816100D02*
X309763683Y-211816095D01*
G75*
G02*
X309677655Y-210227433I751317J837345D01*
G01*
X310987657Y-208767433D01*
G75*
G02*
X312576319Y-208681405I837345J-751317D01*
G01*
X312576319Y-208681405D01*
G75*
G02*
X312662347Y-210270067I-751317J-837345D01*
G01*
X311352345Y-211730067D01*
G75*
G02*
X309763683Y-211816095I-837345J751317D01*
G01*
G37*
G36*
G01*
X316748483Y-210141145D02*
X316747597Y-210141084D01*
G75*
G02*
X315702666Y-208941347I77403J1122334D01*
G01*
X315742666Y-208361347D01*
G75*
G02*
X316942403Y-207316416I1122334J-77403D01*
G01*
X316942403Y-207316416D01*
G75*
G02*
X317987334Y-208516153I-77403J-1122334D01*
G01*
X317947334Y-209096153D01*
G75*
G02*
X316747597Y-210141084I-1122334J77403D01*
G01*
G37*
X316865000Y-208438750D03*
D11*
X314325000Y-213518750D03*
D12*
X309245000Y-213518750D03*
X319405000Y-213518750D03*
D13*
X112649000Y-144907000D03*
X112649000Y-224282000D03*
X343693750Y-146050000D03*
X343693750Y-223043750D03*
X428625000Y-223043750D03*
X428625000Y-146843750D03*
X242887500Y-185166000D03*
X389731250Y-184943750D03*
D14*
X365048800Y-143256000D03*
X365048800Y-145796000D03*
X365048800Y-148336000D03*
X365048800Y-150876000D03*
X365048800Y-153416000D03*
X365048800Y-155956000D03*
X365048800Y-158496000D03*
X365048800Y-161036000D03*
X365048800Y-163576000D03*
X365048800Y-166116000D03*
X365048800Y-168656000D03*
X365048800Y-171196000D03*
X349808800Y-171196000D03*
X349808800Y-168656000D03*
X349808800Y-166116000D03*
X349808800Y-163576000D03*
X349808800Y-161036000D03*
X349808800Y-158496000D03*
X349808800Y-155956000D03*
X349808800Y-153416000D03*
X349808800Y-150876000D03*
X349808800Y-148336000D03*
X349808800Y-145796000D03*
D15*
X349808800Y-143256000D03*
D16*
X418393000Y-191083000D03*
X418393000Y-197283000D03*
X422093000Y-191083000D03*
X422093000Y-197283000D03*
D10*
X121325000Y-152368750D03*
G36*
G01*
X119263688Y-154666100D02*
X119263683Y-154666095D01*
G75*
G02*
X119177655Y-153077433I751317J837345D01*
G01*
X120487657Y-151617433D01*
G75*
G02*
X122076319Y-151531405I837345J-751317D01*
G01*
X122076319Y-151531405D01*
G75*
G02*
X122162347Y-153120067I-751317J-837345D01*
G01*
X120852345Y-154580067D01*
G75*
G02*
X119263683Y-154666095I-837345J751317D01*
G01*
G37*
G36*
G01*
X126248483Y-152991145D02*
X126247597Y-152991084D01*
G75*
G02*
X125202666Y-151791347I77403J1122334D01*
G01*
X125242666Y-151211347D01*
G75*
G02*
X126442403Y-150166416I1122334J-77403D01*
G01*
X126442403Y-150166416D01*
G75*
G02*
X127487334Y-151366153I-77403J-1122334D01*
G01*
X127447334Y-151946153D01*
G75*
G02*
X126247597Y-152991084I-1122334J77403D01*
G01*
G37*
X126365000Y-151288750D03*
D11*
X123825000Y-156368750D03*
D12*
X118745000Y-156368750D03*
X128905000Y-156368750D03*
D17*
X132350000Y-155218750D03*
X132350000Y-158518750D03*
D10*
X140375000Y-152368750D03*
G36*
G01*
X138313688Y-154666100D02*
X138313683Y-154666095D01*
G75*
G02*
X138227655Y-153077433I751317J837345D01*
G01*
X139537657Y-151617433D01*
G75*
G02*
X141126319Y-151531405I837345J-751317D01*
G01*
X141126319Y-151531405D01*
G75*
G02*
X141212347Y-153120067I-751317J-837345D01*
G01*
X139902345Y-154580067D01*
G75*
G02*
X138313683Y-154666095I-837345J751317D01*
G01*
G37*
G36*
G01*
X145298483Y-152991145D02*
X145297597Y-152991084D01*
G75*
G02*
X144252666Y-151791347I77403J1122334D01*
G01*
X144292666Y-151211347D01*
G75*
G02*
X145492403Y-150166416I1122334J-77403D01*
G01*
X145492403Y-150166416D01*
G75*
G02*
X146537334Y-151366153I-77403J-1122334D01*
G01*
X146497334Y-151946153D01*
G75*
G02*
X145297597Y-152991084I-1122334J77403D01*
G01*
G37*
X145415000Y-151288750D03*
D11*
X142875000Y-156368750D03*
D12*
X137795000Y-156368750D03*
X147955000Y-156368750D03*
D17*
X151400000Y-155218750D03*
X151400000Y-158518750D03*
D10*
X159425000Y-152368750D03*
G36*
G01*
X157363688Y-154666100D02*
X157363683Y-154666095D01*
G75*
G02*
X157277655Y-153077433I751317J837345D01*
G01*
X158587657Y-151617433D01*
G75*
G02*
X160176319Y-151531405I837345J-751317D01*
G01*
X160176319Y-151531405D01*
G75*
G02*
X160262347Y-153120067I-751317J-837345D01*
G01*
X158952345Y-154580067D01*
G75*
G02*
X157363683Y-154666095I-837345J751317D01*
G01*
G37*
G36*
G01*
X164348483Y-152991145D02*
X164347597Y-152991084D01*
G75*
G02*
X163302666Y-151791347I77403J1122334D01*
G01*
X163342666Y-151211347D01*
G75*
G02*
X164542403Y-150166416I1122334J-77403D01*
G01*
X164542403Y-150166416D01*
G75*
G02*
X165587334Y-151366153I-77403J-1122334D01*
G01*
X165547334Y-151946153D01*
G75*
G02*
X164347597Y-152991084I-1122334J77403D01*
G01*
G37*
X164465000Y-151288750D03*
D11*
X161925000Y-156368750D03*
D12*
X156845000Y-156368750D03*
X167005000Y-156368750D03*
D17*
X170450000Y-155218750D03*
X170450000Y-158518750D03*
D10*
X178475000Y-152368750D03*
G36*
G01*
X176413688Y-154666100D02*
X176413683Y-154666095D01*
G75*
G02*
X176327655Y-153077433I751317J837345D01*
G01*
X177637657Y-151617433D01*
G75*
G02*
X179226319Y-151531405I837345J-751317D01*
G01*
X179226319Y-151531405D01*
G75*
G02*
X179312347Y-153120067I-751317J-837345D01*
G01*
X178002345Y-154580067D01*
G75*
G02*
X176413683Y-154666095I-837345J751317D01*
G01*
G37*
G36*
G01*
X183398483Y-152991145D02*
X183397597Y-152991084D01*
G75*
G02*
X182352666Y-151791347I77403J1122334D01*
G01*
X182392666Y-151211347D01*
G75*
G02*
X183592403Y-150166416I1122334J-77403D01*
G01*
X183592403Y-150166416D01*
G75*
G02*
X184637334Y-151366153I-77403J-1122334D01*
G01*
X184597334Y-151946153D01*
G75*
G02*
X183397597Y-152991084I-1122334J77403D01*
G01*
G37*
X183515000Y-151288750D03*
D11*
X180975000Y-156368750D03*
D12*
X175895000Y-156368750D03*
X186055000Y-156368750D03*
D17*
X189500000Y-155218750D03*
X189500000Y-158518750D03*
D10*
X197525000Y-152368750D03*
G36*
G01*
X195463688Y-154666100D02*
X195463683Y-154666095D01*
G75*
G02*
X195377655Y-153077433I751317J837345D01*
G01*
X196687657Y-151617433D01*
G75*
G02*
X198276319Y-151531405I837345J-751317D01*
G01*
X198276319Y-151531405D01*
G75*
G02*
X198362347Y-153120067I-751317J-837345D01*
G01*
X197052345Y-154580067D01*
G75*
G02*
X195463683Y-154666095I-837345J751317D01*
G01*
G37*
G36*
G01*
X202448483Y-152991145D02*
X202447597Y-152991084D01*
G75*
G02*
X201402666Y-151791347I77403J1122334D01*
G01*
X201442666Y-151211347D01*
G75*
G02*
X202642403Y-150166416I1122334J-77403D01*
G01*
X202642403Y-150166416D01*
G75*
G02*
X203687334Y-151366153I-77403J-1122334D01*
G01*
X203647334Y-151946153D01*
G75*
G02*
X202447597Y-152991084I-1122334J77403D01*
G01*
G37*
X202565000Y-151288750D03*
D11*
X200025000Y-156368750D03*
D12*
X194945000Y-156368750D03*
X205105000Y-156368750D03*
D17*
X208550000Y-155218750D03*
X208550000Y-158518750D03*
D10*
X216575000Y-152368750D03*
G36*
G01*
X214513688Y-154666100D02*
X214513683Y-154666095D01*
G75*
G02*
X214427655Y-153077433I751317J837345D01*
G01*
X215737657Y-151617433D01*
G75*
G02*
X217326319Y-151531405I837345J-751317D01*
G01*
X217326319Y-151531405D01*
G75*
G02*
X217412347Y-153120067I-751317J-837345D01*
G01*
X216102345Y-154580067D01*
G75*
G02*
X214513683Y-154666095I-837345J751317D01*
G01*
G37*
G36*
G01*
X221498483Y-152991145D02*
X221497597Y-152991084D01*
G75*
G02*
X220452666Y-151791347I77403J1122334D01*
G01*
X220492666Y-151211347D01*
G75*
G02*
X221692403Y-150166416I1122334J-77403D01*
G01*
X221692403Y-150166416D01*
G75*
G02*
X222737334Y-151366153I-77403J-1122334D01*
G01*
X222697334Y-151946153D01*
G75*
G02*
X221497597Y-152991084I-1122334J77403D01*
G01*
G37*
X221615000Y-151288750D03*
D11*
X219075000Y-156368750D03*
D12*
X213995000Y-156368750D03*
X224155000Y-156368750D03*
D17*
X227600000Y-155218750D03*
X227600000Y-158518750D03*
D10*
X235625000Y-152368750D03*
G36*
G01*
X233563688Y-154666100D02*
X233563683Y-154666095D01*
G75*
G02*
X233477655Y-153077433I751317J837345D01*
G01*
X234787657Y-151617433D01*
G75*
G02*
X236376319Y-151531405I837345J-751317D01*
G01*
X236376319Y-151531405D01*
G75*
G02*
X236462347Y-153120067I-751317J-837345D01*
G01*
X235152345Y-154580067D01*
G75*
G02*
X233563683Y-154666095I-837345J751317D01*
G01*
G37*
G36*
G01*
X240548483Y-152991145D02*
X240547597Y-152991084D01*
G75*
G02*
X239502666Y-151791347I77403J1122334D01*
G01*
X239542666Y-151211347D01*
G75*
G02*
X240742403Y-150166416I1122334J-77403D01*
G01*
X240742403Y-150166416D01*
G75*
G02*
X241787334Y-151366153I-77403J-1122334D01*
G01*
X241747334Y-151946153D01*
G75*
G02*
X240547597Y-152991084I-1122334J77403D01*
G01*
G37*
X240665000Y-151288750D03*
D11*
X238125000Y-156368750D03*
D12*
X233045000Y-156368750D03*
X243205000Y-156368750D03*
D17*
X246650000Y-155218750D03*
X246650000Y-158518750D03*
D10*
X254675000Y-152368750D03*
G36*
G01*
X252613688Y-154666100D02*
X252613683Y-154666095D01*
G75*
G02*
X252527655Y-153077433I751317J837345D01*
G01*
X253837657Y-151617433D01*
G75*
G02*
X255426319Y-151531405I837345J-751317D01*
G01*
X255426319Y-151531405D01*
G75*
G02*
X255512347Y-153120067I-751317J-837345D01*
G01*
X254202345Y-154580067D01*
G75*
G02*
X252613683Y-154666095I-837345J751317D01*
G01*
G37*
G36*
G01*
X259598483Y-152991145D02*
X259597597Y-152991084D01*
G75*
G02*
X258552666Y-151791347I77403J1122334D01*
G01*
X258592666Y-151211347D01*
G75*
G02*
X259792403Y-150166416I1122334J-77403D01*
G01*
X259792403Y-150166416D01*
G75*
G02*
X260837334Y-151366153I-77403J-1122334D01*
G01*
X260797334Y-151946153D01*
G75*
G02*
X259597597Y-152991084I-1122334J77403D01*
G01*
G37*
X259715000Y-151288750D03*
D11*
X257175000Y-156368750D03*
D12*
X252095000Y-156368750D03*
X262255000Y-156368750D03*
D17*
X265700000Y-155218750D03*
X265700000Y-158518750D03*
D10*
X273725000Y-152368750D03*
G36*
G01*
X271663688Y-154666100D02*
X271663683Y-154666095D01*
G75*
G02*
X271577655Y-153077433I751317J837345D01*
G01*
X272887657Y-151617433D01*
G75*
G02*
X274476319Y-151531405I837345J-751317D01*
G01*
X274476319Y-151531405D01*
G75*
G02*
X274562347Y-153120067I-751317J-837345D01*
G01*
X273252345Y-154580067D01*
G75*
G02*
X271663683Y-154666095I-837345J751317D01*
G01*
G37*
G36*
G01*
X278648483Y-152991145D02*
X278647597Y-152991084D01*
G75*
G02*
X277602666Y-151791347I77403J1122334D01*
G01*
X277642666Y-151211347D01*
G75*
G02*
X278842403Y-150166416I1122334J-77403D01*
G01*
X278842403Y-150166416D01*
G75*
G02*
X279887334Y-151366153I-77403J-1122334D01*
G01*
X279847334Y-151946153D01*
G75*
G02*
X278647597Y-152991084I-1122334J77403D01*
G01*
G37*
X278765000Y-151288750D03*
D11*
X276225000Y-156368750D03*
D12*
X271145000Y-156368750D03*
X281305000Y-156368750D03*
D17*
X284750000Y-155218750D03*
X284750000Y-158518750D03*
D10*
X292775000Y-152368750D03*
G36*
G01*
X290713688Y-154666100D02*
X290713683Y-154666095D01*
G75*
G02*
X290627655Y-153077433I751317J837345D01*
G01*
X291937657Y-151617433D01*
G75*
G02*
X293526319Y-151531405I837345J-751317D01*
G01*
X293526319Y-151531405D01*
G75*
G02*
X293612347Y-153120067I-751317J-837345D01*
G01*
X292302345Y-154580067D01*
G75*
G02*
X290713683Y-154666095I-837345J751317D01*
G01*
G37*
G36*
G01*
X297698483Y-152991145D02*
X297697597Y-152991084D01*
G75*
G02*
X296652666Y-151791347I77403J1122334D01*
G01*
X296692666Y-151211347D01*
G75*
G02*
X297892403Y-150166416I1122334J-77403D01*
G01*
X297892403Y-150166416D01*
G75*
G02*
X298937334Y-151366153I-77403J-1122334D01*
G01*
X298897334Y-151946153D01*
G75*
G02*
X297697597Y-152991084I-1122334J77403D01*
G01*
G37*
X297815000Y-151288750D03*
D11*
X295275000Y-156368750D03*
D12*
X290195000Y-156368750D03*
X300355000Y-156368750D03*
D17*
X303800000Y-155218750D03*
X303800000Y-158518750D03*
D10*
X311825000Y-152368750D03*
G36*
G01*
X309763688Y-154666100D02*
X309763683Y-154666095D01*
G75*
G02*
X309677655Y-153077433I751317J837345D01*
G01*
X310987657Y-151617433D01*
G75*
G02*
X312576319Y-151531405I837345J-751317D01*
G01*
X312576319Y-151531405D01*
G75*
G02*
X312662347Y-153120067I-751317J-837345D01*
G01*
X311352345Y-154580067D01*
G75*
G02*
X309763683Y-154666095I-837345J751317D01*
G01*
G37*
G36*
G01*
X316748483Y-152991145D02*
X316747597Y-152991084D01*
G75*
G02*
X315702666Y-151791347I77403J1122334D01*
G01*
X315742666Y-151211347D01*
G75*
G02*
X316942403Y-150166416I1122334J-77403D01*
G01*
X316942403Y-150166416D01*
G75*
G02*
X317987334Y-151366153I-77403J-1122334D01*
G01*
X317947334Y-151946153D01*
G75*
G02*
X316747597Y-152991084I-1122334J77403D01*
G01*
G37*
X316865000Y-151288750D03*
D11*
X314325000Y-156368750D03*
D12*
X309245000Y-156368750D03*
X319405000Y-156368750D03*
D17*
X322850000Y-155218750D03*
X322850000Y-158518750D03*
D10*
X330875000Y-152368750D03*
G36*
G01*
X328813688Y-154666100D02*
X328813683Y-154666095D01*
G75*
G02*
X328727655Y-153077433I751317J837345D01*
G01*
X330037657Y-151617433D01*
G75*
G02*
X331626319Y-151531405I837345J-751317D01*
G01*
X331626319Y-151531405D01*
G75*
G02*
X331712347Y-153120067I-751317J-837345D01*
G01*
X330402345Y-154580067D01*
G75*
G02*
X328813683Y-154666095I-837345J751317D01*
G01*
G37*
G36*
G01*
X335798483Y-152991145D02*
X335797597Y-152991084D01*
G75*
G02*
X334752666Y-151791347I77403J1122334D01*
G01*
X334792666Y-151211347D01*
G75*
G02*
X335992403Y-150166416I1122334J-77403D01*
G01*
X335992403Y-150166416D01*
G75*
G02*
X337037334Y-151366153I-77403J-1122334D01*
G01*
X336997334Y-151946153D01*
G75*
G02*
X335797597Y-152991084I-1122334J77403D01*
G01*
G37*
X335915000Y-151288750D03*
D11*
X333375000Y-156368750D03*
D12*
X328295000Y-156368750D03*
X338455000Y-156368750D03*
D17*
X341900000Y-155218750D03*
X341900000Y-158518750D03*
D10*
X378500000Y-152368750D03*
G36*
G01*
X376438688Y-154666100D02*
X376438683Y-154666095D01*
G75*
G02*
X376352655Y-153077433I751317J837345D01*
G01*
X377662657Y-151617433D01*
G75*
G02*
X379251319Y-151531405I837345J-751317D01*
G01*
X379251319Y-151531405D01*
G75*
G02*
X379337347Y-153120067I-751317J-837345D01*
G01*
X378027345Y-154580067D01*
G75*
G02*
X376438683Y-154666095I-837345J751317D01*
G01*
G37*
G36*
G01*
X383423483Y-152991145D02*
X383422597Y-152991084D01*
G75*
G02*
X382377666Y-151791347I77403J1122334D01*
G01*
X382417666Y-151211347D01*
G75*
G02*
X383617403Y-150166416I1122334J-77403D01*
G01*
X383617403Y-150166416D01*
G75*
G02*
X384662334Y-151366153I-77403J-1122334D01*
G01*
X384622334Y-151946153D01*
G75*
G02*
X383422597Y-152991084I-1122334J77403D01*
G01*
G37*
X383540000Y-151288750D03*
D11*
X381000000Y-156368750D03*
D12*
X375920000Y-156368750D03*
X386080000Y-156368750D03*
D17*
X389525000Y-155218750D03*
X389525000Y-158518750D03*
D10*
X397550000Y-152368750D03*
G36*
G01*
X395488688Y-154666100D02*
X395488683Y-154666095D01*
G75*
G02*
X395402655Y-153077433I751317J837345D01*
G01*
X396712657Y-151617433D01*
G75*
G02*
X398301319Y-151531405I837345J-751317D01*
G01*
X398301319Y-151531405D01*
G75*
G02*
X398387347Y-153120067I-751317J-837345D01*
G01*
X397077345Y-154580067D01*
G75*
G02*
X395488683Y-154666095I-837345J751317D01*
G01*
G37*
G36*
G01*
X402473483Y-152991145D02*
X402472597Y-152991084D01*
G75*
G02*
X401427666Y-151791347I77403J1122334D01*
G01*
X401467666Y-151211347D01*
G75*
G02*
X402667403Y-150166416I1122334J-77403D01*
G01*
X402667403Y-150166416D01*
G75*
G02*
X403712334Y-151366153I-77403J-1122334D01*
G01*
X403672334Y-151946153D01*
G75*
G02*
X402472597Y-152991084I-1122334J77403D01*
G01*
G37*
X402590000Y-151288750D03*
D11*
X400050000Y-156368750D03*
D12*
X394970000Y-156368750D03*
X405130000Y-156368750D03*
D17*
X408575000Y-155218750D03*
X408575000Y-158518750D03*
D10*
X416600000Y-152368750D03*
G36*
G01*
X414538688Y-154666100D02*
X414538683Y-154666095D01*
G75*
G02*
X414452655Y-153077433I751317J837345D01*
G01*
X415762657Y-151617433D01*
G75*
G02*
X417351319Y-151531405I837345J-751317D01*
G01*
X417351319Y-151531405D01*
G75*
G02*
X417437347Y-153120067I-751317J-837345D01*
G01*
X416127345Y-154580067D01*
G75*
G02*
X414538683Y-154666095I-837345J751317D01*
G01*
G37*
G36*
G01*
X421523483Y-152991145D02*
X421522597Y-152991084D01*
G75*
G02*
X420477666Y-151791347I77403J1122334D01*
G01*
X420517666Y-151211347D01*
G75*
G02*
X421717403Y-150166416I1122334J-77403D01*
G01*
X421717403Y-150166416D01*
G75*
G02*
X422762334Y-151366153I-77403J-1122334D01*
G01*
X422722334Y-151946153D01*
G75*
G02*
X421522597Y-152991084I-1122334J77403D01*
G01*
G37*
X421640000Y-151288750D03*
D11*
X419100000Y-156368750D03*
D12*
X414020000Y-156368750D03*
X424180000Y-156368750D03*
D17*
X427625000Y-155218750D03*
X427625000Y-158518750D03*
D10*
X123706250Y-171418750D03*
G36*
G01*
X121644938Y-173716100D02*
X121644933Y-173716095D01*
G75*
G02*
X121558905Y-172127433I751317J837345D01*
G01*
X122868907Y-170667433D01*
G75*
G02*
X124457569Y-170581405I837345J-751317D01*
G01*
X124457569Y-170581405D01*
G75*
G02*
X124543597Y-172170067I-751317J-837345D01*
G01*
X123233595Y-173630067D01*
G75*
G02*
X121644933Y-173716095I-837345J751317D01*
G01*
G37*
G36*
G01*
X128629733Y-172041145D02*
X128628847Y-172041084D01*
G75*
G02*
X127583916Y-170841347I77403J1122334D01*
G01*
X127623916Y-170261347D01*
G75*
G02*
X128823653Y-169216416I1122334J-77403D01*
G01*
X128823653Y-169216416D01*
G75*
G02*
X129868584Y-170416153I-77403J-1122334D01*
G01*
X129828584Y-170996153D01*
G75*
G02*
X128628847Y-172041084I-1122334J77403D01*
G01*
G37*
X128746250Y-170338750D03*
D11*
X126206250Y-175418750D03*
D12*
X121126250Y-175418750D03*
X131286250Y-175418750D03*
D17*
X137112500Y-174268750D03*
X137112500Y-177568750D03*
D10*
X145137500Y-171418750D03*
G36*
G01*
X143076188Y-173716100D02*
X143076183Y-173716095D01*
G75*
G02*
X142990155Y-172127433I751317J837345D01*
G01*
X144300157Y-170667433D01*
G75*
G02*
X145888819Y-170581405I837345J-751317D01*
G01*
X145888819Y-170581405D01*
G75*
G02*
X145974847Y-172170067I-751317J-837345D01*
G01*
X144664845Y-173630067D01*
G75*
G02*
X143076183Y-173716095I-837345J751317D01*
G01*
G37*
G36*
G01*
X150060983Y-172041145D02*
X150060097Y-172041084D01*
G75*
G02*
X149015166Y-170841347I77403J1122334D01*
G01*
X149055166Y-170261347D01*
G75*
G02*
X150254903Y-169216416I1122334J-77403D01*
G01*
X150254903Y-169216416D01*
G75*
G02*
X151299834Y-170416153I-77403J-1122334D01*
G01*
X151259834Y-170996153D01*
G75*
G02*
X150060097Y-172041084I-1122334J77403D01*
G01*
G37*
X150177500Y-170338750D03*
D11*
X147637500Y-175418750D03*
D12*
X142557500Y-175418750D03*
X152717500Y-175418750D03*
D17*
X156162500Y-174268750D03*
X156162500Y-177568750D03*
D10*
X164187500Y-171418750D03*
G36*
G01*
X162126188Y-173716100D02*
X162126183Y-173716095D01*
G75*
G02*
X162040155Y-172127433I751317J837345D01*
G01*
X163350157Y-170667433D01*
G75*
G02*
X164938819Y-170581405I837345J-751317D01*
G01*
X164938819Y-170581405D01*
G75*
G02*
X165024847Y-172170067I-751317J-837345D01*
G01*
X163714845Y-173630067D01*
G75*
G02*
X162126183Y-173716095I-837345J751317D01*
G01*
G37*
G36*
G01*
X169110983Y-172041145D02*
X169110097Y-172041084D01*
G75*
G02*
X168065166Y-170841347I77403J1122334D01*
G01*
X168105166Y-170261347D01*
G75*
G02*
X169304903Y-169216416I1122334J-77403D01*
G01*
X169304903Y-169216416D01*
G75*
G02*
X170349834Y-170416153I-77403J-1122334D01*
G01*
X170309834Y-170996153D01*
G75*
G02*
X169110097Y-172041084I-1122334J77403D01*
G01*
G37*
X169227500Y-170338750D03*
D11*
X166687500Y-175418750D03*
D12*
X161607500Y-175418750D03*
X171767500Y-175418750D03*
D17*
X175212500Y-174268750D03*
X175212500Y-177568750D03*
D10*
X183237500Y-171418750D03*
G36*
G01*
X181176188Y-173716100D02*
X181176183Y-173716095D01*
G75*
G02*
X181090155Y-172127433I751317J837345D01*
G01*
X182400157Y-170667433D01*
G75*
G02*
X183988819Y-170581405I837345J-751317D01*
G01*
X183988819Y-170581405D01*
G75*
G02*
X184074847Y-172170067I-751317J-837345D01*
G01*
X182764845Y-173630067D01*
G75*
G02*
X181176183Y-173716095I-837345J751317D01*
G01*
G37*
G36*
G01*
X188160983Y-172041145D02*
X188160097Y-172041084D01*
G75*
G02*
X187115166Y-170841347I77403J1122334D01*
G01*
X187155166Y-170261347D01*
G75*
G02*
X188354903Y-169216416I1122334J-77403D01*
G01*
X188354903Y-169216416D01*
G75*
G02*
X189399834Y-170416153I-77403J-1122334D01*
G01*
X189359834Y-170996153D01*
G75*
G02*
X188160097Y-172041084I-1122334J77403D01*
G01*
G37*
X188277500Y-170338750D03*
D11*
X185737500Y-175418750D03*
D12*
X180657500Y-175418750D03*
X190817500Y-175418750D03*
D17*
X194262500Y-174268750D03*
X194262500Y-177568750D03*
D10*
X202287500Y-171418750D03*
G36*
G01*
X200226188Y-173716100D02*
X200226183Y-173716095D01*
G75*
G02*
X200140155Y-172127433I751317J837345D01*
G01*
X201450157Y-170667433D01*
G75*
G02*
X203038819Y-170581405I837345J-751317D01*
G01*
X203038819Y-170581405D01*
G75*
G02*
X203124847Y-172170067I-751317J-837345D01*
G01*
X201814845Y-173630067D01*
G75*
G02*
X200226183Y-173716095I-837345J751317D01*
G01*
G37*
G36*
G01*
X207210983Y-172041145D02*
X207210097Y-172041084D01*
G75*
G02*
X206165166Y-170841347I77403J1122334D01*
G01*
X206205166Y-170261347D01*
G75*
G02*
X207404903Y-169216416I1122334J-77403D01*
G01*
X207404903Y-169216416D01*
G75*
G02*
X208449834Y-170416153I-77403J-1122334D01*
G01*
X208409834Y-170996153D01*
G75*
G02*
X207210097Y-172041084I-1122334J77403D01*
G01*
G37*
X207327500Y-170338750D03*
D11*
X204787500Y-175418750D03*
D12*
X199707500Y-175418750D03*
X209867500Y-175418750D03*
D17*
X213312500Y-174268750D03*
X213312500Y-177568750D03*
D10*
X221337500Y-171418750D03*
G36*
G01*
X219276188Y-173716100D02*
X219276183Y-173716095D01*
G75*
G02*
X219190155Y-172127433I751317J837345D01*
G01*
X220500157Y-170667433D01*
G75*
G02*
X222088819Y-170581405I837345J-751317D01*
G01*
X222088819Y-170581405D01*
G75*
G02*
X222174847Y-172170067I-751317J-837345D01*
G01*
X220864845Y-173630067D01*
G75*
G02*
X219276183Y-173716095I-837345J751317D01*
G01*
G37*
G36*
G01*
X226260983Y-172041145D02*
X226260097Y-172041084D01*
G75*
G02*
X225215166Y-170841347I77403J1122334D01*
G01*
X225255166Y-170261347D01*
G75*
G02*
X226454903Y-169216416I1122334J-77403D01*
G01*
X226454903Y-169216416D01*
G75*
G02*
X227499834Y-170416153I-77403J-1122334D01*
G01*
X227459834Y-170996153D01*
G75*
G02*
X226260097Y-172041084I-1122334J77403D01*
G01*
G37*
X226377500Y-170338750D03*
D11*
X223837500Y-175418750D03*
D12*
X218757500Y-175418750D03*
X228917500Y-175418750D03*
D17*
X232362500Y-174268750D03*
X232362500Y-177568750D03*
D10*
X240387500Y-171418750D03*
G36*
G01*
X238326188Y-173716100D02*
X238326183Y-173716095D01*
G75*
G02*
X238240155Y-172127433I751317J837345D01*
G01*
X239550157Y-170667433D01*
G75*
G02*
X241138819Y-170581405I837345J-751317D01*
G01*
X241138819Y-170581405D01*
G75*
G02*
X241224847Y-172170067I-751317J-837345D01*
G01*
X239914845Y-173630067D01*
G75*
G02*
X238326183Y-173716095I-837345J751317D01*
G01*
G37*
G36*
G01*
X245310983Y-172041145D02*
X245310097Y-172041084D01*
G75*
G02*
X244265166Y-170841347I77403J1122334D01*
G01*
X244305166Y-170261347D01*
G75*
G02*
X245504903Y-169216416I1122334J-77403D01*
G01*
X245504903Y-169216416D01*
G75*
G02*
X246549834Y-170416153I-77403J-1122334D01*
G01*
X246509834Y-170996153D01*
G75*
G02*
X245310097Y-172041084I-1122334J77403D01*
G01*
G37*
X245427500Y-170338750D03*
D11*
X242887500Y-175418750D03*
D12*
X237807500Y-175418750D03*
X247967500Y-175418750D03*
D17*
X251412500Y-174268750D03*
X251412500Y-177568750D03*
D10*
X259437500Y-171418750D03*
G36*
G01*
X257376188Y-173716100D02*
X257376183Y-173716095D01*
G75*
G02*
X257290155Y-172127433I751317J837345D01*
G01*
X258600157Y-170667433D01*
G75*
G02*
X260188819Y-170581405I837345J-751317D01*
G01*
X260188819Y-170581405D01*
G75*
G02*
X260274847Y-172170067I-751317J-837345D01*
G01*
X258964845Y-173630067D01*
G75*
G02*
X257376183Y-173716095I-837345J751317D01*
G01*
G37*
G36*
G01*
X264360983Y-172041145D02*
X264360097Y-172041084D01*
G75*
G02*
X263315166Y-170841347I77403J1122334D01*
G01*
X263355166Y-170261347D01*
G75*
G02*
X264554903Y-169216416I1122334J-77403D01*
G01*
X264554903Y-169216416D01*
G75*
G02*
X265599834Y-170416153I-77403J-1122334D01*
G01*
X265559834Y-170996153D01*
G75*
G02*
X264360097Y-172041084I-1122334J77403D01*
G01*
G37*
X264477500Y-170338750D03*
D11*
X261937500Y-175418750D03*
D12*
X256857500Y-175418750D03*
X267017500Y-175418750D03*
D17*
X270462500Y-174268750D03*
X270462500Y-177568750D03*
D10*
X278487500Y-171418750D03*
G36*
G01*
X276426188Y-173716100D02*
X276426183Y-173716095D01*
G75*
G02*
X276340155Y-172127433I751317J837345D01*
G01*
X277650157Y-170667433D01*
G75*
G02*
X279238819Y-170581405I837345J-751317D01*
G01*
X279238819Y-170581405D01*
G75*
G02*
X279324847Y-172170067I-751317J-837345D01*
G01*
X278014845Y-173630067D01*
G75*
G02*
X276426183Y-173716095I-837345J751317D01*
G01*
G37*
G36*
G01*
X283410983Y-172041145D02*
X283410097Y-172041084D01*
G75*
G02*
X282365166Y-170841347I77403J1122334D01*
G01*
X282405166Y-170261347D01*
G75*
G02*
X283604903Y-169216416I1122334J-77403D01*
G01*
X283604903Y-169216416D01*
G75*
G02*
X284649834Y-170416153I-77403J-1122334D01*
G01*
X284609834Y-170996153D01*
G75*
G02*
X283410097Y-172041084I-1122334J77403D01*
G01*
G37*
X283527500Y-170338750D03*
D11*
X280987500Y-175418750D03*
D12*
X275907500Y-175418750D03*
X286067500Y-175418750D03*
D17*
X289512500Y-174268750D03*
X289512500Y-177568750D03*
D10*
X297537500Y-171418750D03*
G36*
G01*
X295476188Y-173716100D02*
X295476183Y-173716095D01*
G75*
G02*
X295390155Y-172127433I751317J837345D01*
G01*
X296700157Y-170667433D01*
G75*
G02*
X298288819Y-170581405I837345J-751317D01*
G01*
X298288819Y-170581405D01*
G75*
G02*
X298374847Y-172170067I-751317J-837345D01*
G01*
X297064845Y-173630067D01*
G75*
G02*
X295476183Y-173716095I-837345J751317D01*
G01*
G37*
G36*
G01*
X302460983Y-172041145D02*
X302460097Y-172041084D01*
G75*
G02*
X301415166Y-170841347I77403J1122334D01*
G01*
X301455166Y-170261347D01*
G75*
G02*
X302654903Y-169216416I1122334J-77403D01*
G01*
X302654903Y-169216416D01*
G75*
G02*
X303699834Y-170416153I-77403J-1122334D01*
G01*
X303659834Y-170996153D01*
G75*
G02*
X302460097Y-172041084I-1122334J77403D01*
G01*
G37*
X302577500Y-170338750D03*
D11*
X300037500Y-175418750D03*
D12*
X294957500Y-175418750D03*
X305117500Y-175418750D03*
D17*
X308562500Y-174268750D03*
X308562500Y-177568750D03*
D10*
X323731250Y-171418750D03*
G36*
G01*
X321669938Y-173716100D02*
X321669933Y-173716095D01*
G75*
G02*
X321583905Y-172127433I751317J837345D01*
G01*
X322893907Y-170667433D01*
G75*
G02*
X324482569Y-170581405I837345J-751317D01*
G01*
X324482569Y-170581405D01*
G75*
G02*
X324568597Y-172170067I-751317J-837345D01*
G01*
X323258595Y-173630067D01*
G75*
G02*
X321669933Y-173716095I-837345J751317D01*
G01*
G37*
G36*
G01*
X328654733Y-172041145D02*
X328653847Y-172041084D01*
G75*
G02*
X327608916Y-170841347I77403J1122334D01*
G01*
X327648916Y-170261347D01*
G75*
G02*
X328848653Y-169216416I1122334J-77403D01*
G01*
X328848653Y-169216416D01*
G75*
G02*
X329893584Y-170416153I-77403J-1122334D01*
G01*
X329853584Y-170996153D01*
G75*
G02*
X328653847Y-172041084I-1122334J77403D01*
G01*
G37*
X328771250Y-170338750D03*
D11*
X326231250Y-175418750D03*
D12*
X321151250Y-175418750D03*
X331311250Y-175418750D03*
D17*
X341900000Y-174268750D03*
X341900000Y-177568750D03*
D10*
X128468750Y-190468750D03*
G36*
G01*
X126407438Y-192766100D02*
X126407433Y-192766095D01*
G75*
G02*
X126321405Y-191177433I751317J837345D01*
G01*
X127631407Y-189717433D01*
G75*
G02*
X129220069Y-189631405I837345J-751317D01*
G01*
X129220069Y-189631405D01*
G75*
G02*
X129306097Y-191220067I-751317J-837345D01*
G01*
X127996095Y-192680067D01*
G75*
G02*
X126407433Y-192766095I-837345J751317D01*
G01*
G37*
G36*
G01*
X133392233Y-191091145D02*
X133391347Y-191091084D01*
G75*
G02*
X132346416Y-189891347I77403J1122334D01*
G01*
X132386416Y-189311347D01*
G75*
G02*
X133586153Y-188266416I1122334J-77403D01*
G01*
X133586153Y-188266416D01*
G75*
G02*
X134631084Y-189466153I-77403J-1122334D01*
G01*
X134591084Y-190046153D01*
G75*
G02*
X133391347Y-191091084I-1122334J77403D01*
G01*
G37*
X133508750Y-189388750D03*
D11*
X130968750Y-194468750D03*
D12*
X125888750Y-194468750D03*
X136048750Y-194468750D03*
D17*
X146637500Y-193318750D03*
X146637500Y-196618750D03*
D10*
X154662500Y-190468750D03*
G36*
G01*
X152601188Y-192766100D02*
X152601183Y-192766095D01*
G75*
G02*
X152515155Y-191177433I751317J837345D01*
G01*
X153825157Y-189717433D01*
G75*
G02*
X155413819Y-189631405I837345J-751317D01*
G01*
X155413819Y-189631405D01*
G75*
G02*
X155499847Y-191220067I-751317J-837345D01*
G01*
X154189845Y-192680067D01*
G75*
G02*
X152601183Y-192766095I-837345J751317D01*
G01*
G37*
G36*
G01*
X159585983Y-191091145D02*
X159585097Y-191091084D01*
G75*
G02*
X158540166Y-189891347I77403J1122334D01*
G01*
X158580166Y-189311347D01*
G75*
G02*
X159779903Y-188266416I1122334J-77403D01*
G01*
X159779903Y-188266416D01*
G75*
G02*
X160824834Y-189466153I-77403J-1122334D01*
G01*
X160784834Y-190046153D01*
G75*
G02*
X159585097Y-191091084I-1122334J77403D01*
G01*
G37*
X159702500Y-189388750D03*
D11*
X157162500Y-194468750D03*
D12*
X152082500Y-194468750D03*
X162242500Y-194468750D03*
D17*
X165687500Y-193318750D03*
X165687500Y-196618750D03*
D10*
X173712500Y-190468750D03*
G36*
G01*
X171651188Y-192766100D02*
X171651183Y-192766095D01*
G75*
G02*
X171565155Y-191177433I751317J837345D01*
G01*
X172875157Y-189717433D01*
G75*
G02*
X174463819Y-189631405I837345J-751317D01*
G01*
X174463819Y-189631405D01*
G75*
G02*
X174549847Y-191220067I-751317J-837345D01*
G01*
X173239845Y-192680067D01*
G75*
G02*
X171651183Y-192766095I-837345J751317D01*
G01*
G37*
G36*
G01*
X178635983Y-191091145D02*
X178635097Y-191091084D01*
G75*
G02*
X177590166Y-189891347I77403J1122334D01*
G01*
X177630166Y-189311347D01*
G75*
G02*
X178829903Y-188266416I1122334J-77403D01*
G01*
X178829903Y-188266416D01*
G75*
G02*
X179874834Y-189466153I-77403J-1122334D01*
G01*
X179834834Y-190046153D01*
G75*
G02*
X178635097Y-191091084I-1122334J77403D01*
G01*
G37*
X178752500Y-189388750D03*
D11*
X176212500Y-194468750D03*
D12*
X171132500Y-194468750D03*
X181292500Y-194468750D03*
D17*
X184737500Y-193318750D03*
X184737500Y-196618750D03*
D10*
X192762500Y-190468750D03*
G36*
G01*
X190701188Y-192766100D02*
X190701183Y-192766095D01*
G75*
G02*
X190615155Y-191177433I751317J837345D01*
G01*
X191925157Y-189717433D01*
G75*
G02*
X193513819Y-189631405I837345J-751317D01*
G01*
X193513819Y-189631405D01*
G75*
G02*
X193599847Y-191220067I-751317J-837345D01*
G01*
X192289845Y-192680067D01*
G75*
G02*
X190701183Y-192766095I-837345J751317D01*
G01*
G37*
G36*
G01*
X197685983Y-191091145D02*
X197685097Y-191091084D01*
G75*
G02*
X196640166Y-189891347I77403J1122334D01*
G01*
X196680166Y-189311347D01*
G75*
G02*
X197879903Y-188266416I1122334J-77403D01*
G01*
X197879903Y-188266416D01*
G75*
G02*
X198924834Y-189466153I-77403J-1122334D01*
G01*
X198884834Y-190046153D01*
G75*
G02*
X197685097Y-191091084I-1122334J77403D01*
G01*
G37*
X197802500Y-189388750D03*
D11*
X195262500Y-194468750D03*
D12*
X190182500Y-194468750D03*
X200342500Y-194468750D03*
D17*
X203787500Y-193318750D03*
X203787500Y-196618750D03*
D10*
X211812500Y-190468750D03*
G36*
G01*
X209751188Y-192766100D02*
X209751183Y-192766095D01*
G75*
G02*
X209665155Y-191177433I751317J837345D01*
G01*
X210975157Y-189717433D01*
G75*
G02*
X212563819Y-189631405I837345J-751317D01*
G01*
X212563819Y-189631405D01*
G75*
G02*
X212649847Y-191220067I-751317J-837345D01*
G01*
X211339845Y-192680067D01*
G75*
G02*
X209751183Y-192766095I-837345J751317D01*
G01*
G37*
G36*
G01*
X216735983Y-191091145D02*
X216735097Y-191091084D01*
G75*
G02*
X215690166Y-189891347I77403J1122334D01*
G01*
X215730166Y-189311347D01*
G75*
G02*
X216929903Y-188266416I1122334J-77403D01*
G01*
X216929903Y-188266416D01*
G75*
G02*
X217974834Y-189466153I-77403J-1122334D01*
G01*
X217934834Y-190046153D01*
G75*
G02*
X216735097Y-191091084I-1122334J77403D01*
G01*
G37*
X216852500Y-189388750D03*
D11*
X214312500Y-194468750D03*
D12*
X209232500Y-194468750D03*
X219392500Y-194468750D03*
D17*
X222837500Y-193318750D03*
X222837500Y-196618750D03*
D10*
X230862500Y-190468750D03*
G36*
G01*
X228801188Y-192766100D02*
X228801183Y-192766095D01*
G75*
G02*
X228715155Y-191177433I751317J837345D01*
G01*
X230025157Y-189717433D01*
G75*
G02*
X231613819Y-189631405I837345J-751317D01*
G01*
X231613819Y-189631405D01*
G75*
G02*
X231699847Y-191220067I-751317J-837345D01*
G01*
X230389845Y-192680067D01*
G75*
G02*
X228801183Y-192766095I-837345J751317D01*
G01*
G37*
G36*
G01*
X235785983Y-191091145D02*
X235785097Y-191091084D01*
G75*
G02*
X234740166Y-189891347I77403J1122334D01*
G01*
X234780166Y-189311347D01*
G75*
G02*
X235979903Y-188266416I1122334J-77403D01*
G01*
X235979903Y-188266416D01*
G75*
G02*
X237024834Y-189466153I-77403J-1122334D01*
G01*
X236984834Y-190046153D01*
G75*
G02*
X235785097Y-191091084I-1122334J77403D01*
G01*
G37*
X235902500Y-189388750D03*
D11*
X233362500Y-194468750D03*
D12*
X228282500Y-194468750D03*
X238442500Y-194468750D03*
D17*
X241887500Y-193318750D03*
X241887500Y-196618750D03*
D10*
X249912500Y-190468750D03*
G36*
G01*
X247851188Y-192766100D02*
X247851183Y-192766095D01*
G75*
G02*
X247765155Y-191177433I751317J837345D01*
G01*
X249075157Y-189717433D01*
G75*
G02*
X250663819Y-189631405I837345J-751317D01*
G01*
X250663819Y-189631405D01*
G75*
G02*
X250749847Y-191220067I-751317J-837345D01*
G01*
X249439845Y-192680067D01*
G75*
G02*
X247851183Y-192766095I-837345J751317D01*
G01*
G37*
G36*
G01*
X254835983Y-191091145D02*
X254835097Y-191091084D01*
G75*
G02*
X253790166Y-189891347I77403J1122334D01*
G01*
X253830166Y-189311347D01*
G75*
G02*
X255029903Y-188266416I1122334J-77403D01*
G01*
X255029903Y-188266416D01*
G75*
G02*
X256074834Y-189466153I-77403J-1122334D01*
G01*
X256034834Y-190046153D01*
G75*
G02*
X254835097Y-191091084I-1122334J77403D01*
G01*
G37*
X254952500Y-189388750D03*
D11*
X252412500Y-194468750D03*
D12*
X247332500Y-194468750D03*
X257492500Y-194468750D03*
D17*
X260937500Y-193318750D03*
X260937500Y-196618750D03*
D10*
X268962500Y-190468750D03*
G36*
G01*
X266901188Y-192766100D02*
X266901183Y-192766095D01*
G75*
G02*
X266815155Y-191177433I751317J837345D01*
G01*
X268125157Y-189717433D01*
G75*
G02*
X269713819Y-189631405I837345J-751317D01*
G01*
X269713819Y-189631405D01*
G75*
G02*
X269799847Y-191220067I-751317J-837345D01*
G01*
X268489845Y-192680067D01*
G75*
G02*
X266901183Y-192766095I-837345J751317D01*
G01*
G37*
G36*
G01*
X273885983Y-191091145D02*
X273885097Y-191091084D01*
G75*
G02*
X272840166Y-189891347I77403J1122334D01*
G01*
X272880166Y-189311347D01*
G75*
G02*
X274079903Y-188266416I1122334J-77403D01*
G01*
X274079903Y-188266416D01*
G75*
G02*
X275124834Y-189466153I-77403J-1122334D01*
G01*
X275084834Y-190046153D01*
G75*
G02*
X273885097Y-191091084I-1122334J77403D01*
G01*
G37*
X274002500Y-189388750D03*
D11*
X271462500Y-194468750D03*
D12*
X266382500Y-194468750D03*
X276542500Y-194468750D03*
D17*
X279987500Y-193318750D03*
X279987500Y-196618750D03*
D10*
X288012500Y-190468750D03*
G36*
G01*
X285951188Y-192766100D02*
X285951183Y-192766095D01*
G75*
G02*
X285865155Y-191177433I751317J837345D01*
G01*
X287175157Y-189717433D01*
G75*
G02*
X288763819Y-189631405I837345J-751317D01*
G01*
X288763819Y-189631405D01*
G75*
G02*
X288849847Y-191220067I-751317J-837345D01*
G01*
X287539845Y-192680067D01*
G75*
G02*
X285951183Y-192766095I-837345J751317D01*
G01*
G37*
G36*
G01*
X292935983Y-191091145D02*
X292935097Y-191091084D01*
G75*
G02*
X291890166Y-189891347I77403J1122334D01*
G01*
X291930166Y-189311347D01*
G75*
G02*
X293129903Y-188266416I1122334J-77403D01*
G01*
X293129903Y-188266416D01*
G75*
G02*
X294174834Y-189466153I-77403J-1122334D01*
G01*
X294134834Y-190046153D01*
G75*
G02*
X292935097Y-191091084I-1122334J77403D01*
G01*
G37*
X293052500Y-189388750D03*
D11*
X290512500Y-194468750D03*
D12*
X285432500Y-194468750D03*
X295592500Y-194468750D03*
D17*
X299037500Y-193318750D03*
X299037500Y-196618750D03*
D10*
X307062500Y-190468750D03*
G36*
G01*
X305001188Y-192766100D02*
X305001183Y-192766095D01*
G75*
G02*
X304915155Y-191177433I751317J837345D01*
G01*
X306225157Y-189717433D01*
G75*
G02*
X307813819Y-189631405I837345J-751317D01*
G01*
X307813819Y-189631405D01*
G75*
G02*
X307899847Y-191220067I-751317J-837345D01*
G01*
X306589845Y-192680067D01*
G75*
G02*
X305001183Y-192766095I-837345J751317D01*
G01*
G37*
G36*
G01*
X311985983Y-191091145D02*
X311985097Y-191091084D01*
G75*
G02*
X310940166Y-189891347I77403J1122334D01*
G01*
X310980166Y-189311347D01*
G75*
G02*
X312179903Y-188266416I1122334J-77403D01*
G01*
X312179903Y-188266416D01*
G75*
G02*
X313224834Y-189466153I-77403J-1122334D01*
G01*
X313184834Y-190046153D01*
G75*
G02*
X311985097Y-191091084I-1122334J77403D01*
G01*
G37*
X312102500Y-189388750D03*
D11*
X309562500Y-194468750D03*
D12*
X304482500Y-194468750D03*
X314642500Y-194468750D03*
D17*
X318087500Y-193318750D03*
X318087500Y-196618750D03*
D10*
X328493750Y-190468750D03*
G36*
G01*
X326432438Y-192766100D02*
X326432433Y-192766095D01*
G75*
G02*
X326346405Y-191177433I751317J837345D01*
G01*
X327656407Y-189717433D01*
G75*
G02*
X329245069Y-189631405I837345J-751317D01*
G01*
X329245069Y-189631405D01*
G75*
G02*
X329331097Y-191220067I-751317J-837345D01*
G01*
X328021095Y-192680067D01*
G75*
G02*
X326432433Y-192766095I-837345J751317D01*
G01*
G37*
G36*
G01*
X333417233Y-191091145D02*
X333416347Y-191091084D01*
G75*
G02*
X332371416Y-189891347I77403J1122334D01*
G01*
X332411416Y-189311347D01*
G75*
G02*
X333611153Y-188266416I1122334J-77403D01*
G01*
X333611153Y-188266416D01*
G75*
G02*
X334656084Y-189466153I-77403J-1122334D01*
G01*
X334616084Y-190046153D01*
G75*
G02*
X333416347Y-191091084I-1122334J77403D01*
G01*
G37*
X333533750Y-189388750D03*
D11*
X330993750Y-194468750D03*
D12*
X325913750Y-194468750D03*
X336073750Y-194468750D03*
D17*
X341900000Y-193318750D03*
X341900000Y-196618750D03*
D10*
X397550000Y-190468750D03*
G36*
G01*
X395488688Y-192766100D02*
X395488683Y-192766095D01*
G75*
G02*
X395402655Y-191177433I751317J837345D01*
G01*
X396712657Y-189717433D01*
G75*
G02*
X398301319Y-189631405I837345J-751317D01*
G01*
X398301319Y-189631405D01*
G75*
G02*
X398387347Y-191220067I-751317J-837345D01*
G01*
X397077345Y-192680067D01*
G75*
G02*
X395488683Y-192766095I-837345J751317D01*
G01*
G37*
G36*
G01*
X402473483Y-191091145D02*
X402472597Y-191091084D01*
G75*
G02*
X401427666Y-189891347I77403J1122334D01*
G01*
X401467666Y-189311347D01*
G75*
G02*
X402667403Y-188266416I1122334J-77403D01*
G01*
X402667403Y-188266416D01*
G75*
G02*
X403712334Y-189466153I-77403J-1122334D01*
G01*
X403672334Y-190046153D01*
G75*
G02*
X402472597Y-191091084I-1122334J77403D01*
G01*
G37*
X402590000Y-189388750D03*
D11*
X400050000Y-194468750D03*
D12*
X394970000Y-194468750D03*
X405130000Y-194468750D03*
D17*
X408575000Y-193318750D03*
X408575000Y-196618750D03*
X180181250Y-212662500D03*
X180181250Y-215962500D03*
D10*
X140375000Y-209518750D03*
G36*
G01*
X138313688Y-211816100D02*
X138313683Y-211816095D01*
G75*
G02*
X138227655Y-210227433I751317J837345D01*
G01*
X139537657Y-208767433D01*
G75*
G02*
X141126319Y-208681405I837345J-751317D01*
G01*
X141126319Y-208681405D01*
G75*
G02*
X141212347Y-210270067I-751317J-837345D01*
G01*
X139902345Y-211730067D01*
G75*
G02*
X138313683Y-211816095I-837345J751317D01*
G01*
G37*
G36*
G01*
X145298483Y-210141145D02*
X145297597Y-210141084D01*
G75*
G02*
X144252666Y-208941347I77403J1122334D01*
G01*
X144292666Y-208361347D01*
G75*
G02*
X145492403Y-207316416I1122334J-77403D01*
G01*
X145492403Y-207316416D01*
G75*
G02*
X146537334Y-208516153I-77403J-1122334D01*
G01*
X146497334Y-209096153D01*
G75*
G02*
X145297597Y-210141084I-1122334J77403D01*
G01*
G37*
X145415000Y-208438750D03*
D11*
X142875000Y-213518750D03*
D12*
X137795000Y-213518750D03*
X147955000Y-213518750D03*
D17*
X150812500Y-211868750D03*
X150812500Y-215168750D03*
D10*
X199906250Y-209518750D03*
G36*
G01*
X197844938Y-211816100D02*
X197844933Y-211816095D01*
G75*
G02*
X197758905Y-210227433I751317J837345D01*
G01*
X199068907Y-208767433D01*
G75*
G02*
X200657569Y-208681405I837345J-751317D01*
G01*
X200657569Y-208681405D01*
G75*
G02*
X200743597Y-210270067I-751317J-837345D01*
G01*
X199433595Y-211730067D01*
G75*
G02*
X197844933Y-211816095I-837345J751317D01*
G01*
G37*
G36*
G01*
X204829733Y-210141145D02*
X204828847Y-210141084D01*
G75*
G02*
X203783916Y-208941347I77403J1122334D01*
G01*
X203823916Y-208361347D01*
G75*
G02*
X205023653Y-207316416I1122334J-77403D01*
G01*
X205023653Y-207316416D01*
G75*
G02*
X206068584Y-208516153I-77403J-1122334D01*
G01*
X206028584Y-209096153D01*
G75*
G02*
X204828847Y-210141084I-1122334J77403D01*
G01*
G37*
X204946250Y-208438750D03*
D11*
X202406250Y-213518750D03*
D12*
X197326250Y-213518750D03*
X207486250Y-213518750D03*
D18*
X190468250Y-206533750D03*
X214344250Y-206533750D03*
D11*
X190468250Y-221773750D03*
X214344250Y-221773750D03*
D17*
X222837500Y-212368750D03*
X222837500Y-215668750D03*
D10*
X247531250Y-209518750D03*
G36*
G01*
X245469938Y-211816100D02*
X245469933Y-211816095D01*
G75*
G02*
X245383905Y-210227433I751317J837345D01*
G01*
X246693907Y-208767433D01*
G75*
G02*
X248282569Y-208681405I837345J-751317D01*
G01*
X248282569Y-208681405D01*
G75*
G02*
X248368597Y-210270067I-751317J-837345D01*
G01*
X247058595Y-211730067D01*
G75*
G02*
X245469933Y-211816095I-837345J751317D01*
G01*
G37*
G36*
G01*
X252454733Y-210141145D02*
X252453847Y-210141084D01*
G75*
G02*
X251408916Y-208941347I77403J1122334D01*
G01*
X251448916Y-208361347D01*
G75*
G02*
X252648653Y-207316416I1122334J-77403D01*
G01*
X252648653Y-207316416D01*
G75*
G02*
X253693584Y-208516153I-77403J-1122334D01*
G01*
X253653584Y-209096153D01*
G75*
G02*
X252453847Y-210141084I-1122334J77403D01*
G01*
G37*
X252571250Y-208438750D03*
D11*
X250031250Y-213518750D03*
D12*
X244951250Y-213518750D03*
X255111250Y-213518750D03*
D18*
X238093250Y-206533750D03*
X261969250Y-206533750D03*
D11*
X238093250Y-221773750D03*
X261969250Y-221773750D03*
D17*
X275225000Y-212368750D03*
X275225000Y-215668750D03*
X322707000Y-212218000D03*
X322707000Y-215518000D03*
D10*
X288012500Y-209518750D03*
G36*
G01*
X285951188Y-211816100D02*
X285951183Y-211816095D01*
G75*
G02*
X285865155Y-210227433I751317J837345D01*
G01*
X287175157Y-208767433D01*
G75*
G02*
X288763819Y-208681405I837345J-751317D01*
G01*
X288763819Y-208681405D01*
G75*
G02*
X288849847Y-210270067I-751317J-837345D01*
G01*
X287539845Y-211730067D01*
G75*
G02*
X285951183Y-211816095I-837345J751317D01*
G01*
G37*
G36*
G01*
X292935983Y-210141145D02*
X292935097Y-210141084D01*
G75*
G02*
X291890166Y-208941347I77403J1122334D01*
G01*
X291930166Y-208361347D01*
G75*
G02*
X293129903Y-207316416I1122334J-77403D01*
G01*
X293129903Y-207316416D01*
G75*
G02*
X294174834Y-208516153I-77403J-1122334D01*
G01*
X294134834Y-209096153D01*
G75*
G02*
X292935097Y-210141084I-1122334J77403D01*
G01*
G37*
X293052500Y-208438750D03*
D11*
X290512500Y-213518750D03*
D12*
X285432500Y-213518750D03*
X295592500Y-213518750D03*
D17*
X300831250Y-212345000D03*
X300831250Y-215645000D03*
D10*
X378500000Y-209518750D03*
G36*
G01*
X376438688Y-211816100D02*
X376438683Y-211816095D01*
G75*
G02*
X376352655Y-210227433I751317J837345D01*
G01*
X377662657Y-208767433D01*
G75*
G02*
X379251319Y-208681405I837345J-751317D01*
G01*
X379251319Y-208681405D01*
G75*
G02*
X379337347Y-210270067I-751317J-837345D01*
G01*
X378027345Y-211730067D01*
G75*
G02*
X376438683Y-211816095I-837345J751317D01*
G01*
G37*
G36*
G01*
X383423483Y-210141145D02*
X383422597Y-210141084D01*
G75*
G02*
X382377666Y-208941347I77403J1122334D01*
G01*
X382417666Y-208361347D01*
G75*
G02*
X383617403Y-207316416I1122334J-77403D01*
G01*
X383617403Y-207316416D01*
G75*
G02*
X384662334Y-208516153I-77403J-1122334D01*
G01*
X384622334Y-209096153D01*
G75*
G02*
X383422597Y-210141084I-1122334J77403D01*
G01*
G37*
X383540000Y-208438750D03*
D11*
X381000000Y-213518750D03*
D12*
X375920000Y-213518750D03*
X386080000Y-213518750D03*
D17*
X389525000Y-212368750D03*
X389525000Y-215668750D03*
D10*
X397550000Y-209518750D03*
G36*
G01*
X395488688Y-211816100D02*
X395488683Y-211816095D01*
G75*
G02*
X395402655Y-210227433I751317J837345D01*
G01*
X396712657Y-208767433D01*
G75*
G02*
X398301319Y-208681405I837345J-751317D01*
G01*
X398301319Y-208681405D01*
G75*
G02*
X398387347Y-210270067I-751317J-837345D01*
G01*
X397077345Y-211730067D01*
G75*
G02*
X395488683Y-211816095I-837345J751317D01*
G01*
G37*
G36*
G01*
X402473483Y-210141145D02*
X402472597Y-210141084D01*
G75*
G02*
X401427666Y-208941347I77403J1122334D01*
G01*
X401467666Y-208361347D01*
G75*
G02*
X402667403Y-207316416I1122334J-77403D01*
G01*
X402667403Y-207316416D01*
G75*
G02*
X403712334Y-208516153I-77403J-1122334D01*
G01*
X403672334Y-209096153D01*
G75*
G02*
X402472597Y-210141084I-1122334J77403D01*
G01*
G37*
X402590000Y-208438750D03*
D11*
X400050000Y-213518750D03*
D12*
X394970000Y-213518750D03*
X405130000Y-213518750D03*
D17*
X408575000Y-212368750D03*
X408575000Y-215668750D03*
D10*
X416600000Y-209518750D03*
G36*
G01*
X414538688Y-211816100D02*
X414538683Y-211816095D01*
G75*
G02*
X414452655Y-210227433I751317J837345D01*
G01*
X415762657Y-208767433D01*
G75*
G02*
X417351319Y-208681405I837345J-751317D01*
G01*
X417351319Y-208681405D01*
G75*
G02*
X417437347Y-210270067I-751317J-837345D01*
G01*
X416127345Y-211730067D01*
G75*
G02*
X414538683Y-211816095I-837345J751317D01*
G01*
G37*
G36*
G01*
X421523483Y-210141145D02*
X421522597Y-210141084D01*
G75*
G02*
X420477666Y-208941347I77403J1122334D01*
G01*
X420517666Y-208361347D01*
G75*
G02*
X421717403Y-207316416I1122334J-77403D01*
G01*
X421717403Y-207316416D01*
G75*
G02*
X422762334Y-208516153I-77403J-1122334D01*
G01*
X422722334Y-209096153D01*
G75*
G02*
X421522597Y-210141084I-1122334J77403D01*
G01*
G37*
X421640000Y-208438750D03*
D11*
X419100000Y-213518750D03*
D12*
X414020000Y-213518750D03*
X424180000Y-213518750D03*
D17*
X427625000Y-212368750D03*
X427625000Y-215668750D03*
M02*
