G04 #@! TF.GenerationSoftware,KiCad,Pcbnew,(5.1.10)-1*
G04 #@! TF.CreationDate,2021-07-17T14:00:26+02:00*
G04 #@! TF.ProjectId,WheelBarrow Pro Micro,57686565-6c42-4617-9272-6f772050726f,rev?*
G04 #@! TF.SameCoordinates,Original*
G04 #@! TF.FileFunction,Legend,Bot*
G04 #@! TF.FilePolarity,Positive*
%FSLAX46Y46*%
G04 Gerber Fmt 4.6, Leading zero omitted, Abs format (unit mm)*
G04 Created by KiCad (PCBNEW (5.1.10)-1) date 2021-07-17 14:00:26*
%MOMM*%
%LPD*%
G01*
G04 APERTURE LIST*
%ADD10C,0.150000*%
%ADD11C,0.120000*%
G04 APERTURE END LIST*
D10*
X366318800Y-172466000D02*
X348538800Y-172466000D01*
X348538800Y-172466000D02*
X348538800Y-141986000D01*
X348538800Y-141986000D02*
X353618800Y-141986000D01*
X353618800Y-141986000D02*
X353618800Y-139446000D01*
X353618800Y-139446000D02*
X361238800Y-139446000D01*
X361238800Y-139446000D02*
X361238800Y-141986000D01*
X361238800Y-141986000D02*
X366318800Y-141986000D01*
X366318800Y-141986000D02*
X366318800Y-172466000D01*
D11*
X422963000Y-195633000D02*
X422473000Y-196123000D01*
X422963000Y-192733000D02*
X422963000Y-195633000D01*
X422963000Y-192733000D02*
X422473000Y-192243000D01*
X417523000Y-192733000D02*
X417523000Y-195633000D01*
X417523000Y-192733000D02*
X418013000Y-192243000D01*
X421283000Y-196903000D02*
X419203000Y-196903000D01*
X417523000Y-195633000D02*
X418013000Y-196123000D01*
X421283000Y-191463000D02*
X419203000Y-191463000D01*
X133350000Y-159118750D02*
X131350000Y-159118750D01*
X131350000Y-159118750D02*
X131350000Y-155218750D01*
X133350000Y-159118750D02*
X133350000Y-155218750D01*
X152400000Y-159118750D02*
X150400000Y-159118750D01*
X150400000Y-159118750D02*
X150400000Y-155218750D01*
X152400000Y-159118750D02*
X152400000Y-155218750D01*
X171450000Y-159118750D02*
X169450000Y-159118750D01*
X169450000Y-159118750D02*
X169450000Y-155218750D01*
X171450000Y-159118750D02*
X171450000Y-155218750D01*
X190500000Y-159118750D02*
X188500000Y-159118750D01*
X188500000Y-159118750D02*
X188500000Y-155218750D01*
X190500000Y-159118750D02*
X190500000Y-155218750D01*
X209550000Y-159118750D02*
X207550000Y-159118750D01*
X207550000Y-159118750D02*
X207550000Y-155218750D01*
X209550000Y-159118750D02*
X209550000Y-155218750D01*
X228600000Y-159118750D02*
X226600000Y-159118750D01*
X226600000Y-159118750D02*
X226600000Y-155218750D01*
X228600000Y-159118750D02*
X228600000Y-155218750D01*
X247650000Y-159118750D02*
X245650000Y-159118750D01*
X245650000Y-159118750D02*
X245650000Y-155218750D01*
X247650000Y-159118750D02*
X247650000Y-155218750D01*
X266700000Y-159118750D02*
X264700000Y-159118750D01*
X264700000Y-159118750D02*
X264700000Y-155218750D01*
X266700000Y-159118750D02*
X266700000Y-155218750D01*
X285750000Y-159118750D02*
X283750000Y-159118750D01*
X283750000Y-159118750D02*
X283750000Y-155218750D01*
X285750000Y-159118750D02*
X285750000Y-155218750D01*
X304800000Y-159118750D02*
X302800000Y-159118750D01*
X302800000Y-159118750D02*
X302800000Y-155218750D01*
X304800000Y-159118750D02*
X304800000Y-155218750D01*
X323850000Y-159118750D02*
X321850000Y-159118750D01*
X321850000Y-159118750D02*
X321850000Y-155218750D01*
X323850000Y-159118750D02*
X323850000Y-155218750D01*
X342900000Y-159118750D02*
X340900000Y-159118750D01*
X340900000Y-159118750D02*
X340900000Y-155218750D01*
X342900000Y-159118750D02*
X342900000Y-155218750D01*
X390525000Y-159118750D02*
X388525000Y-159118750D01*
X388525000Y-159118750D02*
X388525000Y-155218750D01*
X390525000Y-159118750D02*
X390525000Y-155218750D01*
X409575000Y-159118750D02*
X407575000Y-159118750D01*
X407575000Y-159118750D02*
X407575000Y-155218750D01*
X409575000Y-159118750D02*
X409575000Y-155218750D01*
X428625000Y-159118750D02*
X426625000Y-159118750D01*
X426625000Y-159118750D02*
X426625000Y-155218750D01*
X428625000Y-159118750D02*
X428625000Y-155218750D01*
X138112500Y-178168750D02*
X136112500Y-178168750D01*
X136112500Y-178168750D02*
X136112500Y-174268750D01*
X138112500Y-178168750D02*
X138112500Y-174268750D01*
X157162500Y-178168750D02*
X155162500Y-178168750D01*
X155162500Y-178168750D02*
X155162500Y-174268750D01*
X157162500Y-178168750D02*
X157162500Y-174268750D01*
X176212500Y-178168750D02*
X174212500Y-178168750D01*
X174212500Y-178168750D02*
X174212500Y-174268750D01*
X176212500Y-178168750D02*
X176212500Y-174268750D01*
X195262500Y-178168750D02*
X193262500Y-178168750D01*
X193262500Y-178168750D02*
X193262500Y-174268750D01*
X195262500Y-178168750D02*
X195262500Y-174268750D01*
X214312500Y-178168750D02*
X212312500Y-178168750D01*
X212312500Y-178168750D02*
X212312500Y-174268750D01*
X214312500Y-178168750D02*
X214312500Y-174268750D01*
X233362500Y-178168750D02*
X231362500Y-178168750D01*
X231362500Y-178168750D02*
X231362500Y-174268750D01*
X233362500Y-178168750D02*
X233362500Y-174268750D01*
X252412500Y-178168750D02*
X250412500Y-178168750D01*
X250412500Y-178168750D02*
X250412500Y-174268750D01*
X252412500Y-178168750D02*
X252412500Y-174268750D01*
X271462500Y-178168750D02*
X269462500Y-178168750D01*
X269462500Y-178168750D02*
X269462500Y-174268750D01*
X271462500Y-178168750D02*
X271462500Y-174268750D01*
X290512500Y-178168750D02*
X288512500Y-178168750D01*
X288512500Y-178168750D02*
X288512500Y-174268750D01*
X290512500Y-178168750D02*
X290512500Y-174268750D01*
X309562500Y-178168750D02*
X307562500Y-178168750D01*
X307562500Y-178168750D02*
X307562500Y-174268750D01*
X309562500Y-178168750D02*
X309562500Y-174268750D01*
X342900000Y-178168750D02*
X340900000Y-178168750D01*
X340900000Y-178168750D02*
X340900000Y-174268750D01*
X342900000Y-178168750D02*
X342900000Y-174268750D01*
X147637500Y-197218750D02*
X145637500Y-197218750D01*
X145637500Y-197218750D02*
X145637500Y-193318750D01*
X147637500Y-197218750D02*
X147637500Y-193318750D01*
X166687500Y-197218750D02*
X164687500Y-197218750D01*
X164687500Y-197218750D02*
X164687500Y-193318750D01*
X166687500Y-197218750D02*
X166687500Y-193318750D01*
X185737500Y-197218750D02*
X183737500Y-197218750D01*
X183737500Y-197218750D02*
X183737500Y-193318750D01*
X185737500Y-197218750D02*
X185737500Y-193318750D01*
X204787500Y-197218750D02*
X202787500Y-197218750D01*
X202787500Y-197218750D02*
X202787500Y-193318750D01*
X204787500Y-197218750D02*
X204787500Y-193318750D01*
X223837500Y-197218750D02*
X221837500Y-197218750D01*
X221837500Y-197218750D02*
X221837500Y-193318750D01*
X223837500Y-197218750D02*
X223837500Y-193318750D01*
X242887500Y-197218750D02*
X240887500Y-197218750D01*
X240887500Y-197218750D02*
X240887500Y-193318750D01*
X242887500Y-197218750D02*
X242887500Y-193318750D01*
X261937500Y-197218750D02*
X259937500Y-197218750D01*
X259937500Y-197218750D02*
X259937500Y-193318750D01*
X261937500Y-197218750D02*
X261937500Y-193318750D01*
X280987500Y-197218750D02*
X278987500Y-197218750D01*
X278987500Y-197218750D02*
X278987500Y-193318750D01*
X280987500Y-197218750D02*
X280987500Y-193318750D01*
X300037500Y-197218750D02*
X298037500Y-197218750D01*
X298037500Y-197218750D02*
X298037500Y-193318750D01*
X300037500Y-197218750D02*
X300037500Y-193318750D01*
X319087500Y-197218750D02*
X317087500Y-197218750D01*
X317087500Y-197218750D02*
X317087500Y-193318750D01*
X319087500Y-197218750D02*
X319087500Y-193318750D01*
X342900000Y-197218750D02*
X340900000Y-197218750D01*
X340900000Y-197218750D02*
X340900000Y-193318750D01*
X342900000Y-197218750D02*
X342900000Y-193318750D01*
X409575000Y-197218750D02*
X407575000Y-197218750D01*
X407575000Y-197218750D02*
X407575000Y-193318750D01*
X409575000Y-197218750D02*
X409575000Y-193318750D01*
X181181250Y-216562500D02*
X179181250Y-216562500D01*
X179181250Y-216562500D02*
X179181250Y-212662500D01*
X181181250Y-216562500D02*
X181181250Y-212662500D01*
X151812500Y-215768750D02*
X149812500Y-215768750D01*
X149812500Y-215768750D02*
X149812500Y-211868750D01*
X151812500Y-215768750D02*
X151812500Y-211868750D01*
X223837500Y-216268750D02*
X221837500Y-216268750D01*
X221837500Y-216268750D02*
X221837500Y-212368750D01*
X223837500Y-216268750D02*
X223837500Y-212368750D01*
X276225000Y-216268750D02*
X274225000Y-216268750D01*
X274225000Y-216268750D02*
X274225000Y-212368750D01*
X276225000Y-216268750D02*
X276225000Y-212368750D01*
X323707000Y-216118000D02*
X321707000Y-216118000D01*
X321707000Y-216118000D02*
X321707000Y-212218000D01*
X323707000Y-216118000D02*
X323707000Y-212218000D01*
X301831250Y-216245000D02*
X299831250Y-216245000D01*
X299831250Y-216245000D02*
X299831250Y-212345000D01*
X301831250Y-216245000D02*
X301831250Y-212345000D01*
X390525000Y-216268750D02*
X388525000Y-216268750D01*
X388525000Y-216268750D02*
X388525000Y-212368750D01*
X390525000Y-216268750D02*
X390525000Y-212368750D01*
X409575000Y-216268750D02*
X407575000Y-216268750D01*
X407575000Y-216268750D02*
X407575000Y-212368750D01*
X409575000Y-216268750D02*
X409575000Y-212368750D01*
X428625000Y-216268750D02*
X426625000Y-216268750D01*
X426625000Y-216268750D02*
X426625000Y-212368750D01*
X428625000Y-216268750D02*
X428625000Y-212368750D01*
D10*
X417047761Y-192849666D02*
X417095380Y-192992523D01*
X417095380Y-193230619D01*
X417047761Y-193325857D01*
X417000142Y-193373476D01*
X416904904Y-193421095D01*
X416809666Y-193421095D01*
X416714428Y-193373476D01*
X416666809Y-193325857D01*
X416619190Y-193230619D01*
X416571571Y-193040142D01*
X416523952Y-192944904D01*
X416476333Y-192897285D01*
X416381095Y-192849666D01*
X416285857Y-192849666D01*
X416190619Y-192897285D01*
X416143000Y-192944904D01*
X416095380Y-193040142D01*
X416095380Y-193278238D01*
X416143000Y-193421095D01*
X416095380Y-193754428D02*
X417095380Y-193992523D01*
X416381095Y-194183000D01*
X417095380Y-194373476D01*
X416095380Y-194611571D01*
X417095380Y-195516333D02*
X417095380Y-194944904D01*
X417095380Y-195230619D02*
X416095380Y-195230619D01*
X416238238Y-195135380D01*
X416333476Y-195040142D01*
X416381095Y-194944904D01*
X134802380Y-155749702D02*
X133802380Y-155749702D01*
X133802380Y-155987797D01*
X133850000Y-156130654D01*
X133945238Y-156225892D01*
X134040476Y-156273511D01*
X134230952Y-156321130D01*
X134373809Y-156321130D01*
X134564285Y-156273511D01*
X134659523Y-156225892D01*
X134754761Y-156130654D01*
X134802380Y-155987797D01*
X134802380Y-155749702D01*
X134897619Y-156511607D02*
X134897619Y-157273511D01*
X133802380Y-157702083D02*
X133802380Y-157797321D01*
X133850000Y-157892559D01*
X133897619Y-157940178D01*
X133992857Y-157987797D01*
X134183333Y-158035416D01*
X134421428Y-158035416D01*
X134611904Y-157987797D01*
X134707142Y-157940178D01*
X134754761Y-157892559D01*
X134802380Y-157797321D01*
X134802380Y-157702083D01*
X134754761Y-157606845D01*
X134707142Y-157559226D01*
X134611904Y-157511607D01*
X134421428Y-157463988D01*
X134183333Y-157463988D01*
X133992857Y-157511607D01*
X133897619Y-157559226D01*
X133850000Y-157606845D01*
X133802380Y-157702083D01*
X153852380Y-155749702D02*
X152852380Y-155749702D01*
X152852380Y-155987797D01*
X152900000Y-156130654D01*
X152995238Y-156225892D01*
X153090476Y-156273511D01*
X153280952Y-156321130D01*
X153423809Y-156321130D01*
X153614285Y-156273511D01*
X153709523Y-156225892D01*
X153804761Y-156130654D01*
X153852380Y-155987797D01*
X153852380Y-155749702D01*
X153947619Y-156511607D02*
X153947619Y-157273511D01*
X153852380Y-158035416D02*
X153852380Y-157463988D01*
X153852380Y-157749702D02*
X152852380Y-157749702D01*
X152995238Y-157654464D01*
X153090476Y-157559226D01*
X153138095Y-157463988D01*
X172902380Y-155749702D02*
X171902380Y-155749702D01*
X171902380Y-155987797D01*
X171950000Y-156130654D01*
X172045238Y-156225892D01*
X172140476Y-156273511D01*
X172330952Y-156321130D01*
X172473809Y-156321130D01*
X172664285Y-156273511D01*
X172759523Y-156225892D01*
X172854761Y-156130654D01*
X172902380Y-155987797D01*
X172902380Y-155749702D01*
X172997619Y-156511607D02*
X172997619Y-157273511D01*
X171997619Y-157463988D02*
X171950000Y-157511607D01*
X171902380Y-157606845D01*
X171902380Y-157844940D01*
X171950000Y-157940178D01*
X171997619Y-157987797D01*
X172092857Y-158035416D01*
X172188095Y-158035416D01*
X172330952Y-157987797D01*
X172902380Y-157416369D01*
X172902380Y-158035416D01*
X191952380Y-155749702D02*
X190952380Y-155749702D01*
X190952380Y-155987797D01*
X191000000Y-156130654D01*
X191095238Y-156225892D01*
X191190476Y-156273511D01*
X191380952Y-156321130D01*
X191523809Y-156321130D01*
X191714285Y-156273511D01*
X191809523Y-156225892D01*
X191904761Y-156130654D01*
X191952380Y-155987797D01*
X191952380Y-155749702D01*
X192047619Y-156511607D02*
X192047619Y-157273511D01*
X190952380Y-157416369D02*
X190952380Y-158035416D01*
X191333333Y-157702083D01*
X191333333Y-157844940D01*
X191380952Y-157940178D01*
X191428571Y-157987797D01*
X191523809Y-158035416D01*
X191761904Y-158035416D01*
X191857142Y-157987797D01*
X191904761Y-157940178D01*
X191952380Y-157844940D01*
X191952380Y-157559226D01*
X191904761Y-157463988D01*
X191857142Y-157416369D01*
X211002380Y-155749702D02*
X210002380Y-155749702D01*
X210002380Y-155987797D01*
X210050000Y-156130654D01*
X210145238Y-156225892D01*
X210240476Y-156273511D01*
X210430952Y-156321130D01*
X210573809Y-156321130D01*
X210764285Y-156273511D01*
X210859523Y-156225892D01*
X210954761Y-156130654D01*
X211002380Y-155987797D01*
X211002380Y-155749702D01*
X211097619Y-156511607D02*
X211097619Y-157273511D01*
X210335714Y-157940178D02*
X211002380Y-157940178D01*
X209954761Y-157702083D02*
X210669047Y-157463988D01*
X210669047Y-158083035D01*
X230052380Y-155749702D02*
X229052380Y-155749702D01*
X229052380Y-155987797D01*
X229100000Y-156130654D01*
X229195238Y-156225892D01*
X229290476Y-156273511D01*
X229480952Y-156321130D01*
X229623809Y-156321130D01*
X229814285Y-156273511D01*
X229909523Y-156225892D01*
X230004761Y-156130654D01*
X230052380Y-155987797D01*
X230052380Y-155749702D01*
X230147619Y-156511607D02*
X230147619Y-157273511D01*
X229052380Y-157987797D02*
X229052380Y-157511607D01*
X229528571Y-157463988D01*
X229480952Y-157511607D01*
X229433333Y-157606845D01*
X229433333Y-157844940D01*
X229480952Y-157940178D01*
X229528571Y-157987797D01*
X229623809Y-158035416D01*
X229861904Y-158035416D01*
X229957142Y-157987797D01*
X230004761Y-157940178D01*
X230052380Y-157844940D01*
X230052380Y-157606845D01*
X230004761Y-157511607D01*
X229957142Y-157463988D01*
X249102380Y-155749702D02*
X248102380Y-155749702D01*
X248102380Y-155987797D01*
X248150000Y-156130654D01*
X248245238Y-156225892D01*
X248340476Y-156273511D01*
X248530952Y-156321130D01*
X248673809Y-156321130D01*
X248864285Y-156273511D01*
X248959523Y-156225892D01*
X249054761Y-156130654D01*
X249102380Y-155987797D01*
X249102380Y-155749702D01*
X249197619Y-156511607D02*
X249197619Y-157273511D01*
X248102380Y-157940178D02*
X248102380Y-157749702D01*
X248150000Y-157654464D01*
X248197619Y-157606845D01*
X248340476Y-157511607D01*
X248530952Y-157463988D01*
X248911904Y-157463988D01*
X249007142Y-157511607D01*
X249054761Y-157559226D01*
X249102380Y-157654464D01*
X249102380Y-157844940D01*
X249054761Y-157940178D01*
X249007142Y-157987797D01*
X248911904Y-158035416D01*
X248673809Y-158035416D01*
X248578571Y-157987797D01*
X248530952Y-157940178D01*
X248483333Y-157844940D01*
X248483333Y-157654464D01*
X248530952Y-157559226D01*
X248578571Y-157511607D01*
X248673809Y-157463988D01*
X268152380Y-155749702D02*
X267152380Y-155749702D01*
X267152380Y-155987797D01*
X267200000Y-156130654D01*
X267295238Y-156225892D01*
X267390476Y-156273511D01*
X267580952Y-156321130D01*
X267723809Y-156321130D01*
X267914285Y-156273511D01*
X268009523Y-156225892D01*
X268104761Y-156130654D01*
X268152380Y-155987797D01*
X268152380Y-155749702D01*
X268247619Y-156511607D02*
X268247619Y-157273511D01*
X267152380Y-157416369D02*
X267152380Y-158083035D01*
X268152380Y-157654464D01*
X287202380Y-155749702D02*
X286202380Y-155749702D01*
X286202380Y-155987797D01*
X286250000Y-156130654D01*
X286345238Y-156225892D01*
X286440476Y-156273511D01*
X286630952Y-156321130D01*
X286773809Y-156321130D01*
X286964285Y-156273511D01*
X287059523Y-156225892D01*
X287154761Y-156130654D01*
X287202380Y-155987797D01*
X287202380Y-155749702D01*
X287297619Y-156511607D02*
X287297619Y-157273511D01*
X286630952Y-157654464D02*
X286583333Y-157559226D01*
X286535714Y-157511607D01*
X286440476Y-157463988D01*
X286392857Y-157463988D01*
X286297619Y-157511607D01*
X286250000Y-157559226D01*
X286202380Y-157654464D01*
X286202380Y-157844940D01*
X286250000Y-157940178D01*
X286297619Y-157987797D01*
X286392857Y-158035416D01*
X286440476Y-158035416D01*
X286535714Y-157987797D01*
X286583333Y-157940178D01*
X286630952Y-157844940D01*
X286630952Y-157654464D01*
X286678571Y-157559226D01*
X286726190Y-157511607D01*
X286821428Y-157463988D01*
X287011904Y-157463988D01*
X287107142Y-157511607D01*
X287154761Y-157559226D01*
X287202380Y-157654464D01*
X287202380Y-157844940D01*
X287154761Y-157940178D01*
X287107142Y-157987797D01*
X287011904Y-158035416D01*
X286821428Y-158035416D01*
X286726190Y-157987797D01*
X286678571Y-157940178D01*
X286630952Y-157844940D01*
X306252380Y-155749702D02*
X305252380Y-155749702D01*
X305252380Y-155987797D01*
X305300000Y-156130654D01*
X305395238Y-156225892D01*
X305490476Y-156273511D01*
X305680952Y-156321130D01*
X305823809Y-156321130D01*
X306014285Y-156273511D01*
X306109523Y-156225892D01*
X306204761Y-156130654D01*
X306252380Y-155987797D01*
X306252380Y-155749702D01*
X306347619Y-156511607D02*
X306347619Y-157273511D01*
X306252380Y-157559226D02*
X306252380Y-157749702D01*
X306204761Y-157844940D01*
X306157142Y-157892559D01*
X306014285Y-157987797D01*
X305823809Y-158035416D01*
X305442857Y-158035416D01*
X305347619Y-157987797D01*
X305300000Y-157940178D01*
X305252380Y-157844940D01*
X305252380Y-157654464D01*
X305300000Y-157559226D01*
X305347619Y-157511607D01*
X305442857Y-157463988D01*
X305680952Y-157463988D01*
X305776190Y-157511607D01*
X305823809Y-157559226D01*
X305871428Y-157654464D01*
X305871428Y-157844940D01*
X305823809Y-157940178D01*
X305776190Y-157987797D01*
X305680952Y-158035416D01*
X325302380Y-155273511D02*
X324302380Y-155273511D01*
X324302380Y-155511607D01*
X324350000Y-155654464D01*
X324445238Y-155749702D01*
X324540476Y-155797321D01*
X324730952Y-155844940D01*
X324873809Y-155844940D01*
X325064285Y-155797321D01*
X325159523Y-155749702D01*
X325254761Y-155654464D01*
X325302380Y-155511607D01*
X325302380Y-155273511D01*
X325397619Y-156035416D02*
X325397619Y-156797321D01*
X325302380Y-157559226D02*
X325302380Y-156987797D01*
X325302380Y-157273511D02*
X324302380Y-157273511D01*
X324445238Y-157178273D01*
X324540476Y-157083035D01*
X324588095Y-156987797D01*
X324302380Y-158178273D02*
X324302380Y-158273511D01*
X324350000Y-158368750D01*
X324397619Y-158416369D01*
X324492857Y-158463988D01*
X324683333Y-158511607D01*
X324921428Y-158511607D01*
X325111904Y-158463988D01*
X325207142Y-158416369D01*
X325254761Y-158368750D01*
X325302380Y-158273511D01*
X325302380Y-158178273D01*
X325254761Y-158083035D01*
X325207142Y-158035416D01*
X325111904Y-157987797D01*
X324921428Y-157940178D01*
X324683333Y-157940178D01*
X324492857Y-157987797D01*
X324397619Y-158035416D01*
X324350000Y-158083035D01*
X324302380Y-158178273D01*
X344352380Y-155273511D02*
X343352380Y-155273511D01*
X343352380Y-155511607D01*
X343400000Y-155654464D01*
X343495238Y-155749702D01*
X343590476Y-155797321D01*
X343780952Y-155844940D01*
X343923809Y-155844940D01*
X344114285Y-155797321D01*
X344209523Y-155749702D01*
X344304761Y-155654464D01*
X344352380Y-155511607D01*
X344352380Y-155273511D01*
X344447619Y-156035416D02*
X344447619Y-156797321D01*
X344352380Y-157559226D02*
X344352380Y-156987797D01*
X344352380Y-157273511D02*
X343352380Y-157273511D01*
X343495238Y-157178273D01*
X343590476Y-157083035D01*
X343638095Y-156987797D01*
X344352380Y-158511607D02*
X344352380Y-157940178D01*
X344352380Y-158225892D02*
X343352380Y-158225892D01*
X343495238Y-158130654D01*
X343590476Y-158035416D01*
X343638095Y-157940178D01*
X391977380Y-155273511D02*
X390977380Y-155273511D01*
X390977380Y-155511607D01*
X391025000Y-155654464D01*
X391120238Y-155749702D01*
X391215476Y-155797321D01*
X391405952Y-155844940D01*
X391548809Y-155844940D01*
X391739285Y-155797321D01*
X391834523Y-155749702D01*
X391929761Y-155654464D01*
X391977380Y-155511607D01*
X391977380Y-155273511D01*
X392072619Y-156035416D02*
X392072619Y-156797321D01*
X391977380Y-157559226D02*
X391977380Y-156987797D01*
X391977380Y-157273511D02*
X390977380Y-157273511D01*
X391120238Y-157178273D01*
X391215476Y-157083035D01*
X391263095Y-156987797D01*
X391072619Y-157940178D02*
X391025000Y-157987797D01*
X390977380Y-158083035D01*
X390977380Y-158321130D01*
X391025000Y-158416369D01*
X391072619Y-158463988D01*
X391167857Y-158511607D01*
X391263095Y-158511607D01*
X391405952Y-158463988D01*
X391977380Y-157892559D01*
X391977380Y-158511607D01*
X411027380Y-155273511D02*
X410027380Y-155273511D01*
X410027380Y-155511607D01*
X410075000Y-155654464D01*
X410170238Y-155749702D01*
X410265476Y-155797321D01*
X410455952Y-155844940D01*
X410598809Y-155844940D01*
X410789285Y-155797321D01*
X410884523Y-155749702D01*
X410979761Y-155654464D01*
X411027380Y-155511607D01*
X411027380Y-155273511D01*
X411122619Y-156035416D02*
X411122619Y-156797321D01*
X411027380Y-157559226D02*
X411027380Y-156987797D01*
X411027380Y-157273511D02*
X410027380Y-157273511D01*
X410170238Y-157178273D01*
X410265476Y-157083035D01*
X410313095Y-156987797D01*
X410027380Y-157892559D02*
X410027380Y-158511607D01*
X410408333Y-158178273D01*
X410408333Y-158321130D01*
X410455952Y-158416369D01*
X410503571Y-158463988D01*
X410598809Y-158511607D01*
X410836904Y-158511607D01*
X410932142Y-158463988D01*
X410979761Y-158416369D01*
X411027380Y-158321130D01*
X411027380Y-158035416D01*
X410979761Y-157940178D01*
X410932142Y-157892559D01*
X430077380Y-155273511D02*
X429077380Y-155273511D01*
X429077380Y-155511607D01*
X429125000Y-155654464D01*
X429220238Y-155749702D01*
X429315476Y-155797321D01*
X429505952Y-155844940D01*
X429648809Y-155844940D01*
X429839285Y-155797321D01*
X429934523Y-155749702D01*
X430029761Y-155654464D01*
X430077380Y-155511607D01*
X430077380Y-155273511D01*
X430172619Y-156035416D02*
X430172619Y-156797321D01*
X430077380Y-157559226D02*
X430077380Y-156987797D01*
X430077380Y-157273511D02*
X429077380Y-157273511D01*
X429220238Y-157178273D01*
X429315476Y-157083035D01*
X429363095Y-156987797D01*
X429410714Y-158416369D02*
X430077380Y-158416369D01*
X429029761Y-158178273D02*
X429744047Y-157940178D01*
X429744047Y-158559226D01*
X139564880Y-174323511D02*
X138564880Y-174323511D01*
X138564880Y-174561607D01*
X138612500Y-174704464D01*
X138707738Y-174799702D01*
X138802976Y-174847321D01*
X138993452Y-174894940D01*
X139136309Y-174894940D01*
X139326785Y-174847321D01*
X139422023Y-174799702D01*
X139517261Y-174704464D01*
X139564880Y-174561607D01*
X139564880Y-174323511D01*
X139660119Y-175085416D02*
X139660119Y-175847321D01*
X139564880Y-176609226D02*
X139564880Y-176037797D01*
X139564880Y-176323511D02*
X138564880Y-176323511D01*
X138707738Y-176228273D01*
X138802976Y-176133035D01*
X138850595Y-176037797D01*
X138564880Y-177513988D02*
X138564880Y-177037797D01*
X139041071Y-176990178D01*
X138993452Y-177037797D01*
X138945833Y-177133035D01*
X138945833Y-177371130D01*
X138993452Y-177466369D01*
X139041071Y-177513988D01*
X139136309Y-177561607D01*
X139374404Y-177561607D01*
X139469642Y-177513988D01*
X139517261Y-177466369D01*
X139564880Y-177371130D01*
X139564880Y-177133035D01*
X139517261Y-177037797D01*
X139469642Y-176990178D01*
X158614880Y-174323511D02*
X157614880Y-174323511D01*
X157614880Y-174561607D01*
X157662500Y-174704464D01*
X157757738Y-174799702D01*
X157852976Y-174847321D01*
X158043452Y-174894940D01*
X158186309Y-174894940D01*
X158376785Y-174847321D01*
X158472023Y-174799702D01*
X158567261Y-174704464D01*
X158614880Y-174561607D01*
X158614880Y-174323511D01*
X158710119Y-175085416D02*
X158710119Y-175847321D01*
X158614880Y-176609226D02*
X158614880Y-176037797D01*
X158614880Y-176323511D02*
X157614880Y-176323511D01*
X157757738Y-176228273D01*
X157852976Y-176133035D01*
X157900595Y-176037797D01*
X157614880Y-177466369D02*
X157614880Y-177275892D01*
X157662500Y-177180654D01*
X157710119Y-177133035D01*
X157852976Y-177037797D01*
X158043452Y-176990178D01*
X158424404Y-176990178D01*
X158519642Y-177037797D01*
X158567261Y-177085416D01*
X158614880Y-177180654D01*
X158614880Y-177371130D01*
X158567261Y-177466369D01*
X158519642Y-177513988D01*
X158424404Y-177561607D01*
X158186309Y-177561607D01*
X158091071Y-177513988D01*
X158043452Y-177466369D01*
X157995833Y-177371130D01*
X157995833Y-177180654D01*
X158043452Y-177085416D01*
X158091071Y-177037797D01*
X158186309Y-176990178D01*
X177664880Y-174323511D02*
X176664880Y-174323511D01*
X176664880Y-174561607D01*
X176712500Y-174704464D01*
X176807738Y-174799702D01*
X176902976Y-174847321D01*
X177093452Y-174894940D01*
X177236309Y-174894940D01*
X177426785Y-174847321D01*
X177522023Y-174799702D01*
X177617261Y-174704464D01*
X177664880Y-174561607D01*
X177664880Y-174323511D01*
X177760119Y-175085416D02*
X177760119Y-175847321D01*
X177664880Y-176609226D02*
X177664880Y-176037797D01*
X177664880Y-176323511D02*
X176664880Y-176323511D01*
X176807738Y-176228273D01*
X176902976Y-176133035D01*
X176950595Y-176037797D01*
X176664880Y-176942559D02*
X176664880Y-177609226D01*
X177664880Y-177180654D01*
X196714880Y-174323511D02*
X195714880Y-174323511D01*
X195714880Y-174561607D01*
X195762500Y-174704464D01*
X195857738Y-174799702D01*
X195952976Y-174847321D01*
X196143452Y-174894940D01*
X196286309Y-174894940D01*
X196476785Y-174847321D01*
X196572023Y-174799702D01*
X196667261Y-174704464D01*
X196714880Y-174561607D01*
X196714880Y-174323511D01*
X196810119Y-175085416D02*
X196810119Y-175847321D01*
X196714880Y-176609226D02*
X196714880Y-176037797D01*
X196714880Y-176323511D02*
X195714880Y-176323511D01*
X195857738Y-176228273D01*
X195952976Y-176133035D01*
X196000595Y-176037797D01*
X196143452Y-177180654D02*
X196095833Y-177085416D01*
X196048214Y-177037797D01*
X195952976Y-176990178D01*
X195905357Y-176990178D01*
X195810119Y-177037797D01*
X195762500Y-177085416D01*
X195714880Y-177180654D01*
X195714880Y-177371130D01*
X195762500Y-177466369D01*
X195810119Y-177513988D01*
X195905357Y-177561607D01*
X195952976Y-177561607D01*
X196048214Y-177513988D01*
X196095833Y-177466369D01*
X196143452Y-177371130D01*
X196143452Y-177180654D01*
X196191071Y-177085416D01*
X196238690Y-177037797D01*
X196333928Y-176990178D01*
X196524404Y-176990178D01*
X196619642Y-177037797D01*
X196667261Y-177085416D01*
X196714880Y-177180654D01*
X196714880Y-177371130D01*
X196667261Y-177466369D01*
X196619642Y-177513988D01*
X196524404Y-177561607D01*
X196333928Y-177561607D01*
X196238690Y-177513988D01*
X196191071Y-177466369D01*
X196143452Y-177371130D01*
X215764880Y-174323511D02*
X214764880Y-174323511D01*
X214764880Y-174561607D01*
X214812500Y-174704464D01*
X214907738Y-174799702D01*
X215002976Y-174847321D01*
X215193452Y-174894940D01*
X215336309Y-174894940D01*
X215526785Y-174847321D01*
X215622023Y-174799702D01*
X215717261Y-174704464D01*
X215764880Y-174561607D01*
X215764880Y-174323511D01*
X215860119Y-175085416D02*
X215860119Y-175847321D01*
X215764880Y-176609226D02*
X215764880Y-176037797D01*
X215764880Y-176323511D02*
X214764880Y-176323511D01*
X214907738Y-176228273D01*
X215002976Y-176133035D01*
X215050595Y-176037797D01*
X215764880Y-177085416D02*
X215764880Y-177275892D01*
X215717261Y-177371130D01*
X215669642Y-177418750D01*
X215526785Y-177513988D01*
X215336309Y-177561607D01*
X214955357Y-177561607D01*
X214860119Y-177513988D01*
X214812500Y-177466369D01*
X214764880Y-177371130D01*
X214764880Y-177180654D01*
X214812500Y-177085416D01*
X214860119Y-177037797D01*
X214955357Y-176990178D01*
X215193452Y-176990178D01*
X215288690Y-177037797D01*
X215336309Y-177085416D01*
X215383928Y-177180654D01*
X215383928Y-177371130D01*
X215336309Y-177466369D01*
X215288690Y-177513988D01*
X215193452Y-177561607D01*
X234814880Y-174323511D02*
X233814880Y-174323511D01*
X233814880Y-174561607D01*
X233862500Y-174704464D01*
X233957738Y-174799702D01*
X234052976Y-174847321D01*
X234243452Y-174894940D01*
X234386309Y-174894940D01*
X234576785Y-174847321D01*
X234672023Y-174799702D01*
X234767261Y-174704464D01*
X234814880Y-174561607D01*
X234814880Y-174323511D01*
X234910119Y-175085416D02*
X234910119Y-175847321D01*
X233910119Y-176037797D02*
X233862500Y-176085416D01*
X233814880Y-176180654D01*
X233814880Y-176418750D01*
X233862500Y-176513988D01*
X233910119Y-176561607D01*
X234005357Y-176609226D01*
X234100595Y-176609226D01*
X234243452Y-176561607D01*
X234814880Y-175990178D01*
X234814880Y-176609226D01*
X233814880Y-177228273D02*
X233814880Y-177323511D01*
X233862500Y-177418750D01*
X233910119Y-177466369D01*
X234005357Y-177513988D01*
X234195833Y-177561607D01*
X234433928Y-177561607D01*
X234624404Y-177513988D01*
X234719642Y-177466369D01*
X234767261Y-177418750D01*
X234814880Y-177323511D01*
X234814880Y-177228273D01*
X234767261Y-177133035D01*
X234719642Y-177085416D01*
X234624404Y-177037797D01*
X234433928Y-176990178D01*
X234195833Y-176990178D01*
X234005357Y-177037797D01*
X233910119Y-177085416D01*
X233862500Y-177133035D01*
X233814880Y-177228273D01*
X253864880Y-174323511D02*
X252864880Y-174323511D01*
X252864880Y-174561607D01*
X252912500Y-174704464D01*
X253007738Y-174799702D01*
X253102976Y-174847321D01*
X253293452Y-174894940D01*
X253436309Y-174894940D01*
X253626785Y-174847321D01*
X253722023Y-174799702D01*
X253817261Y-174704464D01*
X253864880Y-174561607D01*
X253864880Y-174323511D01*
X253960119Y-175085416D02*
X253960119Y-175847321D01*
X252960119Y-176037797D02*
X252912500Y-176085416D01*
X252864880Y-176180654D01*
X252864880Y-176418750D01*
X252912500Y-176513988D01*
X252960119Y-176561607D01*
X253055357Y-176609226D01*
X253150595Y-176609226D01*
X253293452Y-176561607D01*
X253864880Y-175990178D01*
X253864880Y-176609226D01*
X253864880Y-177561607D02*
X253864880Y-176990178D01*
X253864880Y-177275892D02*
X252864880Y-177275892D01*
X253007738Y-177180654D01*
X253102976Y-177085416D01*
X253150595Y-176990178D01*
X272914880Y-174323511D02*
X271914880Y-174323511D01*
X271914880Y-174561607D01*
X271962500Y-174704464D01*
X272057738Y-174799702D01*
X272152976Y-174847321D01*
X272343452Y-174894940D01*
X272486309Y-174894940D01*
X272676785Y-174847321D01*
X272772023Y-174799702D01*
X272867261Y-174704464D01*
X272914880Y-174561607D01*
X272914880Y-174323511D01*
X273010119Y-175085416D02*
X273010119Y-175847321D01*
X272010119Y-176037797D02*
X271962500Y-176085416D01*
X271914880Y-176180654D01*
X271914880Y-176418750D01*
X271962500Y-176513988D01*
X272010119Y-176561607D01*
X272105357Y-176609226D01*
X272200595Y-176609226D01*
X272343452Y-176561607D01*
X272914880Y-175990178D01*
X272914880Y-176609226D01*
X272010119Y-176990178D02*
X271962500Y-177037797D01*
X271914880Y-177133035D01*
X271914880Y-177371130D01*
X271962500Y-177466369D01*
X272010119Y-177513988D01*
X272105357Y-177561607D01*
X272200595Y-177561607D01*
X272343452Y-177513988D01*
X272914880Y-176942559D01*
X272914880Y-177561607D01*
X291964880Y-174323511D02*
X290964880Y-174323511D01*
X290964880Y-174561607D01*
X291012500Y-174704464D01*
X291107738Y-174799702D01*
X291202976Y-174847321D01*
X291393452Y-174894940D01*
X291536309Y-174894940D01*
X291726785Y-174847321D01*
X291822023Y-174799702D01*
X291917261Y-174704464D01*
X291964880Y-174561607D01*
X291964880Y-174323511D01*
X292060119Y-175085416D02*
X292060119Y-175847321D01*
X291060119Y-176037797D02*
X291012500Y-176085416D01*
X290964880Y-176180654D01*
X290964880Y-176418750D01*
X291012500Y-176513988D01*
X291060119Y-176561607D01*
X291155357Y-176609226D01*
X291250595Y-176609226D01*
X291393452Y-176561607D01*
X291964880Y-175990178D01*
X291964880Y-176609226D01*
X290964880Y-176942559D02*
X290964880Y-177561607D01*
X291345833Y-177228273D01*
X291345833Y-177371130D01*
X291393452Y-177466369D01*
X291441071Y-177513988D01*
X291536309Y-177561607D01*
X291774404Y-177561607D01*
X291869642Y-177513988D01*
X291917261Y-177466369D01*
X291964880Y-177371130D01*
X291964880Y-177085416D01*
X291917261Y-176990178D01*
X291869642Y-176942559D01*
X311014880Y-174323511D02*
X310014880Y-174323511D01*
X310014880Y-174561607D01*
X310062500Y-174704464D01*
X310157738Y-174799702D01*
X310252976Y-174847321D01*
X310443452Y-174894940D01*
X310586309Y-174894940D01*
X310776785Y-174847321D01*
X310872023Y-174799702D01*
X310967261Y-174704464D01*
X311014880Y-174561607D01*
X311014880Y-174323511D01*
X311110119Y-175085416D02*
X311110119Y-175847321D01*
X310110119Y-176037797D02*
X310062500Y-176085416D01*
X310014880Y-176180654D01*
X310014880Y-176418750D01*
X310062500Y-176513988D01*
X310110119Y-176561607D01*
X310205357Y-176609226D01*
X310300595Y-176609226D01*
X310443452Y-176561607D01*
X311014880Y-175990178D01*
X311014880Y-176609226D01*
X310348214Y-177466369D02*
X311014880Y-177466369D01*
X309967261Y-177228273D02*
X310681547Y-176990178D01*
X310681547Y-177609226D01*
X344352380Y-174323511D02*
X343352380Y-174323511D01*
X343352380Y-174561607D01*
X343400000Y-174704464D01*
X343495238Y-174799702D01*
X343590476Y-174847321D01*
X343780952Y-174894940D01*
X343923809Y-174894940D01*
X344114285Y-174847321D01*
X344209523Y-174799702D01*
X344304761Y-174704464D01*
X344352380Y-174561607D01*
X344352380Y-174323511D01*
X344447619Y-175085416D02*
X344447619Y-175847321D01*
X343447619Y-176037797D02*
X343400000Y-176085416D01*
X343352380Y-176180654D01*
X343352380Y-176418750D01*
X343400000Y-176513988D01*
X343447619Y-176561607D01*
X343542857Y-176609226D01*
X343638095Y-176609226D01*
X343780952Y-176561607D01*
X344352380Y-175990178D01*
X344352380Y-176609226D01*
X343352380Y-177513988D02*
X343352380Y-177037797D01*
X343828571Y-176990178D01*
X343780952Y-177037797D01*
X343733333Y-177133035D01*
X343733333Y-177371130D01*
X343780952Y-177466369D01*
X343828571Y-177513988D01*
X343923809Y-177561607D01*
X344161904Y-177561607D01*
X344257142Y-177513988D01*
X344304761Y-177466369D01*
X344352380Y-177371130D01*
X344352380Y-177133035D01*
X344304761Y-177037797D01*
X344257142Y-176990178D01*
X149089880Y-193373511D02*
X148089880Y-193373511D01*
X148089880Y-193611607D01*
X148137500Y-193754464D01*
X148232738Y-193849702D01*
X148327976Y-193897321D01*
X148518452Y-193944940D01*
X148661309Y-193944940D01*
X148851785Y-193897321D01*
X148947023Y-193849702D01*
X149042261Y-193754464D01*
X149089880Y-193611607D01*
X149089880Y-193373511D01*
X149185119Y-194135416D02*
X149185119Y-194897321D01*
X148185119Y-195087797D02*
X148137500Y-195135416D01*
X148089880Y-195230654D01*
X148089880Y-195468750D01*
X148137500Y-195563988D01*
X148185119Y-195611607D01*
X148280357Y-195659226D01*
X148375595Y-195659226D01*
X148518452Y-195611607D01*
X149089880Y-195040178D01*
X149089880Y-195659226D01*
X148089880Y-196516369D02*
X148089880Y-196325892D01*
X148137500Y-196230654D01*
X148185119Y-196183035D01*
X148327976Y-196087797D01*
X148518452Y-196040178D01*
X148899404Y-196040178D01*
X148994642Y-196087797D01*
X149042261Y-196135416D01*
X149089880Y-196230654D01*
X149089880Y-196421130D01*
X149042261Y-196516369D01*
X148994642Y-196563988D01*
X148899404Y-196611607D01*
X148661309Y-196611607D01*
X148566071Y-196563988D01*
X148518452Y-196516369D01*
X148470833Y-196421130D01*
X148470833Y-196230654D01*
X148518452Y-196135416D01*
X148566071Y-196087797D01*
X148661309Y-196040178D01*
X168139880Y-193373511D02*
X167139880Y-193373511D01*
X167139880Y-193611607D01*
X167187500Y-193754464D01*
X167282738Y-193849702D01*
X167377976Y-193897321D01*
X167568452Y-193944940D01*
X167711309Y-193944940D01*
X167901785Y-193897321D01*
X167997023Y-193849702D01*
X168092261Y-193754464D01*
X168139880Y-193611607D01*
X168139880Y-193373511D01*
X168235119Y-194135416D02*
X168235119Y-194897321D01*
X167235119Y-195087797D02*
X167187500Y-195135416D01*
X167139880Y-195230654D01*
X167139880Y-195468750D01*
X167187500Y-195563988D01*
X167235119Y-195611607D01*
X167330357Y-195659226D01*
X167425595Y-195659226D01*
X167568452Y-195611607D01*
X168139880Y-195040178D01*
X168139880Y-195659226D01*
X167139880Y-195992559D02*
X167139880Y-196659226D01*
X168139880Y-196230654D01*
X187189880Y-193373511D02*
X186189880Y-193373511D01*
X186189880Y-193611607D01*
X186237500Y-193754464D01*
X186332738Y-193849702D01*
X186427976Y-193897321D01*
X186618452Y-193944940D01*
X186761309Y-193944940D01*
X186951785Y-193897321D01*
X187047023Y-193849702D01*
X187142261Y-193754464D01*
X187189880Y-193611607D01*
X187189880Y-193373511D01*
X187285119Y-194135416D02*
X187285119Y-194897321D01*
X186285119Y-195087797D02*
X186237500Y-195135416D01*
X186189880Y-195230654D01*
X186189880Y-195468750D01*
X186237500Y-195563988D01*
X186285119Y-195611607D01*
X186380357Y-195659226D01*
X186475595Y-195659226D01*
X186618452Y-195611607D01*
X187189880Y-195040178D01*
X187189880Y-195659226D01*
X186618452Y-196230654D02*
X186570833Y-196135416D01*
X186523214Y-196087797D01*
X186427976Y-196040178D01*
X186380357Y-196040178D01*
X186285119Y-196087797D01*
X186237500Y-196135416D01*
X186189880Y-196230654D01*
X186189880Y-196421130D01*
X186237500Y-196516369D01*
X186285119Y-196563988D01*
X186380357Y-196611607D01*
X186427976Y-196611607D01*
X186523214Y-196563988D01*
X186570833Y-196516369D01*
X186618452Y-196421130D01*
X186618452Y-196230654D01*
X186666071Y-196135416D01*
X186713690Y-196087797D01*
X186808928Y-196040178D01*
X186999404Y-196040178D01*
X187094642Y-196087797D01*
X187142261Y-196135416D01*
X187189880Y-196230654D01*
X187189880Y-196421130D01*
X187142261Y-196516369D01*
X187094642Y-196563988D01*
X186999404Y-196611607D01*
X186808928Y-196611607D01*
X186713690Y-196563988D01*
X186666071Y-196516369D01*
X186618452Y-196421130D01*
X206239880Y-193373511D02*
X205239880Y-193373511D01*
X205239880Y-193611607D01*
X205287500Y-193754464D01*
X205382738Y-193849702D01*
X205477976Y-193897321D01*
X205668452Y-193944940D01*
X205811309Y-193944940D01*
X206001785Y-193897321D01*
X206097023Y-193849702D01*
X206192261Y-193754464D01*
X206239880Y-193611607D01*
X206239880Y-193373511D01*
X206335119Y-194135416D02*
X206335119Y-194897321D01*
X205335119Y-195087797D02*
X205287500Y-195135416D01*
X205239880Y-195230654D01*
X205239880Y-195468750D01*
X205287500Y-195563988D01*
X205335119Y-195611607D01*
X205430357Y-195659226D01*
X205525595Y-195659226D01*
X205668452Y-195611607D01*
X206239880Y-195040178D01*
X206239880Y-195659226D01*
X206239880Y-196135416D02*
X206239880Y-196325892D01*
X206192261Y-196421130D01*
X206144642Y-196468750D01*
X206001785Y-196563988D01*
X205811309Y-196611607D01*
X205430357Y-196611607D01*
X205335119Y-196563988D01*
X205287500Y-196516369D01*
X205239880Y-196421130D01*
X205239880Y-196230654D01*
X205287500Y-196135416D01*
X205335119Y-196087797D01*
X205430357Y-196040178D01*
X205668452Y-196040178D01*
X205763690Y-196087797D01*
X205811309Y-196135416D01*
X205858928Y-196230654D01*
X205858928Y-196421130D01*
X205811309Y-196516369D01*
X205763690Y-196563988D01*
X205668452Y-196611607D01*
X225289880Y-193373511D02*
X224289880Y-193373511D01*
X224289880Y-193611607D01*
X224337500Y-193754464D01*
X224432738Y-193849702D01*
X224527976Y-193897321D01*
X224718452Y-193944940D01*
X224861309Y-193944940D01*
X225051785Y-193897321D01*
X225147023Y-193849702D01*
X225242261Y-193754464D01*
X225289880Y-193611607D01*
X225289880Y-193373511D01*
X225385119Y-194135416D02*
X225385119Y-194897321D01*
X224289880Y-195040178D02*
X224289880Y-195659226D01*
X224670833Y-195325892D01*
X224670833Y-195468750D01*
X224718452Y-195563988D01*
X224766071Y-195611607D01*
X224861309Y-195659226D01*
X225099404Y-195659226D01*
X225194642Y-195611607D01*
X225242261Y-195563988D01*
X225289880Y-195468750D01*
X225289880Y-195183035D01*
X225242261Y-195087797D01*
X225194642Y-195040178D01*
X224289880Y-196278273D02*
X224289880Y-196373511D01*
X224337500Y-196468750D01*
X224385119Y-196516369D01*
X224480357Y-196563988D01*
X224670833Y-196611607D01*
X224908928Y-196611607D01*
X225099404Y-196563988D01*
X225194642Y-196516369D01*
X225242261Y-196468750D01*
X225289880Y-196373511D01*
X225289880Y-196278273D01*
X225242261Y-196183035D01*
X225194642Y-196135416D01*
X225099404Y-196087797D01*
X224908928Y-196040178D01*
X224670833Y-196040178D01*
X224480357Y-196087797D01*
X224385119Y-196135416D01*
X224337500Y-196183035D01*
X224289880Y-196278273D01*
X244339880Y-193373511D02*
X243339880Y-193373511D01*
X243339880Y-193611607D01*
X243387500Y-193754464D01*
X243482738Y-193849702D01*
X243577976Y-193897321D01*
X243768452Y-193944940D01*
X243911309Y-193944940D01*
X244101785Y-193897321D01*
X244197023Y-193849702D01*
X244292261Y-193754464D01*
X244339880Y-193611607D01*
X244339880Y-193373511D01*
X244435119Y-194135416D02*
X244435119Y-194897321D01*
X243339880Y-195040178D02*
X243339880Y-195659226D01*
X243720833Y-195325892D01*
X243720833Y-195468750D01*
X243768452Y-195563988D01*
X243816071Y-195611607D01*
X243911309Y-195659226D01*
X244149404Y-195659226D01*
X244244642Y-195611607D01*
X244292261Y-195563988D01*
X244339880Y-195468750D01*
X244339880Y-195183035D01*
X244292261Y-195087797D01*
X244244642Y-195040178D01*
X244339880Y-196611607D02*
X244339880Y-196040178D01*
X244339880Y-196325892D02*
X243339880Y-196325892D01*
X243482738Y-196230654D01*
X243577976Y-196135416D01*
X243625595Y-196040178D01*
X263389880Y-193373511D02*
X262389880Y-193373511D01*
X262389880Y-193611607D01*
X262437500Y-193754464D01*
X262532738Y-193849702D01*
X262627976Y-193897321D01*
X262818452Y-193944940D01*
X262961309Y-193944940D01*
X263151785Y-193897321D01*
X263247023Y-193849702D01*
X263342261Y-193754464D01*
X263389880Y-193611607D01*
X263389880Y-193373511D01*
X263485119Y-194135416D02*
X263485119Y-194897321D01*
X262389880Y-195040178D02*
X262389880Y-195659226D01*
X262770833Y-195325892D01*
X262770833Y-195468750D01*
X262818452Y-195563988D01*
X262866071Y-195611607D01*
X262961309Y-195659226D01*
X263199404Y-195659226D01*
X263294642Y-195611607D01*
X263342261Y-195563988D01*
X263389880Y-195468750D01*
X263389880Y-195183035D01*
X263342261Y-195087797D01*
X263294642Y-195040178D01*
X262485119Y-196040178D02*
X262437500Y-196087797D01*
X262389880Y-196183035D01*
X262389880Y-196421130D01*
X262437500Y-196516369D01*
X262485119Y-196563988D01*
X262580357Y-196611607D01*
X262675595Y-196611607D01*
X262818452Y-196563988D01*
X263389880Y-195992559D01*
X263389880Y-196611607D01*
X282439880Y-193373511D02*
X281439880Y-193373511D01*
X281439880Y-193611607D01*
X281487500Y-193754464D01*
X281582738Y-193849702D01*
X281677976Y-193897321D01*
X281868452Y-193944940D01*
X282011309Y-193944940D01*
X282201785Y-193897321D01*
X282297023Y-193849702D01*
X282392261Y-193754464D01*
X282439880Y-193611607D01*
X282439880Y-193373511D01*
X282535119Y-194135416D02*
X282535119Y-194897321D01*
X281439880Y-195040178D02*
X281439880Y-195659226D01*
X281820833Y-195325892D01*
X281820833Y-195468750D01*
X281868452Y-195563988D01*
X281916071Y-195611607D01*
X282011309Y-195659226D01*
X282249404Y-195659226D01*
X282344642Y-195611607D01*
X282392261Y-195563988D01*
X282439880Y-195468750D01*
X282439880Y-195183035D01*
X282392261Y-195087797D01*
X282344642Y-195040178D01*
X281439880Y-195992559D02*
X281439880Y-196611607D01*
X281820833Y-196278273D01*
X281820833Y-196421130D01*
X281868452Y-196516369D01*
X281916071Y-196563988D01*
X282011309Y-196611607D01*
X282249404Y-196611607D01*
X282344642Y-196563988D01*
X282392261Y-196516369D01*
X282439880Y-196421130D01*
X282439880Y-196135416D01*
X282392261Y-196040178D01*
X282344642Y-195992559D01*
X301489880Y-193373511D02*
X300489880Y-193373511D01*
X300489880Y-193611607D01*
X300537500Y-193754464D01*
X300632738Y-193849702D01*
X300727976Y-193897321D01*
X300918452Y-193944940D01*
X301061309Y-193944940D01*
X301251785Y-193897321D01*
X301347023Y-193849702D01*
X301442261Y-193754464D01*
X301489880Y-193611607D01*
X301489880Y-193373511D01*
X301585119Y-194135416D02*
X301585119Y-194897321D01*
X300489880Y-195040178D02*
X300489880Y-195659226D01*
X300870833Y-195325892D01*
X300870833Y-195468750D01*
X300918452Y-195563988D01*
X300966071Y-195611607D01*
X301061309Y-195659226D01*
X301299404Y-195659226D01*
X301394642Y-195611607D01*
X301442261Y-195563988D01*
X301489880Y-195468750D01*
X301489880Y-195183035D01*
X301442261Y-195087797D01*
X301394642Y-195040178D01*
X300823214Y-196516369D02*
X301489880Y-196516369D01*
X300442261Y-196278273D02*
X301156547Y-196040178D01*
X301156547Y-196659226D01*
X320539880Y-193373511D02*
X319539880Y-193373511D01*
X319539880Y-193611607D01*
X319587500Y-193754464D01*
X319682738Y-193849702D01*
X319777976Y-193897321D01*
X319968452Y-193944940D01*
X320111309Y-193944940D01*
X320301785Y-193897321D01*
X320397023Y-193849702D01*
X320492261Y-193754464D01*
X320539880Y-193611607D01*
X320539880Y-193373511D01*
X320635119Y-194135416D02*
X320635119Y-194897321D01*
X319539880Y-195040178D02*
X319539880Y-195659226D01*
X319920833Y-195325892D01*
X319920833Y-195468750D01*
X319968452Y-195563988D01*
X320016071Y-195611607D01*
X320111309Y-195659226D01*
X320349404Y-195659226D01*
X320444642Y-195611607D01*
X320492261Y-195563988D01*
X320539880Y-195468750D01*
X320539880Y-195183035D01*
X320492261Y-195087797D01*
X320444642Y-195040178D01*
X319539880Y-196563988D02*
X319539880Y-196087797D01*
X320016071Y-196040178D01*
X319968452Y-196087797D01*
X319920833Y-196183035D01*
X319920833Y-196421130D01*
X319968452Y-196516369D01*
X320016071Y-196563988D01*
X320111309Y-196611607D01*
X320349404Y-196611607D01*
X320444642Y-196563988D01*
X320492261Y-196516369D01*
X320539880Y-196421130D01*
X320539880Y-196183035D01*
X320492261Y-196087797D01*
X320444642Y-196040178D01*
X344352380Y-193373511D02*
X343352380Y-193373511D01*
X343352380Y-193611607D01*
X343400000Y-193754464D01*
X343495238Y-193849702D01*
X343590476Y-193897321D01*
X343780952Y-193944940D01*
X343923809Y-193944940D01*
X344114285Y-193897321D01*
X344209523Y-193849702D01*
X344304761Y-193754464D01*
X344352380Y-193611607D01*
X344352380Y-193373511D01*
X344447619Y-194135416D02*
X344447619Y-194897321D01*
X343352380Y-195040178D02*
X343352380Y-195659226D01*
X343733333Y-195325892D01*
X343733333Y-195468750D01*
X343780952Y-195563988D01*
X343828571Y-195611607D01*
X343923809Y-195659226D01*
X344161904Y-195659226D01*
X344257142Y-195611607D01*
X344304761Y-195563988D01*
X344352380Y-195468750D01*
X344352380Y-195183035D01*
X344304761Y-195087797D01*
X344257142Y-195040178D01*
X343352380Y-196516369D02*
X343352380Y-196325892D01*
X343400000Y-196230654D01*
X343447619Y-196183035D01*
X343590476Y-196087797D01*
X343780952Y-196040178D01*
X344161904Y-196040178D01*
X344257142Y-196087797D01*
X344304761Y-196135416D01*
X344352380Y-196230654D01*
X344352380Y-196421130D01*
X344304761Y-196516369D01*
X344257142Y-196563988D01*
X344161904Y-196611607D01*
X343923809Y-196611607D01*
X343828571Y-196563988D01*
X343780952Y-196516369D01*
X343733333Y-196421130D01*
X343733333Y-196230654D01*
X343780952Y-196135416D01*
X343828571Y-196087797D01*
X343923809Y-196040178D01*
X411027380Y-193373511D02*
X410027380Y-193373511D01*
X410027380Y-193611607D01*
X410075000Y-193754464D01*
X410170238Y-193849702D01*
X410265476Y-193897321D01*
X410455952Y-193944940D01*
X410598809Y-193944940D01*
X410789285Y-193897321D01*
X410884523Y-193849702D01*
X410979761Y-193754464D01*
X411027380Y-193611607D01*
X411027380Y-193373511D01*
X411122619Y-194135416D02*
X411122619Y-194897321D01*
X410027380Y-195040178D02*
X410027380Y-195659226D01*
X410408333Y-195325892D01*
X410408333Y-195468750D01*
X410455952Y-195563988D01*
X410503571Y-195611607D01*
X410598809Y-195659226D01*
X410836904Y-195659226D01*
X410932142Y-195611607D01*
X410979761Y-195563988D01*
X411027380Y-195468750D01*
X411027380Y-195183035D01*
X410979761Y-195087797D01*
X410932142Y-195040178D01*
X410027380Y-195992559D02*
X410027380Y-196659226D01*
X411027380Y-196230654D01*
X182633630Y-212717261D02*
X181633630Y-212717261D01*
X181633630Y-212955357D01*
X181681250Y-213098214D01*
X181776488Y-213193452D01*
X181871726Y-213241071D01*
X182062202Y-213288690D01*
X182205059Y-213288690D01*
X182395535Y-213241071D01*
X182490773Y-213193452D01*
X182586011Y-213098214D01*
X182633630Y-212955357D01*
X182633630Y-212717261D01*
X182728869Y-213479166D02*
X182728869Y-214241071D01*
X181633630Y-214383928D02*
X181633630Y-215002976D01*
X182014583Y-214669642D01*
X182014583Y-214812500D01*
X182062202Y-214907738D01*
X182109821Y-214955357D01*
X182205059Y-215002976D01*
X182443154Y-215002976D01*
X182538392Y-214955357D01*
X182586011Y-214907738D01*
X182633630Y-214812500D01*
X182633630Y-214526785D01*
X182586011Y-214431547D01*
X182538392Y-214383928D01*
X182062202Y-215574404D02*
X182014583Y-215479166D01*
X181966964Y-215431547D01*
X181871726Y-215383928D01*
X181824107Y-215383928D01*
X181728869Y-215431547D01*
X181681250Y-215479166D01*
X181633630Y-215574404D01*
X181633630Y-215764880D01*
X181681250Y-215860119D01*
X181728869Y-215907738D01*
X181824107Y-215955357D01*
X181871726Y-215955357D01*
X181966964Y-215907738D01*
X182014583Y-215860119D01*
X182062202Y-215764880D01*
X182062202Y-215574404D01*
X182109821Y-215479166D01*
X182157440Y-215431547D01*
X182252678Y-215383928D01*
X182443154Y-215383928D01*
X182538392Y-215431547D01*
X182586011Y-215479166D01*
X182633630Y-215574404D01*
X182633630Y-215764880D01*
X182586011Y-215860119D01*
X182538392Y-215907738D01*
X182443154Y-215955357D01*
X182252678Y-215955357D01*
X182157440Y-215907738D01*
X182109821Y-215860119D01*
X182062202Y-215764880D01*
X153264880Y-211923511D02*
X152264880Y-211923511D01*
X152264880Y-212161607D01*
X152312500Y-212304464D01*
X152407738Y-212399702D01*
X152502976Y-212447321D01*
X152693452Y-212494940D01*
X152836309Y-212494940D01*
X153026785Y-212447321D01*
X153122023Y-212399702D01*
X153217261Y-212304464D01*
X153264880Y-212161607D01*
X153264880Y-211923511D01*
X153360119Y-212685416D02*
X153360119Y-213447321D01*
X152264880Y-213590178D02*
X152264880Y-214209226D01*
X152645833Y-213875892D01*
X152645833Y-214018750D01*
X152693452Y-214113988D01*
X152741071Y-214161607D01*
X152836309Y-214209226D01*
X153074404Y-214209226D01*
X153169642Y-214161607D01*
X153217261Y-214113988D01*
X153264880Y-214018750D01*
X153264880Y-213733035D01*
X153217261Y-213637797D01*
X153169642Y-213590178D01*
X153264880Y-214685416D02*
X153264880Y-214875892D01*
X153217261Y-214971130D01*
X153169642Y-215018750D01*
X153026785Y-215113988D01*
X152836309Y-215161607D01*
X152455357Y-215161607D01*
X152360119Y-215113988D01*
X152312500Y-215066369D01*
X152264880Y-214971130D01*
X152264880Y-214780654D01*
X152312500Y-214685416D01*
X152360119Y-214637797D01*
X152455357Y-214590178D01*
X152693452Y-214590178D01*
X152788690Y-214637797D01*
X152836309Y-214685416D01*
X152883928Y-214780654D01*
X152883928Y-214971130D01*
X152836309Y-215066369D01*
X152788690Y-215113988D01*
X152693452Y-215161607D01*
X225289880Y-212423511D02*
X224289880Y-212423511D01*
X224289880Y-212661607D01*
X224337500Y-212804464D01*
X224432738Y-212899702D01*
X224527976Y-212947321D01*
X224718452Y-212994940D01*
X224861309Y-212994940D01*
X225051785Y-212947321D01*
X225147023Y-212899702D01*
X225242261Y-212804464D01*
X225289880Y-212661607D01*
X225289880Y-212423511D01*
X225385119Y-213185416D02*
X225385119Y-213947321D01*
X224623214Y-214613988D02*
X225289880Y-214613988D01*
X224242261Y-214375892D02*
X224956547Y-214137797D01*
X224956547Y-214756845D01*
X224289880Y-215328273D02*
X224289880Y-215423511D01*
X224337500Y-215518750D01*
X224385119Y-215566369D01*
X224480357Y-215613988D01*
X224670833Y-215661607D01*
X224908928Y-215661607D01*
X225099404Y-215613988D01*
X225194642Y-215566369D01*
X225242261Y-215518750D01*
X225289880Y-215423511D01*
X225289880Y-215328273D01*
X225242261Y-215233035D01*
X225194642Y-215185416D01*
X225099404Y-215137797D01*
X224908928Y-215090178D01*
X224670833Y-215090178D01*
X224480357Y-215137797D01*
X224385119Y-215185416D01*
X224337500Y-215233035D01*
X224289880Y-215328273D01*
X277677380Y-212423511D02*
X276677380Y-212423511D01*
X276677380Y-212661607D01*
X276725000Y-212804464D01*
X276820238Y-212899702D01*
X276915476Y-212947321D01*
X277105952Y-212994940D01*
X277248809Y-212994940D01*
X277439285Y-212947321D01*
X277534523Y-212899702D01*
X277629761Y-212804464D01*
X277677380Y-212661607D01*
X277677380Y-212423511D01*
X277772619Y-213185416D02*
X277772619Y-213947321D01*
X277010714Y-214613988D02*
X277677380Y-214613988D01*
X276629761Y-214375892D02*
X277344047Y-214137797D01*
X277344047Y-214756845D01*
X277677380Y-215661607D02*
X277677380Y-215090178D01*
X277677380Y-215375892D02*
X276677380Y-215375892D01*
X276820238Y-215280654D01*
X276915476Y-215185416D01*
X276963095Y-215090178D01*
X325159380Y-212272761D02*
X324159380Y-212272761D01*
X324159380Y-212510857D01*
X324207000Y-212653714D01*
X324302238Y-212748952D01*
X324397476Y-212796571D01*
X324587952Y-212844190D01*
X324730809Y-212844190D01*
X324921285Y-212796571D01*
X325016523Y-212748952D01*
X325111761Y-212653714D01*
X325159380Y-212510857D01*
X325159380Y-212272761D01*
X325254619Y-213034666D02*
X325254619Y-213796571D01*
X324492714Y-214463238D02*
X325159380Y-214463238D01*
X324111761Y-214225142D02*
X324826047Y-213987047D01*
X324826047Y-214606095D01*
X324254619Y-214939428D02*
X324207000Y-214987047D01*
X324159380Y-215082285D01*
X324159380Y-215320380D01*
X324207000Y-215415619D01*
X324254619Y-215463238D01*
X324349857Y-215510857D01*
X324445095Y-215510857D01*
X324587952Y-215463238D01*
X325159380Y-214891809D01*
X325159380Y-215510857D01*
X303283630Y-212399761D02*
X302283630Y-212399761D01*
X302283630Y-212637857D01*
X302331250Y-212780714D01*
X302426488Y-212875952D01*
X302521726Y-212923571D01*
X302712202Y-212971190D01*
X302855059Y-212971190D01*
X303045535Y-212923571D01*
X303140773Y-212875952D01*
X303236011Y-212780714D01*
X303283630Y-212637857D01*
X303283630Y-212399761D01*
X303378869Y-213161666D02*
X303378869Y-213923571D01*
X302616964Y-214590238D02*
X303283630Y-214590238D01*
X302236011Y-214352142D02*
X302950297Y-214114047D01*
X302950297Y-214733095D01*
X302283630Y-215018809D02*
X302283630Y-215637857D01*
X302664583Y-215304523D01*
X302664583Y-215447380D01*
X302712202Y-215542619D01*
X302759821Y-215590238D01*
X302855059Y-215637857D01*
X303093154Y-215637857D01*
X303188392Y-215590238D01*
X303236011Y-215542619D01*
X303283630Y-215447380D01*
X303283630Y-215161666D01*
X303236011Y-215066428D01*
X303188392Y-215018809D01*
X391977380Y-212423511D02*
X390977380Y-212423511D01*
X390977380Y-212661607D01*
X391025000Y-212804464D01*
X391120238Y-212899702D01*
X391215476Y-212947321D01*
X391405952Y-212994940D01*
X391548809Y-212994940D01*
X391739285Y-212947321D01*
X391834523Y-212899702D01*
X391929761Y-212804464D01*
X391977380Y-212661607D01*
X391977380Y-212423511D01*
X392072619Y-213185416D02*
X392072619Y-213947321D01*
X391310714Y-214613988D02*
X391977380Y-214613988D01*
X390929761Y-214375892D02*
X391644047Y-214137797D01*
X391644047Y-214756845D01*
X391310714Y-215566369D02*
X391977380Y-215566369D01*
X390929761Y-215328273D02*
X391644047Y-215090178D01*
X391644047Y-215709226D01*
X411027380Y-212423511D02*
X410027380Y-212423511D01*
X410027380Y-212661607D01*
X410075000Y-212804464D01*
X410170238Y-212899702D01*
X410265476Y-212947321D01*
X410455952Y-212994940D01*
X410598809Y-212994940D01*
X410789285Y-212947321D01*
X410884523Y-212899702D01*
X410979761Y-212804464D01*
X411027380Y-212661607D01*
X411027380Y-212423511D01*
X411122619Y-213185416D02*
X411122619Y-213947321D01*
X410360714Y-214613988D02*
X411027380Y-214613988D01*
X409979761Y-214375892D02*
X410694047Y-214137797D01*
X410694047Y-214756845D01*
X410027380Y-215613988D02*
X410027380Y-215137797D01*
X410503571Y-215090178D01*
X410455952Y-215137797D01*
X410408333Y-215233035D01*
X410408333Y-215471130D01*
X410455952Y-215566369D01*
X410503571Y-215613988D01*
X410598809Y-215661607D01*
X410836904Y-215661607D01*
X410932142Y-215613988D01*
X410979761Y-215566369D01*
X411027380Y-215471130D01*
X411027380Y-215233035D01*
X410979761Y-215137797D01*
X410932142Y-215090178D01*
X430077380Y-212423511D02*
X429077380Y-212423511D01*
X429077380Y-212661607D01*
X429125000Y-212804464D01*
X429220238Y-212899702D01*
X429315476Y-212947321D01*
X429505952Y-212994940D01*
X429648809Y-212994940D01*
X429839285Y-212947321D01*
X429934523Y-212899702D01*
X430029761Y-212804464D01*
X430077380Y-212661607D01*
X430077380Y-212423511D01*
X430172619Y-213185416D02*
X430172619Y-213947321D01*
X429410714Y-214613988D02*
X430077380Y-214613988D01*
X429029761Y-214375892D02*
X429744047Y-214137797D01*
X429744047Y-214756845D01*
X429077380Y-215566369D02*
X429077380Y-215375892D01*
X429125000Y-215280654D01*
X429172619Y-215233035D01*
X429315476Y-215137797D01*
X429505952Y-215090178D01*
X429886904Y-215090178D01*
X429982142Y-215137797D01*
X430029761Y-215185416D01*
X430077380Y-215280654D01*
X430077380Y-215471130D01*
X430029761Y-215566369D01*
X429982142Y-215613988D01*
X429886904Y-215661607D01*
X429648809Y-215661607D01*
X429553571Y-215613988D01*
X429505952Y-215566369D01*
X429458333Y-215471130D01*
X429458333Y-215280654D01*
X429505952Y-215185416D01*
X429553571Y-215137797D01*
X429648809Y-215090178D01*
M02*
