G04 #@! TF.GenerationSoftware,KiCad,Pcbnew,(5.1.10)-1*
G04 #@! TF.CreationDate,2021-07-17T14:00:26+02:00*
G04 #@! TF.ProjectId,WheelBarrow Pro Micro,57686565-6c42-4617-9272-6f772050726f,rev?*
G04 #@! TF.SameCoordinates,Original*
G04 #@! TF.FileFunction,Legend,Top*
G04 #@! TF.FilePolarity,Positive*
%FSLAX46Y46*%
G04 Gerber Fmt 4.6, Leading zero omitted, Abs format (unit mm)*
G04 Created by KiCad (PCBNEW (5.1.10)-1) date 2021-07-17 14:00:26*
%MOMM*%
%LPD*%
G01*
G04 APERTURE LIST*
%ADD10C,0.300000*%
%ADD11C,0.203200*%
%ADD12C,0.150000*%
G04 APERTURE END LIST*
D10*
X364521750Y-215296750D02*
X363200950Y-215296750D01*
X366809863Y-215906350D02*
G75*
G03*
X366809863Y-215906350I-611713J0D01*
G01*
X363167606Y-216067282D02*
X363251750Y-213518750D01*
X363167636Y-216067046D02*
G75*
G03*
X363810549Y-216261949I338114J-42504D01*
G01*
X364521750Y-215296750D02*
X363810550Y-216261950D01*
X366147350Y-215296750D02*
X364521750Y-215296750D01*
X367315750Y-213518750D02*
X366147350Y-215296750D01*
X363251750Y-213518750D02*
X367264950Y-213518750D01*
X362540550Y-212807550D02*
X363251750Y-213518750D01*
D11*
X334856666Y-214122000D02*
X335195333Y-215307333D01*
X335534000Y-214460666D01*
X335872666Y-215307333D01*
X336211333Y-214122000D01*
X336888666Y-215307333D02*
X336888666Y-213529333D01*
X337650666Y-215307333D02*
X337650666Y-214376000D01*
X337566000Y-214206666D01*
X337396666Y-214122000D01*
X337142666Y-214122000D01*
X336973333Y-214206666D01*
X336888666Y-214291333D01*
X339174666Y-215222666D02*
X339005333Y-215307333D01*
X338666666Y-215307333D01*
X338497333Y-215222666D01*
X338412666Y-215053333D01*
X338412666Y-214376000D01*
X338497333Y-214206666D01*
X338666666Y-214122000D01*
X339005333Y-214122000D01*
X339174666Y-214206666D01*
X339259333Y-214376000D01*
X339259333Y-214545333D01*
X338412666Y-214714666D01*
X340698666Y-215222666D02*
X340529333Y-215307333D01*
X340190666Y-215307333D01*
X340021333Y-215222666D01*
X339936666Y-215053333D01*
X339936666Y-214376000D01*
X340021333Y-214206666D01*
X340190666Y-214122000D01*
X340529333Y-214122000D01*
X340698666Y-214206666D01*
X340783333Y-214376000D01*
X340783333Y-214545333D01*
X339936666Y-214714666D01*
X341799333Y-215307333D02*
X341630000Y-215222666D01*
X341545333Y-215053333D01*
X341545333Y-213529333D01*
X342476666Y-215307333D02*
X342476666Y-213529333D01*
X342476666Y-214206666D02*
X342646000Y-214122000D01*
X342984666Y-214122000D01*
X343154000Y-214206666D01*
X343238666Y-214291333D01*
X343323333Y-214460666D01*
X343323333Y-214968666D01*
X343238666Y-215138000D01*
X343154000Y-215222666D01*
X342984666Y-215307333D01*
X342646000Y-215307333D01*
X342476666Y-215222666D01*
X344847333Y-215307333D02*
X344847333Y-214376000D01*
X344762666Y-214206666D01*
X344593333Y-214122000D01*
X344254666Y-214122000D01*
X344085333Y-214206666D01*
X344847333Y-215222666D02*
X344678000Y-215307333D01*
X344254666Y-215307333D01*
X344085333Y-215222666D01*
X344000666Y-215053333D01*
X344000666Y-214884000D01*
X344085333Y-214714666D01*
X344254666Y-214630000D01*
X344678000Y-214630000D01*
X344847333Y-214545333D01*
X345694000Y-215307333D02*
X345694000Y-214122000D01*
X345694000Y-214460666D02*
X345778666Y-214291333D01*
X345863333Y-214206666D01*
X346032666Y-214122000D01*
X346202000Y-214122000D01*
X346794666Y-215307333D02*
X346794666Y-214122000D01*
X346794666Y-214460666D02*
X346879333Y-214291333D01*
X346964000Y-214206666D01*
X347133333Y-214122000D01*
X347302666Y-214122000D01*
X348149333Y-215307333D02*
X347980000Y-215222666D01*
X347895333Y-215138000D01*
X347810666Y-214968666D01*
X347810666Y-214460666D01*
X347895333Y-214291333D01*
X347980000Y-214206666D01*
X348149333Y-214122000D01*
X348403333Y-214122000D01*
X348572666Y-214206666D01*
X348657333Y-214291333D01*
X348742000Y-214460666D01*
X348742000Y-214968666D01*
X348657333Y-215138000D01*
X348572666Y-215222666D01*
X348403333Y-215307333D01*
X348149333Y-215307333D01*
X349334666Y-214122000D02*
X349673333Y-215307333D01*
X350012000Y-214460666D01*
X350350666Y-215307333D01*
X350689333Y-214122000D01*
X352721333Y-215307333D02*
X352721333Y-214122000D01*
X352721333Y-214460666D02*
X352806000Y-214291333D01*
X352890666Y-214206666D01*
X353060000Y-214122000D01*
X353229333Y-214122000D01*
X354499333Y-215222666D02*
X354330000Y-215307333D01*
X353991333Y-215307333D01*
X353822000Y-215222666D01*
X353737333Y-215053333D01*
X353737333Y-214376000D01*
X353822000Y-214206666D01*
X353991333Y-214122000D01*
X354330000Y-214122000D01*
X354499333Y-214206666D01*
X354584000Y-214376000D01*
X354584000Y-214545333D01*
X353737333Y-214714666D01*
X355176666Y-214122000D02*
X355600000Y-215307333D01*
X356023333Y-214122000D01*
X357970666Y-213698666D02*
X358055333Y-213614000D01*
X358224666Y-213529333D01*
X358648000Y-213529333D01*
X358817333Y-213614000D01*
X358902000Y-213698666D01*
X358986666Y-213868000D01*
X358986666Y-214037333D01*
X358902000Y-214291333D01*
X357886000Y-215307333D01*
X358986666Y-215307333D01*
X359748666Y-215138000D02*
X359833333Y-215222666D01*
X359748666Y-215307333D01*
X359664000Y-215222666D01*
X359748666Y-215138000D01*
X359748666Y-215307333D01*
X360934000Y-213529333D02*
X361103333Y-213529333D01*
X361272666Y-213614000D01*
X361357333Y-213698666D01*
X361442000Y-213868000D01*
X361526666Y-214206666D01*
X361526666Y-214630000D01*
X361442000Y-214968666D01*
X361357333Y-215138000D01*
X361272666Y-215222666D01*
X361103333Y-215307333D01*
X360934000Y-215307333D01*
X360764666Y-215222666D01*
X360680000Y-215138000D01*
X360595333Y-214968666D01*
X360510666Y-214630000D01*
X360510666Y-214206666D01*
X360595333Y-213868000D01*
X360680000Y-213698666D01*
X360764666Y-213614000D01*
X360934000Y-213529333D01*
D12*
X348538800Y-141986000D02*
X348538800Y-172466000D01*
X348538800Y-141986000D02*
X353618800Y-141986000D01*
X353618800Y-141986000D02*
X353618800Y-139446000D01*
X353618800Y-139446000D02*
X361238800Y-139446000D01*
X361238800Y-139446000D02*
X361238800Y-141986000D01*
X361238800Y-141986000D02*
X366318800Y-141986000D01*
X366318800Y-141986000D02*
X366318800Y-172466000D01*
X366318800Y-172466000D02*
X348538800Y-172466000D01*
M02*
