G04 #@! TF.GenerationSoftware,KiCad,Pcbnew,(5.1.10)-1*
G04 #@! TF.CreationDate,2021-07-17T14:00:26+02:00*
G04 #@! TF.ProjectId,WheelBarrow Pro Micro,57686565-6c42-4617-9272-6f772050726f,rev?*
G04 #@! TF.SameCoordinates,Original*
G04 #@! TF.FileFunction,Soldermask,Top*
G04 #@! TF.FilePolarity,Negative*
%FSLAX46Y46*%
G04 Gerber Fmt 4.6, Leading zero omitted, Abs format (unit mm)*
G04 Created by KiCad (PCBNEW (5.1.10)-1) date 2021-07-17 14:00:26*
%MOMM*%
%LPD*%
G01*
G04 APERTURE LIST*
%ADD10C,3.987800*%
%ADD11C,1.750000*%
%ADD12C,2.200000*%
%ADD13C,1.600000*%
%ADD14R,1.600000X1.600000*%
%ADD15C,3.048000*%
G04 APERTURE END LIST*
D10*
X166687500Y-213518750D03*
D11*
X161607500Y-213518750D03*
X171767500Y-213518750D03*
D10*
X314325000Y-213518750D03*
D11*
X309245000Y-213518750D03*
X319405000Y-213518750D03*
D12*
X112649000Y-144907000D03*
X112649000Y-224282000D03*
X343693750Y-146050000D03*
X343693750Y-223043750D03*
X428625000Y-223043750D03*
X428625000Y-146843750D03*
X242887500Y-185166000D03*
X389731250Y-184943750D03*
D13*
X365048800Y-143256000D03*
X365048800Y-145796000D03*
X365048800Y-148336000D03*
X365048800Y-150876000D03*
X365048800Y-153416000D03*
X365048800Y-155956000D03*
X365048800Y-158496000D03*
X365048800Y-161036000D03*
X365048800Y-163576000D03*
X365048800Y-166116000D03*
X365048800Y-168656000D03*
X365048800Y-171196000D03*
X349808800Y-171196000D03*
X349808800Y-168656000D03*
X349808800Y-166116000D03*
X349808800Y-163576000D03*
X349808800Y-161036000D03*
X349808800Y-158496000D03*
X349808800Y-155956000D03*
X349808800Y-153416000D03*
X349808800Y-150876000D03*
X349808800Y-148336000D03*
X349808800Y-145796000D03*
D14*
X349808800Y-143256000D03*
D10*
X123825000Y-156368750D03*
D11*
X118745000Y-156368750D03*
X128905000Y-156368750D03*
D10*
X142875000Y-156368750D03*
D11*
X137795000Y-156368750D03*
X147955000Y-156368750D03*
D10*
X161925000Y-156368750D03*
D11*
X156845000Y-156368750D03*
X167005000Y-156368750D03*
D10*
X180975000Y-156368750D03*
D11*
X175895000Y-156368750D03*
X186055000Y-156368750D03*
D10*
X200025000Y-156368750D03*
D11*
X194945000Y-156368750D03*
X205105000Y-156368750D03*
D10*
X219075000Y-156368750D03*
D11*
X213995000Y-156368750D03*
X224155000Y-156368750D03*
D10*
X238125000Y-156368750D03*
D11*
X233045000Y-156368750D03*
X243205000Y-156368750D03*
D10*
X257175000Y-156368750D03*
D11*
X252095000Y-156368750D03*
X262255000Y-156368750D03*
D10*
X276225000Y-156368750D03*
D11*
X271145000Y-156368750D03*
X281305000Y-156368750D03*
D10*
X295275000Y-156368750D03*
D11*
X290195000Y-156368750D03*
X300355000Y-156368750D03*
D10*
X314325000Y-156368750D03*
D11*
X309245000Y-156368750D03*
X319405000Y-156368750D03*
D10*
X333375000Y-156368750D03*
D11*
X328295000Y-156368750D03*
X338455000Y-156368750D03*
D10*
X381000000Y-156368750D03*
D11*
X375920000Y-156368750D03*
X386080000Y-156368750D03*
D10*
X400050000Y-156368750D03*
D11*
X394970000Y-156368750D03*
X405130000Y-156368750D03*
D10*
X419100000Y-156368750D03*
D11*
X414020000Y-156368750D03*
X424180000Y-156368750D03*
D10*
X126206250Y-175418750D03*
D11*
X121126250Y-175418750D03*
X131286250Y-175418750D03*
D10*
X147637500Y-175418750D03*
D11*
X142557500Y-175418750D03*
X152717500Y-175418750D03*
D10*
X166687500Y-175418750D03*
D11*
X161607500Y-175418750D03*
X171767500Y-175418750D03*
D10*
X185737500Y-175418750D03*
D11*
X180657500Y-175418750D03*
X190817500Y-175418750D03*
D10*
X204787500Y-175418750D03*
D11*
X199707500Y-175418750D03*
X209867500Y-175418750D03*
D10*
X223837500Y-175418750D03*
D11*
X218757500Y-175418750D03*
X228917500Y-175418750D03*
D10*
X242887500Y-175418750D03*
D11*
X237807500Y-175418750D03*
X247967500Y-175418750D03*
D10*
X261937500Y-175418750D03*
D11*
X256857500Y-175418750D03*
X267017500Y-175418750D03*
D10*
X280987500Y-175418750D03*
D11*
X275907500Y-175418750D03*
X286067500Y-175418750D03*
D10*
X300037500Y-175418750D03*
D11*
X294957500Y-175418750D03*
X305117500Y-175418750D03*
D10*
X326231250Y-175418750D03*
D11*
X321151250Y-175418750D03*
X331311250Y-175418750D03*
D10*
X130968750Y-194468750D03*
D11*
X125888750Y-194468750D03*
X136048750Y-194468750D03*
D10*
X157162500Y-194468750D03*
D11*
X152082500Y-194468750D03*
X162242500Y-194468750D03*
D10*
X176212500Y-194468750D03*
D11*
X171132500Y-194468750D03*
X181292500Y-194468750D03*
D10*
X195262500Y-194468750D03*
D11*
X190182500Y-194468750D03*
X200342500Y-194468750D03*
D10*
X214312500Y-194468750D03*
D11*
X209232500Y-194468750D03*
X219392500Y-194468750D03*
D10*
X233362500Y-194468750D03*
D11*
X228282500Y-194468750D03*
X238442500Y-194468750D03*
D10*
X252412500Y-194468750D03*
D11*
X247332500Y-194468750D03*
X257492500Y-194468750D03*
D10*
X271462500Y-194468750D03*
D11*
X266382500Y-194468750D03*
X276542500Y-194468750D03*
D10*
X290512500Y-194468750D03*
D11*
X285432500Y-194468750D03*
X295592500Y-194468750D03*
D10*
X309562500Y-194468750D03*
D11*
X304482500Y-194468750D03*
X314642500Y-194468750D03*
D10*
X330993750Y-194468750D03*
D11*
X325913750Y-194468750D03*
X336073750Y-194468750D03*
D10*
X400050000Y-194468750D03*
D11*
X394970000Y-194468750D03*
X405130000Y-194468750D03*
D10*
X142875000Y-213518750D03*
D11*
X137795000Y-213518750D03*
X147955000Y-213518750D03*
D10*
X202406250Y-213518750D03*
D11*
X197326250Y-213518750D03*
X207486250Y-213518750D03*
D15*
X190468250Y-206533750D03*
X214344250Y-206533750D03*
D10*
X190468250Y-221773750D03*
X214344250Y-221773750D03*
X250031250Y-213518750D03*
D11*
X244951250Y-213518750D03*
X255111250Y-213518750D03*
D15*
X238093250Y-206533750D03*
X261969250Y-206533750D03*
D10*
X238093250Y-221773750D03*
X261969250Y-221773750D03*
X290512500Y-213518750D03*
D11*
X285432500Y-213518750D03*
X295592500Y-213518750D03*
D10*
X381000000Y-213518750D03*
D11*
X375920000Y-213518750D03*
X386080000Y-213518750D03*
D10*
X400050000Y-213518750D03*
D11*
X394970000Y-213518750D03*
X405130000Y-213518750D03*
D10*
X419100000Y-213518750D03*
D11*
X414020000Y-213518750D03*
X424180000Y-213518750D03*
M02*
