G04 #@! TF.GenerationSoftware,KiCad,Pcbnew,(5.1.10)-1*
G04 #@! TF.CreationDate,2021-07-17T14:00:26+02:00*
G04 #@! TF.ProjectId,WheelBarrow Pro Micro,57686565-6c42-4617-9272-6f772050726f,rev?*
G04 #@! TF.SameCoordinates,Original*
G04 #@! TF.FileFunction,Copper,L2,Bot*
G04 #@! TF.FilePolarity,Positive*
%FSLAX46Y46*%
G04 Gerber Fmt 4.6, Leading zero omitted, Abs format (unit mm)*
G04 Created by KiCad (PCBNEW (5.1.10)-1) date 2021-07-17 14:00:26*
%MOMM*%
%LPD*%
G01*
G04 APERTURE LIST*
G04 #@! TA.AperFunction,ComponentPad*
%ADD10C,2.250000*%
G04 #@! TD*
G04 #@! TA.AperFunction,ComponentPad*
%ADD11C,1.600000*%
G04 #@! TD*
G04 #@! TA.AperFunction,ComponentPad*
%ADD12R,1.600000X1.600000*%
G04 #@! TD*
G04 #@! TA.AperFunction,SMDPad,CuDef*
%ADD13R,1.100000X1.800000*%
G04 #@! TD*
G04 #@! TA.AperFunction,SMDPad,CuDef*
%ADD14R,1.200000X0.900000*%
G04 #@! TD*
G04 #@! TA.AperFunction,ViaPad*
%ADD15C,0.800000*%
G04 #@! TD*
G04 #@! TA.AperFunction,Conductor*
%ADD16C,0.254000*%
G04 #@! TD*
G04 #@! TA.AperFunction,Conductor*
%ADD17C,0.381000*%
G04 #@! TD*
G04 #@! TA.AperFunction,Conductor*
%ADD18C,0.250000*%
G04 #@! TD*
G04 APERTURE END LIST*
D10*
X164187500Y-209518750D03*
G04 #@! TA.AperFunction,ComponentPad*
G36*
G01*
X162126188Y-211816100D02*
X162126183Y-211816095D01*
G75*
G02*
X162040155Y-210227433I751317J837345D01*
G01*
X163350157Y-208767433D01*
G75*
G02*
X164938819Y-208681405I837345J-751317D01*
G01*
X164938819Y-208681405D01*
G75*
G02*
X165024847Y-210270067I-751317J-837345D01*
G01*
X163714845Y-211730067D01*
G75*
G02*
X162126183Y-211816095I-837345J751317D01*
G01*
G37*
G04 #@! TD.AperFunction*
G04 #@! TA.AperFunction,ComponentPad*
G36*
G01*
X169110983Y-210141145D02*
X169110097Y-210141084D01*
G75*
G02*
X168065166Y-208941347I77403J1122334D01*
G01*
X168105166Y-208361347D01*
G75*
G02*
X169304903Y-207316416I1122334J-77403D01*
G01*
X169304903Y-207316416D01*
G75*
G02*
X170349834Y-208516153I-77403J-1122334D01*
G01*
X170309834Y-209096153D01*
G75*
G02*
X169110097Y-210141084I-1122334J77403D01*
G01*
G37*
G04 #@! TD.AperFunction*
X169227500Y-208438750D03*
X311825000Y-209518750D03*
G04 #@! TA.AperFunction,ComponentPad*
G36*
G01*
X309763688Y-211816100D02*
X309763683Y-211816095D01*
G75*
G02*
X309677655Y-210227433I751317J837345D01*
G01*
X310987657Y-208767433D01*
G75*
G02*
X312576319Y-208681405I837345J-751317D01*
G01*
X312576319Y-208681405D01*
G75*
G02*
X312662347Y-210270067I-751317J-837345D01*
G01*
X311352345Y-211730067D01*
G75*
G02*
X309763683Y-211816095I-837345J751317D01*
G01*
G37*
G04 #@! TD.AperFunction*
G04 #@! TA.AperFunction,ComponentPad*
G36*
G01*
X316748483Y-210141145D02*
X316747597Y-210141084D01*
G75*
G02*
X315702666Y-208941347I77403J1122334D01*
G01*
X315742666Y-208361347D01*
G75*
G02*
X316942403Y-207316416I1122334J-77403D01*
G01*
X316942403Y-207316416D01*
G75*
G02*
X317987334Y-208516153I-77403J-1122334D01*
G01*
X317947334Y-209096153D01*
G75*
G02*
X316747597Y-210141084I-1122334J77403D01*
G01*
G37*
G04 #@! TD.AperFunction*
X316865000Y-208438750D03*
D11*
X365048800Y-143256000D03*
X365048800Y-145796000D03*
X365048800Y-148336000D03*
X365048800Y-150876000D03*
X365048800Y-153416000D03*
X365048800Y-155956000D03*
X365048800Y-158496000D03*
X365048800Y-161036000D03*
X365048800Y-163576000D03*
X365048800Y-166116000D03*
X365048800Y-168656000D03*
X365048800Y-171196000D03*
X349808800Y-171196000D03*
X349808800Y-168656000D03*
X349808800Y-166116000D03*
X349808800Y-163576000D03*
X349808800Y-161036000D03*
X349808800Y-158496000D03*
X349808800Y-155956000D03*
X349808800Y-153416000D03*
X349808800Y-150876000D03*
X349808800Y-148336000D03*
X349808800Y-145796000D03*
D12*
X349808800Y-143256000D03*
D13*
X418393000Y-191083000D03*
X418393000Y-197283000D03*
X422093000Y-191083000D03*
X422093000Y-197283000D03*
D10*
X121325000Y-152368750D03*
G04 #@! TA.AperFunction,ComponentPad*
G36*
G01*
X119263688Y-154666100D02*
X119263683Y-154666095D01*
G75*
G02*
X119177655Y-153077433I751317J837345D01*
G01*
X120487657Y-151617433D01*
G75*
G02*
X122076319Y-151531405I837345J-751317D01*
G01*
X122076319Y-151531405D01*
G75*
G02*
X122162347Y-153120067I-751317J-837345D01*
G01*
X120852345Y-154580067D01*
G75*
G02*
X119263683Y-154666095I-837345J751317D01*
G01*
G37*
G04 #@! TD.AperFunction*
G04 #@! TA.AperFunction,ComponentPad*
G36*
G01*
X126248483Y-152991145D02*
X126247597Y-152991084D01*
G75*
G02*
X125202666Y-151791347I77403J1122334D01*
G01*
X125242666Y-151211347D01*
G75*
G02*
X126442403Y-150166416I1122334J-77403D01*
G01*
X126442403Y-150166416D01*
G75*
G02*
X127487334Y-151366153I-77403J-1122334D01*
G01*
X127447334Y-151946153D01*
G75*
G02*
X126247597Y-152991084I-1122334J77403D01*
G01*
G37*
G04 #@! TD.AperFunction*
X126365000Y-151288750D03*
D14*
X132350000Y-155218750D03*
X132350000Y-158518750D03*
D10*
X140375000Y-152368750D03*
G04 #@! TA.AperFunction,ComponentPad*
G36*
G01*
X138313688Y-154666100D02*
X138313683Y-154666095D01*
G75*
G02*
X138227655Y-153077433I751317J837345D01*
G01*
X139537657Y-151617433D01*
G75*
G02*
X141126319Y-151531405I837345J-751317D01*
G01*
X141126319Y-151531405D01*
G75*
G02*
X141212347Y-153120067I-751317J-837345D01*
G01*
X139902345Y-154580067D01*
G75*
G02*
X138313683Y-154666095I-837345J751317D01*
G01*
G37*
G04 #@! TD.AperFunction*
G04 #@! TA.AperFunction,ComponentPad*
G36*
G01*
X145298483Y-152991145D02*
X145297597Y-152991084D01*
G75*
G02*
X144252666Y-151791347I77403J1122334D01*
G01*
X144292666Y-151211347D01*
G75*
G02*
X145492403Y-150166416I1122334J-77403D01*
G01*
X145492403Y-150166416D01*
G75*
G02*
X146537334Y-151366153I-77403J-1122334D01*
G01*
X146497334Y-151946153D01*
G75*
G02*
X145297597Y-152991084I-1122334J77403D01*
G01*
G37*
G04 #@! TD.AperFunction*
X145415000Y-151288750D03*
D14*
X151400000Y-155218750D03*
X151400000Y-158518750D03*
D10*
X159425000Y-152368750D03*
G04 #@! TA.AperFunction,ComponentPad*
G36*
G01*
X157363688Y-154666100D02*
X157363683Y-154666095D01*
G75*
G02*
X157277655Y-153077433I751317J837345D01*
G01*
X158587657Y-151617433D01*
G75*
G02*
X160176319Y-151531405I837345J-751317D01*
G01*
X160176319Y-151531405D01*
G75*
G02*
X160262347Y-153120067I-751317J-837345D01*
G01*
X158952345Y-154580067D01*
G75*
G02*
X157363683Y-154666095I-837345J751317D01*
G01*
G37*
G04 #@! TD.AperFunction*
G04 #@! TA.AperFunction,ComponentPad*
G36*
G01*
X164348483Y-152991145D02*
X164347597Y-152991084D01*
G75*
G02*
X163302666Y-151791347I77403J1122334D01*
G01*
X163342666Y-151211347D01*
G75*
G02*
X164542403Y-150166416I1122334J-77403D01*
G01*
X164542403Y-150166416D01*
G75*
G02*
X165587334Y-151366153I-77403J-1122334D01*
G01*
X165547334Y-151946153D01*
G75*
G02*
X164347597Y-152991084I-1122334J77403D01*
G01*
G37*
G04 #@! TD.AperFunction*
X164465000Y-151288750D03*
D14*
X170450000Y-155218750D03*
X170450000Y-158518750D03*
D10*
X178475000Y-152368750D03*
G04 #@! TA.AperFunction,ComponentPad*
G36*
G01*
X176413688Y-154666100D02*
X176413683Y-154666095D01*
G75*
G02*
X176327655Y-153077433I751317J837345D01*
G01*
X177637657Y-151617433D01*
G75*
G02*
X179226319Y-151531405I837345J-751317D01*
G01*
X179226319Y-151531405D01*
G75*
G02*
X179312347Y-153120067I-751317J-837345D01*
G01*
X178002345Y-154580067D01*
G75*
G02*
X176413683Y-154666095I-837345J751317D01*
G01*
G37*
G04 #@! TD.AperFunction*
G04 #@! TA.AperFunction,ComponentPad*
G36*
G01*
X183398483Y-152991145D02*
X183397597Y-152991084D01*
G75*
G02*
X182352666Y-151791347I77403J1122334D01*
G01*
X182392666Y-151211347D01*
G75*
G02*
X183592403Y-150166416I1122334J-77403D01*
G01*
X183592403Y-150166416D01*
G75*
G02*
X184637334Y-151366153I-77403J-1122334D01*
G01*
X184597334Y-151946153D01*
G75*
G02*
X183397597Y-152991084I-1122334J77403D01*
G01*
G37*
G04 #@! TD.AperFunction*
X183515000Y-151288750D03*
D14*
X189500000Y-155218750D03*
X189500000Y-158518750D03*
D10*
X197525000Y-152368750D03*
G04 #@! TA.AperFunction,ComponentPad*
G36*
G01*
X195463688Y-154666100D02*
X195463683Y-154666095D01*
G75*
G02*
X195377655Y-153077433I751317J837345D01*
G01*
X196687657Y-151617433D01*
G75*
G02*
X198276319Y-151531405I837345J-751317D01*
G01*
X198276319Y-151531405D01*
G75*
G02*
X198362347Y-153120067I-751317J-837345D01*
G01*
X197052345Y-154580067D01*
G75*
G02*
X195463683Y-154666095I-837345J751317D01*
G01*
G37*
G04 #@! TD.AperFunction*
G04 #@! TA.AperFunction,ComponentPad*
G36*
G01*
X202448483Y-152991145D02*
X202447597Y-152991084D01*
G75*
G02*
X201402666Y-151791347I77403J1122334D01*
G01*
X201442666Y-151211347D01*
G75*
G02*
X202642403Y-150166416I1122334J-77403D01*
G01*
X202642403Y-150166416D01*
G75*
G02*
X203687334Y-151366153I-77403J-1122334D01*
G01*
X203647334Y-151946153D01*
G75*
G02*
X202447597Y-152991084I-1122334J77403D01*
G01*
G37*
G04 #@! TD.AperFunction*
X202565000Y-151288750D03*
D14*
X208550000Y-155218750D03*
X208550000Y-158518750D03*
D10*
X216575000Y-152368750D03*
G04 #@! TA.AperFunction,ComponentPad*
G36*
G01*
X214513688Y-154666100D02*
X214513683Y-154666095D01*
G75*
G02*
X214427655Y-153077433I751317J837345D01*
G01*
X215737657Y-151617433D01*
G75*
G02*
X217326319Y-151531405I837345J-751317D01*
G01*
X217326319Y-151531405D01*
G75*
G02*
X217412347Y-153120067I-751317J-837345D01*
G01*
X216102345Y-154580067D01*
G75*
G02*
X214513683Y-154666095I-837345J751317D01*
G01*
G37*
G04 #@! TD.AperFunction*
G04 #@! TA.AperFunction,ComponentPad*
G36*
G01*
X221498483Y-152991145D02*
X221497597Y-152991084D01*
G75*
G02*
X220452666Y-151791347I77403J1122334D01*
G01*
X220492666Y-151211347D01*
G75*
G02*
X221692403Y-150166416I1122334J-77403D01*
G01*
X221692403Y-150166416D01*
G75*
G02*
X222737334Y-151366153I-77403J-1122334D01*
G01*
X222697334Y-151946153D01*
G75*
G02*
X221497597Y-152991084I-1122334J77403D01*
G01*
G37*
G04 #@! TD.AperFunction*
X221615000Y-151288750D03*
D14*
X227600000Y-155218750D03*
X227600000Y-158518750D03*
D10*
X235625000Y-152368750D03*
G04 #@! TA.AperFunction,ComponentPad*
G36*
G01*
X233563688Y-154666100D02*
X233563683Y-154666095D01*
G75*
G02*
X233477655Y-153077433I751317J837345D01*
G01*
X234787657Y-151617433D01*
G75*
G02*
X236376319Y-151531405I837345J-751317D01*
G01*
X236376319Y-151531405D01*
G75*
G02*
X236462347Y-153120067I-751317J-837345D01*
G01*
X235152345Y-154580067D01*
G75*
G02*
X233563683Y-154666095I-837345J751317D01*
G01*
G37*
G04 #@! TD.AperFunction*
G04 #@! TA.AperFunction,ComponentPad*
G36*
G01*
X240548483Y-152991145D02*
X240547597Y-152991084D01*
G75*
G02*
X239502666Y-151791347I77403J1122334D01*
G01*
X239542666Y-151211347D01*
G75*
G02*
X240742403Y-150166416I1122334J-77403D01*
G01*
X240742403Y-150166416D01*
G75*
G02*
X241787334Y-151366153I-77403J-1122334D01*
G01*
X241747334Y-151946153D01*
G75*
G02*
X240547597Y-152991084I-1122334J77403D01*
G01*
G37*
G04 #@! TD.AperFunction*
X240665000Y-151288750D03*
D14*
X246650000Y-155218750D03*
X246650000Y-158518750D03*
D10*
X254675000Y-152368750D03*
G04 #@! TA.AperFunction,ComponentPad*
G36*
G01*
X252613688Y-154666100D02*
X252613683Y-154666095D01*
G75*
G02*
X252527655Y-153077433I751317J837345D01*
G01*
X253837657Y-151617433D01*
G75*
G02*
X255426319Y-151531405I837345J-751317D01*
G01*
X255426319Y-151531405D01*
G75*
G02*
X255512347Y-153120067I-751317J-837345D01*
G01*
X254202345Y-154580067D01*
G75*
G02*
X252613683Y-154666095I-837345J751317D01*
G01*
G37*
G04 #@! TD.AperFunction*
G04 #@! TA.AperFunction,ComponentPad*
G36*
G01*
X259598483Y-152991145D02*
X259597597Y-152991084D01*
G75*
G02*
X258552666Y-151791347I77403J1122334D01*
G01*
X258592666Y-151211347D01*
G75*
G02*
X259792403Y-150166416I1122334J-77403D01*
G01*
X259792403Y-150166416D01*
G75*
G02*
X260837334Y-151366153I-77403J-1122334D01*
G01*
X260797334Y-151946153D01*
G75*
G02*
X259597597Y-152991084I-1122334J77403D01*
G01*
G37*
G04 #@! TD.AperFunction*
X259715000Y-151288750D03*
D14*
X265700000Y-155218750D03*
X265700000Y-158518750D03*
D10*
X273725000Y-152368750D03*
G04 #@! TA.AperFunction,ComponentPad*
G36*
G01*
X271663688Y-154666100D02*
X271663683Y-154666095D01*
G75*
G02*
X271577655Y-153077433I751317J837345D01*
G01*
X272887657Y-151617433D01*
G75*
G02*
X274476319Y-151531405I837345J-751317D01*
G01*
X274476319Y-151531405D01*
G75*
G02*
X274562347Y-153120067I-751317J-837345D01*
G01*
X273252345Y-154580067D01*
G75*
G02*
X271663683Y-154666095I-837345J751317D01*
G01*
G37*
G04 #@! TD.AperFunction*
G04 #@! TA.AperFunction,ComponentPad*
G36*
G01*
X278648483Y-152991145D02*
X278647597Y-152991084D01*
G75*
G02*
X277602666Y-151791347I77403J1122334D01*
G01*
X277642666Y-151211347D01*
G75*
G02*
X278842403Y-150166416I1122334J-77403D01*
G01*
X278842403Y-150166416D01*
G75*
G02*
X279887334Y-151366153I-77403J-1122334D01*
G01*
X279847334Y-151946153D01*
G75*
G02*
X278647597Y-152991084I-1122334J77403D01*
G01*
G37*
G04 #@! TD.AperFunction*
X278765000Y-151288750D03*
D14*
X284750000Y-155218750D03*
X284750000Y-158518750D03*
D10*
X292775000Y-152368750D03*
G04 #@! TA.AperFunction,ComponentPad*
G36*
G01*
X290713688Y-154666100D02*
X290713683Y-154666095D01*
G75*
G02*
X290627655Y-153077433I751317J837345D01*
G01*
X291937657Y-151617433D01*
G75*
G02*
X293526319Y-151531405I837345J-751317D01*
G01*
X293526319Y-151531405D01*
G75*
G02*
X293612347Y-153120067I-751317J-837345D01*
G01*
X292302345Y-154580067D01*
G75*
G02*
X290713683Y-154666095I-837345J751317D01*
G01*
G37*
G04 #@! TD.AperFunction*
G04 #@! TA.AperFunction,ComponentPad*
G36*
G01*
X297698483Y-152991145D02*
X297697597Y-152991084D01*
G75*
G02*
X296652666Y-151791347I77403J1122334D01*
G01*
X296692666Y-151211347D01*
G75*
G02*
X297892403Y-150166416I1122334J-77403D01*
G01*
X297892403Y-150166416D01*
G75*
G02*
X298937334Y-151366153I-77403J-1122334D01*
G01*
X298897334Y-151946153D01*
G75*
G02*
X297697597Y-152991084I-1122334J77403D01*
G01*
G37*
G04 #@! TD.AperFunction*
X297815000Y-151288750D03*
D14*
X303800000Y-155218750D03*
X303800000Y-158518750D03*
D10*
X311825000Y-152368750D03*
G04 #@! TA.AperFunction,ComponentPad*
G36*
G01*
X309763688Y-154666100D02*
X309763683Y-154666095D01*
G75*
G02*
X309677655Y-153077433I751317J837345D01*
G01*
X310987657Y-151617433D01*
G75*
G02*
X312576319Y-151531405I837345J-751317D01*
G01*
X312576319Y-151531405D01*
G75*
G02*
X312662347Y-153120067I-751317J-837345D01*
G01*
X311352345Y-154580067D01*
G75*
G02*
X309763683Y-154666095I-837345J751317D01*
G01*
G37*
G04 #@! TD.AperFunction*
G04 #@! TA.AperFunction,ComponentPad*
G36*
G01*
X316748483Y-152991145D02*
X316747597Y-152991084D01*
G75*
G02*
X315702666Y-151791347I77403J1122334D01*
G01*
X315742666Y-151211347D01*
G75*
G02*
X316942403Y-150166416I1122334J-77403D01*
G01*
X316942403Y-150166416D01*
G75*
G02*
X317987334Y-151366153I-77403J-1122334D01*
G01*
X317947334Y-151946153D01*
G75*
G02*
X316747597Y-152991084I-1122334J77403D01*
G01*
G37*
G04 #@! TD.AperFunction*
X316865000Y-151288750D03*
D14*
X322850000Y-155218750D03*
X322850000Y-158518750D03*
D10*
X330875000Y-152368750D03*
G04 #@! TA.AperFunction,ComponentPad*
G36*
G01*
X328813688Y-154666100D02*
X328813683Y-154666095D01*
G75*
G02*
X328727655Y-153077433I751317J837345D01*
G01*
X330037657Y-151617433D01*
G75*
G02*
X331626319Y-151531405I837345J-751317D01*
G01*
X331626319Y-151531405D01*
G75*
G02*
X331712347Y-153120067I-751317J-837345D01*
G01*
X330402345Y-154580067D01*
G75*
G02*
X328813683Y-154666095I-837345J751317D01*
G01*
G37*
G04 #@! TD.AperFunction*
G04 #@! TA.AperFunction,ComponentPad*
G36*
G01*
X335798483Y-152991145D02*
X335797597Y-152991084D01*
G75*
G02*
X334752666Y-151791347I77403J1122334D01*
G01*
X334792666Y-151211347D01*
G75*
G02*
X335992403Y-150166416I1122334J-77403D01*
G01*
X335992403Y-150166416D01*
G75*
G02*
X337037334Y-151366153I-77403J-1122334D01*
G01*
X336997334Y-151946153D01*
G75*
G02*
X335797597Y-152991084I-1122334J77403D01*
G01*
G37*
G04 #@! TD.AperFunction*
X335915000Y-151288750D03*
D14*
X341900000Y-155218750D03*
X341900000Y-158518750D03*
D10*
X378500000Y-152368750D03*
G04 #@! TA.AperFunction,ComponentPad*
G36*
G01*
X376438688Y-154666100D02*
X376438683Y-154666095D01*
G75*
G02*
X376352655Y-153077433I751317J837345D01*
G01*
X377662657Y-151617433D01*
G75*
G02*
X379251319Y-151531405I837345J-751317D01*
G01*
X379251319Y-151531405D01*
G75*
G02*
X379337347Y-153120067I-751317J-837345D01*
G01*
X378027345Y-154580067D01*
G75*
G02*
X376438683Y-154666095I-837345J751317D01*
G01*
G37*
G04 #@! TD.AperFunction*
G04 #@! TA.AperFunction,ComponentPad*
G36*
G01*
X383423483Y-152991145D02*
X383422597Y-152991084D01*
G75*
G02*
X382377666Y-151791347I77403J1122334D01*
G01*
X382417666Y-151211347D01*
G75*
G02*
X383617403Y-150166416I1122334J-77403D01*
G01*
X383617403Y-150166416D01*
G75*
G02*
X384662334Y-151366153I-77403J-1122334D01*
G01*
X384622334Y-151946153D01*
G75*
G02*
X383422597Y-152991084I-1122334J77403D01*
G01*
G37*
G04 #@! TD.AperFunction*
X383540000Y-151288750D03*
D14*
X389525000Y-155218750D03*
X389525000Y-158518750D03*
D10*
X397550000Y-152368750D03*
G04 #@! TA.AperFunction,ComponentPad*
G36*
G01*
X395488688Y-154666100D02*
X395488683Y-154666095D01*
G75*
G02*
X395402655Y-153077433I751317J837345D01*
G01*
X396712657Y-151617433D01*
G75*
G02*
X398301319Y-151531405I837345J-751317D01*
G01*
X398301319Y-151531405D01*
G75*
G02*
X398387347Y-153120067I-751317J-837345D01*
G01*
X397077345Y-154580067D01*
G75*
G02*
X395488683Y-154666095I-837345J751317D01*
G01*
G37*
G04 #@! TD.AperFunction*
G04 #@! TA.AperFunction,ComponentPad*
G36*
G01*
X402473483Y-152991145D02*
X402472597Y-152991084D01*
G75*
G02*
X401427666Y-151791347I77403J1122334D01*
G01*
X401467666Y-151211347D01*
G75*
G02*
X402667403Y-150166416I1122334J-77403D01*
G01*
X402667403Y-150166416D01*
G75*
G02*
X403712334Y-151366153I-77403J-1122334D01*
G01*
X403672334Y-151946153D01*
G75*
G02*
X402472597Y-152991084I-1122334J77403D01*
G01*
G37*
G04 #@! TD.AperFunction*
X402590000Y-151288750D03*
D14*
X408575000Y-155218750D03*
X408575000Y-158518750D03*
D10*
X416600000Y-152368750D03*
G04 #@! TA.AperFunction,ComponentPad*
G36*
G01*
X414538688Y-154666100D02*
X414538683Y-154666095D01*
G75*
G02*
X414452655Y-153077433I751317J837345D01*
G01*
X415762657Y-151617433D01*
G75*
G02*
X417351319Y-151531405I837345J-751317D01*
G01*
X417351319Y-151531405D01*
G75*
G02*
X417437347Y-153120067I-751317J-837345D01*
G01*
X416127345Y-154580067D01*
G75*
G02*
X414538683Y-154666095I-837345J751317D01*
G01*
G37*
G04 #@! TD.AperFunction*
G04 #@! TA.AperFunction,ComponentPad*
G36*
G01*
X421523483Y-152991145D02*
X421522597Y-152991084D01*
G75*
G02*
X420477666Y-151791347I77403J1122334D01*
G01*
X420517666Y-151211347D01*
G75*
G02*
X421717403Y-150166416I1122334J-77403D01*
G01*
X421717403Y-150166416D01*
G75*
G02*
X422762334Y-151366153I-77403J-1122334D01*
G01*
X422722334Y-151946153D01*
G75*
G02*
X421522597Y-152991084I-1122334J77403D01*
G01*
G37*
G04 #@! TD.AperFunction*
X421640000Y-151288750D03*
D14*
X427625000Y-155218750D03*
X427625000Y-158518750D03*
D10*
X123706250Y-171418750D03*
G04 #@! TA.AperFunction,ComponentPad*
G36*
G01*
X121644938Y-173716100D02*
X121644933Y-173716095D01*
G75*
G02*
X121558905Y-172127433I751317J837345D01*
G01*
X122868907Y-170667433D01*
G75*
G02*
X124457569Y-170581405I837345J-751317D01*
G01*
X124457569Y-170581405D01*
G75*
G02*
X124543597Y-172170067I-751317J-837345D01*
G01*
X123233595Y-173630067D01*
G75*
G02*
X121644933Y-173716095I-837345J751317D01*
G01*
G37*
G04 #@! TD.AperFunction*
G04 #@! TA.AperFunction,ComponentPad*
G36*
G01*
X128629733Y-172041145D02*
X128628847Y-172041084D01*
G75*
G02*
X127583916Y-170841347I77403J1122334D01*
G01*
X127623916Y-170261347D01*
G75*
G02*
X128823653Y-169216416I1122334J-77403D01*
G01*
X128823653Y-169216416D01*
G75*
G02*
X129868584Y-170416153I-77403J-1122334D01*
G01*
X129828584Y-170996153D01*
G75*
G02*
X128628847Y-172041084I-1122334J77403D01*
G01*
G37*
G04 #@! TD.AperFunction*
X128746250Y-170338750D03*
D14*
X137112500Y-174268750D03*
X137112500Y-177568750D03*
D10*
X145137500Y-171418750D03*
G04 #@! TA.AperFunction,ComponentPad*
G36*
G01*
X143076188Y-173716100D02*
X143076183Y-173716095D01*
G75*
G02*
X142990155Y-172127433I751317J837345D01*
G01*
X144300157Y-170667433D01*
G75*
G02*
X145888819Y-170581405I837345J-751317D01*
G01*
X145888819Y-170581405D01*
G75*
G02*
X145974847Y-172170067I-751317J-837345D01*
G01*
X144664845Y-173630067D01*
G75*
G02*
X143076183Y-173716095I-837345J751317D01*
G01*
G37*
G04 #@! TD.AperFunction*
G04 #@! TA.AperFunction,ComponentPad*
G36*
G01*
X150060983Y-172041145D02*
X150060097Y-172041084D01*
G75*
G02*
X149015166Y-170841347I77403J1122334D01*
G01*
X149055166Y-170261347D01*
G75*
G02*
X150254903Y-169216416I1122334J-77403D01*
G01*
X150254903Y-169216416D01*
G75*
G02*
X151299834Y-170416153I-77403J-1122334D01*
G01*
X151259834Y-170996153D01*
G75*
G02*
X150060097Y-172041084I-1122334J77403D01*
G01*
G37*
G04 #@! TD.AperFunction*
X150177500Y-170338750D03*
D14*
X156162500Y-174268750D03*
X156162500Y-177568750D03*
D10*
X164187500Y-171418750D03*
G04 #@! TA.AperFunction,ComponentPad*
G36*
G01*
X162126188Y-173716100D02*
X162126183Y-173716095D01*
G75*
G02*
X162040155Y-172127433I751317J837345D01*
G01*
X163350157Y-170667433D01*
G75*
G02*
X164938819Y-170581405I837345J-751317D01*
G01*
X164938819Y-170581405D01*
G75*
G02*
X165024847Y-172170067I-751317J-837345D01*
G01*
X163714845Y-173630067D01*
G75*
G02*
X162126183Y-173716095I-837345J751317D01*
G01*
G37*
G04 #@! TD.AperFunction*
G04 #@! TA.AperFunction,ComponentPad*
G36*
G01*
X169110983Y-172041145D02*
X169110097Y-172041084D01*
G75*
G02*
X168065166Y-170841347I77403J1122334D01*
G01*
X168105166Y-170261347D01*
G75*
G02*
X169304903Y-169216416I1122334J-77403D01*
G01*
X169304903Y-169216416D01*
G75*
G02*
X170349834Y-170416153I-77403J-1122334D01*
G01*
X170309834Y-170996153D01*
G75*
G02*
X169110097Y-172041084I-1122334J77403D01*
G01*
G37*
G04 #@! TD.AperFunction*
X169227500Y-170338750D03*
D14*
X175212500Y-174268750D03*
X175212500Y-177568750D03*
D10*
X183237500Y-171418750D03*
G04 #@! TA.AperFunction,ComponentPad*
G36*
G01*
X181176188Y-173716100D02*
X181176183Y-173716095D01*
G75*
G02*
X181090155Y-172127433I751317J837345D01*
G01*
X182400157Y-170667433D01*
G75*
G02*
X183988819Y-170581405I837345J-751317D01*
G01*
X183988819Y-170581405D01*
G75*
G02*
X184074847Y-172170067I-751317J-837345D01*
G01*
X182764845Y-173630067D01*
G75*
G02*
X181176183Y-173716095I-837345J751317D01*
G01*
G37*
G04 #@! TD.AperFunction*
G04 #@! TA.AperFunction,ComponentPad*
G36*
G01*
X188160983Y-172041145D02*
X188160097Y-172041084D01*
G75*
G02*
X187115166Y-170841347I77403J1122334D01*
G01*
X187155166Y-170261347D01*
G75*
G02*
X188354903Y-169216416I1122334J-77403D01*
G01*
X188354903Y-169216416D01*
G75*
G02*
X189399834Y-170416153I-77403J-1122334D01*
G01*
X189359834Y-170996153D01*
G75*
G02*
X188160097Y-172041084I-1122334J77403D01*
G01*
G37*
G04 #@! TD.AperFunction*
X188277500Y-170338750D03*
D14*
X194262500Y-174268750D03*
X194262500Y-177568750D03*
D10*
X202287500Y-171418750D03*
G04 #@! TA.AperFunction,ComponentPad*
G36*
G01*
X200226188Y-173716100D02*
X200226183Y-173716095D01*
G75*
G02*
X200140155Y-172127433I751317J837345D01*
G01*
X201450157Y-170667433D01*
G75*
G02*
X203038819Y-170581405I837345J-751317D01*
G01*
X203038819Y-170581405D01*
G75*
G02*
X203124847Y-172170067I-751317J-837345D01*
G01*
X201814845Y-173630067D01*
G75*
G02*
X200226183Y-173716095I-837345J751317D01*
G01*
G37*
G04 #@! TD.AperFunction*
G04 #@! TA.AperFunction,ComponentPad*
G36*
G01*
X207210983Y-172041145D02*
X207210097Y-172041084D01*
G75*
G02*
X206165166Y-170841347I77403J1122334D01*
G01*
X206205166Y-170261347D01*
G75*
G02*
X207404903Y-169216416I1122334J-77403D01*
G01*
X207404903Y-169216416D01*
G75*
G02*
X208449834Y-170416153I-77403J-1122334D01*
G01*
X208409834Y-170996153D01*
G75*
G02*
X207210097Y-172041084I-1122334J77403D01*
G01*
G37*
G04 #@! TD.AperFunction*
X207327500Y-170338750D03*
D14*
X213312500Y-174268750D03*
X213312500Y-177568750D03*
D10*
X221337500Y-171418750D03*
G04 #@! TA.AperFunction,ComponentPad*
G36*
G01*
X219276188Y-173716100D02*
X219276183Y-173716095D01*
G75*
G02*
X219190155Y-172127433I751317J837345D01*
G01*
X220500157Y-170667433D01*
G75*
G02*
X222088819Y-170581405I837345J-751317D01*
G01*
X222088819Y-170581405D01*
G75*
G02*
X222174847Y-172170067I-751317J-837345D01*
G01*
X220864845Y-173630067D01*
G75*
G02*
X219276183Y-173716095I-837345J751317D01*
G01*
G37*
G04 #@! TD.AperFunction*
G04 #@! TA.AperFunction,ComponentPad*
G36*
G01*
X226260983Y-172041145D02*
X226260097Y-172041084D01*
G75*
G02*
X225215166Y-170841347I77403J1122334D01*
G01*
X225255166Y-170261347D01*
G75*
G02*
X226454903Y-169216416I1122334J-77403D01*
G01*
X226454903Y-169216416D01*
G75*
G02*
X227499834Y-170416153I-77403J-1122334D01*
G01*
X227459834Y-170996153D01*
G75*
G02*
X226260097Y-172041084I-1122334J77403D01*
G01*
G37*
G04 #@! TD.AperFunction*
X226377500Y-170338750D03*
D14*
X232362500Y-174268750D03*
X232362500Y-177568750D03*
D10*
X240387500Y-171418750D03*
G04 #@! TA.AperFunction,ComponentPad*
G36*
G01*
X238326188Y-173716100D02*
X238326183Y-173716095D01*
G75*
G02*
X238240155Y-172127433I751317J837345D01*
G01*
X239550157Y-170667433D01*
G75*
G02*
X241138819Y-170581405I837345J-751317D01*
G01*
X241138819Y-170581405D01*
G75*
G02*
X241224847Y-172170067I-751317J-837345D01*
G01*
X239914845Y-173630067D01*
G75*
G02*
X238326183Y-173716095I-837345J751317D01*
G01*
G37*
G04 #@! TD.AperFunction*
G04 #@! TA.AperFunction,ComponentPad*
G36*
G01*
X245310983Y-172041145D02*
X245310097Y-172041084D01*
G75*
G02*
X244265166Y-170841347I77403J1122334D01*
G01*
X244305166Y-170261347D01*
G75*
G02*
X245504903Y-169216416I1122334J-77403D01*
G01*
X245504903Y-169216416D01*
G75*
G02*
X246549834Y-170416153I-77403J-1122334D01*
G01*
X246509834Y-170996153D01*
G75*
G02*
X245310097Y-172041084I-1122334J77403D01*
G01*
G37*
G04 #@! TD.AperFunction*
X245427500Y-170338750D03*
D14*
X251412500Y-174268750D03*
X251412500Y-177568750D03*
D10*
X259437500Y-171418750D03*
G04 #@! TA.AperFunction,ComponentPad*
G36*
G01*
X257376188Y-173716100D02*
X257376183Y-173716095D01*
G75*
G02*
X257290155Y-172127433I751317J837345D01*
G01*
X258600157Y-170667433D01*
G75*
G02*
X260188819Y-170581405I837345J-751317D01*
G01*
X260188819Y-170581405D01*
G75*
G02*
X260274847Y-172170067I-751317J-837345D01*
G01*
X258964845Y-173630067D01*
G75*
G02*
X257376183Y-173716095I-837345J751317D01*
G01*
G37*
G04 #@! TD.AperFunction*
G04 #@! TA.AperFunction,ComponentPad*
G36*
G01*
X264360983Y-172041145D02*
X264360097Y-172041084D01*
G75*
G02*
X263315166Y-170841347I77403J1122334D01*
G01*
X263355166Y-170261347D01*
G75*
G02*
X264554903Y-169216416I1122334J-77403D01*
G01*
X264554903Y-169216416D01*
G75*
G02*
X265599834Y-170416153I-77403J-1122334D01*
G01*
X265559834Y-170996153D01*
G75*
G02*
X264360097Y-172041084I-1122334J77403D01*
G01*
G37*
G04 #@! TD.AperFunction*
X264477500Y-170338750D03*
D14*
X270462500Y-174268750D03*
X270462500Y-177568750D03*
D10*
X278487500Y-171418750D03*
G04 #@! TA.AperFunction,ComponentPad*
G36*
G01*
X276426188Y-173716100D02*
X276426183Y-173716095D01*
G75*
G02*
X276340155Y-172127433I751317J837345D01*
G01*
X277650157Y-170667433D01*
G75*
G02*
X279238819Y-170581405I837345J-751317D01*
G01*
X279238819Y-170581405D01*
G75*
G02*
X279324847Y-172170067I-751317J-837345D01*
G01*
X278014845Y-173630067D01*
G75*
G02*
X276426183Y-173716095I-837345J751317D01*
G01*
G37*
G04 #@! TD.AperFunction*
G04 #@! TA.AperFunction,ComponentPad*
G36*
G01*
X283410983Y-172041145D02*
X283410097Y-172041084D01*
G75*
G02*
X282365166Y-170841347I77403J1122334D01*
G01*
X282405166Y-170261347D01*
G75*
G02*
X283604903Y-169216416I1122334J-77403D01*
G01*
X283604903Y-169216416D01*
G75*
G02*
X284649834Y-170416153I-77403J-1122334D01*
G01*
X284609834Y-170996153D01*
G75*
G02*
X283410097Y-172041084I-1122334J77403D01*
G01*
G37*
G04 #@! TD.AperFunction*
X283527500Y-170338750D03*
D14*
X289512500Y-174268750D03*
X289512500Y-177568750D03*
D10*
X297537500Y-171418750D03*
G04 #@! TA.AperFunction,ComponentPad*
G36*
G01*
X295476188Y-173716100D02*
X295476183Y-173716095D01*
G75*
G02*
X295390155Y-172127433I751317J837345D01*
G01*
X296700157Y-170667433D01*
G75*
G02*
X298288819Y-170581405I837345J-751317D01*
G01*
X298288819Y-170581405D01*
G75*
G02*
X298374847Y-172170067I-751317J-837345D01*
G01*
X297064845Y-173630067D01*
G75*
G02*
X295476183Y-173716095I-837345J751317D01*
G01*
G37*
G04 #@! TD.AperFunction*
G04 #@! TA.AperFunction,ComponentPad*
G36*
G01*
X302460983Y-172041145D02*
X302460097Y-172041084D01*
G75*
G02*
X301415166Y-170841347I77403J1122334D01*
G01*
X301455166Y-170261347D01*
G75*
G02*
X302654903Y-169216416I1122334J-77403D01*
G01*
X302654903Y-169216416D01*
G75*
G02*
X303699834Y-170416153I-77403J-1122334D01*
G01*
X303659834Y-170996153D01*
G75*
G02*
X302460097Y-172041084I-1122334J77403D01*
G01*
G37*
G04 #@! TD.AperFunction*
X302577500Y-170338750D03*
D14*
X308562500Y-174268750D03*
X308562500Y-177568750D03*
D10*
X323731250Y-171418750D03*
G04 #@! TA.AperFunction,ComponentPad*
G36*
G01*
X321669938Y-173716100D02*
X321669933Y-173716095D01*
G75*
G02*
X321583905Y-172127433I751317J837345D01*
G01*
X322893907Y-170667433D01*
G75*
G02*
X324482569Y-170581405I837345J-751317D01*
G01*
X324482569Y-170581405D01*
G75*
G02*
X324568597Y-172170067I-751317J-837345D01*
G01*
X323258595Y-173630067D01*
G75*
G02*
X321669933Y-173716095I-837345J751317D01*
G01*
G37*
G04 #@! TD.AperFunction*
G04 #@! TA.AperFunction,ComponentPad*
G36*
G01*
X328654733Y-172041145D02*
X328653847Y-172041084D01*
G75*
G02*
X327608916Y-170841347I77403J1122334D01*
G01*
X327648916Y-170261347D01*
G75*
G02*
X328848653Y-169216416I1122334J-77403D01*
G01*
X328848653Y-169216416D01*
G75*
G02*
X329893584Y-170416153I-77403J-1122334D01*
G01*
X329853584Y-170996153D01*
G75*
G02*
X328653847Y-172041084I-1122334J77403D01*
G01*
G37*
G04 #@! TD.AperFunction*
X328771250Y-170338750D03*
D14*
X341900000Y-174268750D03*
X341900000Y-177568750D03*
D10*
X128468750Y-190468750D03*
G04 #@! TA.AperFunction,ComponentPad*
G36*
G01*
X126407438Y-192766100D02*
X126407433Y-192766095D01*
G75*
G02*
X126321405Y-191177433I751317J837345D01*
G01*
X127631407Y-189717433D01*
G75*
G02*
X129220069Y-189631405I837345J-751317D01*
G01*
X129220069Y-189631405D01*
G75*
G02*
X129306097Y-191220067I-751317J-837345D01*
G01*
X127996095Y-192680067D01*
G75*
G02*
X126407433Y-192766095I-837345J751317D01*
G01*
G37*
G04 #@! TD.AperFunction*
G04 #@! TA.AperFunction,ComponentPad*
G36*
G01*
X133392233Y-191091145D02*
X133391347Y-191091084D01*
G75*
G02*
X132346416Y-189891347I77403J1122334D01*
G01*
X132386416Y-189311347D01*
G75*
G02*
X133586153Y-188266416I1122334J-77403D01*
G01*
X133586153Y-188266416D01*
G75*
G02*
X134631084Y-189466153I-77403J-1122334D01*
G01*
X134591084Y-190046153D01*
G75*
G02*
X133391347Y-191091084I-1122334J77403D01*
G01*
G37*
G04 #@! TD.AperFunction*
X133508750Y-189388750D03*
D14*
X146637500Y-193318750D03*
X146637500Y-196618750D03*
D10*
X154662500Y-190468750D03*
G04 #@! TA.AperFunction,ComponentPad*
G36*
G01*
X152601188Y-192766100D02*
X152601183Y-192766095D01*
G75*
G02*
X152515155Y-191177433I751317J837345D01*
G01*
X153825157Y-189717433D01*
G75*
G02*
X155413819Y-189631405I837345J-751317D01*
G01*
X155413819Y-189631405D01*
G75*
G02*
X155499847Y-191220067I-751317J-837345D01*
G01*
X154189845Y-192680067D01*
G75*
G02*
X152601183Y-192766095I-837345J751317D01*
G01*
G37*
G04 #@! TD.AperFunction*
G04 #@! TA.AperFunction,ComponentPad*
G36*
G01*
X159585983Y-191091145D02*
X159585097Y-191091084D01*
G75*
G02*
X158540166Y-189891347I77403J1122334D01*
G01*
X158580166Y-189311347D01*
G75*
G02*
X159779903Y-188266416I1122334J-77403D01*
G01*
X159779903Y-188266416D01*
G75*
G02*
X160824834Y-189466153I-77403J-1122334D01*
G01*
X160784834Y-190046153D01*
G75*
G02*
X159585097Y-191091084I-1122334J77403D01*
G01*
G37*
G04 #@! TD.AperFunction*
X159702500Y-189388750D03*
D14*
X165687500Y-193318750D03*
X165687500Y-196618750D03*
D10*
X173712500Y-190468750D03*
G04 #@! TA.AperFunction,ComponentPad*
G36*
G01*
X171651188Y-192766100D02*
X171651183Y-192766095D01*
G75*
G02*
X171565155Y-191177433I751317J837345D01*
G01*
X172875157Y-189717433D01*
G75*
G02*
X174463819Y-189631405I837345J-751317D01*
G01*
X174463819Y-189631405D01*
G75*
G02*
X174549847Y-191220067I-751317J-837345D01*
G01*
X173239845Y-192680067D01*
G75*
G02*
X171651183Y-192766095I-837345J751317D01*
G01*
G37*
G04 #@! TD.AperFunction*
G04 #@! TA.AperFunction,ComponentPad*
G36*
G01*
X178635983Y-191091145D02*
X178635097Y-191091084D01*
G75*
G02*
X177590166Y-189891347I77403J1122334D01*
G01*
X177630166Y-189311347D01*
G75*
G02*
X178829903Y-188266416I1122334J-77403D01*
G01*
X178829903Y-188266416D01*
G75*
G02*
X179874834Y-189466153I-77403J-1122334D01*
G01*
X179834834Y-190046153D01*
G75*
G02*
X178635097Y-191091084I-1122334J77403D01*
G01*
G37*
G04 #@! TD.AperFunction*
X178752500Y-189388750D03*
D14*
X184737500Y-193318750D03*
X184737500Y-196618750D03*
D10*
X192762500Y-190468750D03*
G04 #@! TA.AperFunction,ComponentPad*
G36*
G01*
X190701188Y-192766100D02*
X190701183Y-192766095D01*
G75*
G02*
X190615155Y-191177433I751317J837345D01*
G01*
X191925157Y-189717433D01*
G75*
G02*
X193513819Y-189631405I837345J-751317D01*
G01*
X193513819Y-189631405D01*
G75*
G02*
X193599847Y-191220067I-751317J-837345D01*
G01*
X192289845Y-192680067D01*
G75*
G02*
X190701183Y-192766095I-837345J751317D01*
G01*
G37*
G04 #@! TD.AperFunction*
G04 #@! TA.AperFunction,ComponentPad*
G36*
G01*
X197685983Y-191091145D02*
X197685097Y-191091084D01*
G75*
G02*
X196640166Y-189891347I77403J1122334D01*
G01*
X196680166Y-189311347D01*
G75*
G02*
X197879903Y-188266416I1122334J-77403D01*
G01*
X197879903Y-188266416D01*
G75*
G02*
X198924834Y-189466153I-77403J-1122334D01*
G01*
X198884834Y-190046153D01*
G75*
G02*
X197685097Y-191091084I-1122334J77403D01*
G01*
G37*
G04 #@! TD.AperFunction*
X197802500Y-189388750D03*
D14*
X203787500Y-193318750D03*
X203787500Y-196618750D03*
D10*
X211812500Y-190468750D03*
G04 #@! TA.AperFunction,ComponentPad*
G36*
G01*
X209751188Y-192766100D02*
X209751183Y-192766095D01*
G75*
G02*
X209665155Y-191177433I751317J837345D01*
G01*
X210975157Y-189717433D01*
G75*
G02*
X212563819Y-189631405I837345J-751317D01*
G01*
X212563819Y-189631405D01*
G75*
G02*
X212649847Y-191220067I-751317J-837345D01*
G01*
X211339845Y-192680067D01*
G75*
G02*
X209751183Y-192766095I-837345J751317D01*
G01*
G37*
G04 #@! TD.AperFunction*
G04 #@! TA.AperFunction,ComponentPad*
G36*
G01*
X216735983Y-191091145D02*
X216735097Y-191091084D01*
G75*
G02*
X215690166Y-189891347I77403J1122334D01*
G01*
X215730166Y-189311347D01*
G75*
G02*
X216929903Y-188266416I1122334J-77403D01*
G01*
X216929903Y-188266416D01*
G75*
G02*
X217974834Y-189466153I-77403J-1122334D01*
G01*
X217934834Y-190046153D01*
G75*
G02*
X216735097Y-191091084I-1122334J77403D01*
G01*
G37*
G04 #@! TD.AperFunction*
X216852500Y-189388750D03*
D14*
X222837500Y-193318750D03*
X222837500Y-196618750D03*
D10*
X230862500Y-190468750D03*
G04 #@! TA.AperFunction,ComponentPad*
G36*
G01*
X228801188Y-192766100D02*
X228801183Y-192766095D01*
G75*
G02*
X228715155Y-191177433I751317J837345D01*
G01*
X230025157Y-189717433D01*
G75*
G02*
X231613819Y-189631405I837345J-751317D01*
G01*
X231613819Y-189631405D01*
G75*
G02*
X231699847Y-191220067I-751317J-837345D01*
G01*
X230389845Y-192680067D01*
G75*
G02*
X228801183Y-192766095I-837345J751317D01*
G01*
G37*
G04 #@! TD.AperFunction*
G04 #@! TA.AperFunction,ComponentPad*
G36*
G01*
X235785983Y-191091145D02*
X235785097Y-191091084D01*
G75*
G02*
X234740166Y-189891347I77403J1122334D01*
G01*
X234780166Y-189311347D01*
G75*
G02*
X235979903Y-188266416I1122334J-77403D01*
G01*
X235979903Y-188266416D01*
G75*
G02*
X237024834Y-189466153I-77403J-1122334D01*
G01*
X236984834Y-190046153D01*
G75*
G02*
X235785097Y-191091084I-1122334J77403D01*
G01*
G37*
G04 #@! TD.AperFunction*
X235902500Y-189388750D03*
D14*
X241887500Y-193318750D03*
X241887500Y-196618750D03*
D10*
X249912500Y-190468750D03*
G04 #@! TA.AperFunction,ComponentPad*
G36*
G01*
X247851188Y-192766100D02*
X247851183Y-192766095D01*
G75*
G02*
X247765155Y-191177433I751317J837345D01*
G01*
X249075157Y-189717433D01*
G75*
G02*
X250663819Y-189631405I837345J-751317D01*
G01*
X250663819Y-189631405D01*
G75*
G02*
X250749847Y-191220067I-751317J-837345D01*
G01*
X249439845Y-192680067D01*
G75*
G02*
X247851183Y-192766095I-837345J751317D01*
G01*
G37*
G04 #@! TD.AperFunction*
G04 #@! TA.AperFunction,ComponentPad*
G36*
G01*
X254835983Y-191091145D02*
X254835097Y-191091084D01*
G75*
G02*
X253790166Y-189891347I77403J1122334D01*
G01*
X253830166Y-189311347D01*
G75*
G02*
X255029903Y-188266416I1122334J-77403D01*
G01*
X255029903Y-188266416D01*
G75*
G02*
X256074834Y-189466153I-77403J-1122334D01*
G01*
X256034834Y-190046153D01*
G75*
G02*
X254835097Y-191091084I-1122334J77403D01*
G01*
G37*
G04 #@! TD.AperFunction*
X254952500Y-189388750D03*
D14*
X260937500Y-193318750D03*
X260937500Y-196618750D03*
D10*
X268962500Y-190468750D03*
G04 #@! TA.AperFunction,ComponentPad*
G36*
G01*
X266901188Y-192766100D02*
X266901183Y-192766095D01*
G75*
G02*
X266815155Y-191177433I751317J837345D01*
G01*
X268125157Y-189717433D01*
G75*
G02*
X269713819Y-189631405I837345J-751317D01*
G01*
X269713819Y-189631405D01*
G75*
G02*
X269799847Y-191220067I-751317J-837345D01*
G01*
X268489845Y-192680067D01*
G75*
G02*
X266901183Y-192766095I-837345J751317D01*
G01*
G37*
G04 #@! TD.AperFunction*
G04 #@! TA.AperFunction,ComponentPad*
G36*
G01*
X273885983Y-191091145D02*
X273885097Y-191091084D01*
G75*
G02*
X272840166Y-189891347I77403J1122334D01*
G01*
X272880166Y-189311347D01*
G75*
G02*
X274079903Y-188266416I1122334J-77403D01*
G01*
X274079903Y-188266416D01*
G75*
G02*
X275124834Y-189466153I-77403J-1122334D01*
G01*
X275084834Y-190046153D01*
G75*
G02*
X273885097Y-191091084I-1122334J77403D01*
G01*
G37*
G04 #@! TD.AperFunction*
X274002500Y-189388750D03*
D14*
X279987500Y-193318750D03*
X279987500Y-196618750D03*
D10*
X288012500Y-190468750D03*
G04 #@! TA.AperFunction,ComponentPad*
G36*
G01*
X285951188Y-192766100D02*
X285951183Y-192766095D01*
G75*
G02*
X285865155Y-191177433I751317J837345D01*
G01*
X287175157Y-189717433D01*
G75*
G02*
X288763819Y-189631405I837345J-751317D01*
G01*
X288763819Y-189631405D01*
G75*
G02*
X288849847Y-191220067I-751317J-837345D01*
G01*
X287539845Y-192680067D01*
G75*
G02*
X285951183Y-192766095I-837345J751317D01*
G01*
G37*
G04 #@! TD.AperFunction*
G04 #@! TA.AperFunction,ComponentPad*
G36*
G01*
X292935983Y-191091145D02*
X292935097Y-191091084D01*
G75*
G02*
X291890166Y-189891347I77403J1122334D01*
G01*
X291930166Y-189311347D01*
G75*
G02*
X293129903Y-188266416I1122334J-77403D01*
G01*
X293129903Y-188266416D01*
G75*
G02*
X294174834Y-189466153I-77403J-1122334D01*
G01*
X294134834Y-190046153D01*
G75*
G02*
X292935097Y-191091084I-1122334J77403D01*
G01*
G37*
G04 #@! TD.AperFunction*
X293052500Y-189388750D03*
D14*
X299037500Y-193318750D03*
X299037500Y-196618750D03*
D10*
X307062500Y-190468750D03*
G04 #@! TA.AperFunction,ComponentPad*
G36*
G01*
X305001188Y-192766100D02*
X305001183Y-192766095D01*
G75*
G02*
X304915155Y-191177433I751317J837345D01*
G01*
X306225157Y-189717433D01*
G75*
G02*
X307813819Y-189631405I837345J-751317D01*
G01*
X307813819Y-189631405D01*
G75*
G02*
X307899847Y-191220067I-751317J-837345D01*
G01*
X306589845Y-192680067D01*
G75*
G02*
X305001183Y-192766095I-837345J751317D01*
G01*
G37*
G04 #@! TD.AperFunction*
G04 #@! TA.AperFunction,ComponentPad*
G36*
G01*
X311985983Y-191091145D02*
X311985097Y-191091084D01*
G75*
G02*
X310940166Y-189891347I77403J1122334D01*
G01*
X310980166Y-189311347D01*
G75*
G02*
X312179903Y-188266416I1122334J-77403D01*
G01*
X312179903Y-188266416D01*
G75*
G02*
X313224834Y-189466153I-77403J-1122334D01*
G01*
X313184834Y-190046153D01*
G75*
G02*
X311985097Y-191091084I-1122334J77403D01*
G01*
G37*
G04 #@! TD.AperFunction*
X312102500Y-189388750D03*
D14*
X318087500Y-193318750D03*
X318087500Y-196618750D03*
D10*
X328493750Y-190468750D03*
G04 #@! TA.AperFunction,ComponentPad*
G36*
G01*
X326432438Y-192766100D02*
X326432433Y-192766095D01*
G75*
G02*
X326346405Y-191177433I751317J837345D01*
G01*
X327656407Y-189717433D01*
G75*
G02*
X329245069Y-189631405I837345J-751317D01*
G01*
X329245069Y-189631405D01*
G75*
G02*
X329331097Y-191220067I-751317J-837345D01*
G01*
X328021095Y-192680067D01*
G75*
G02*
X326432433Y-192766095I-837345J751317D01*
G01*
G37*
G04 #@! TD.AperFunction*
G04 #@! TA.AperFunction,ComponentPad*
G36*
G01*
X333417233Y-191091145D02*
X333416347Y-191091084D01*
G75*
G02*
X332371416Y-189891347I77403J1122334D01*
G01*
X332411416Y-189311347D01*
G75*
G02*
X333611153Y-188266416I1122334J-77403D01*
G01*
X333611153Y-188266416D01*
G75*
G02*
X334656084Y-189466153I-77403J-1122334D01*
G01*
X334616084Y-190046153D01*
G75*
G02*
X333416347Y-191091084I-1122334J77403D01*
G01*
G37*
G04 #@! TD.AperFunction*
X333533750Y-189388750D03*
D14*
X341900000Y-193318750D03*
X341900000Y-196618750D03*
D10*
X397550000Y-190468750D03*
G04 #@! TA.AperFunction,ComponentPad*
G36*
G01*
X395488688Y-192766100D02*
X395488683Y-192766095D01*
G75*
G02*
X395402655Y-191177433I751317J837345D01*
G01*
X396712657Y-189717433D01*
G75*
G02*
X398301319Y-189631405I837345J-751317D01*
G01*
X398301319Y-189631405D01*
G75*
G02*
X398387347Y-191220067I-751317J-837345D01*
G01*
X397077345Y-192680067D01*
G75*
G02*
X395488683Y-192766095I-837345J751317D01*
G01*
G37*
G04 #@! TD.AperFunction*
G04 #@! TA.AperFunction,ComponentPad*
G36*
G01*
X402473483Y-191091145D02*
X402472597Y-191091084D01*
G75*
G02*
X401427666Y-189891347I77403J1122334D01*
G01*
X401467666Y-189311347D01*
G75*
G02*
X402667403Y-188266416I1122334J-77403D01*
G01*
X402667403Y-188266416D01*
G75*
G02*
X403712334Y-189466153I-77403J-1122334D01*
G01*
X403672334Y-190046153D01*
G75*
G02*
X402472597Y-191091084I-1122334J77403D01*
G01*
G37*
G04 #@! TD.AperFunction*
X402590000Y-189388750D03*
D14*
X408575000Y-193318750D03*
X408575000Y-196618750D03*
X180181250Y-212662500D03*
X180181250Y-215962500D03*
D10*
X140375000Y-209518750D03*
G04 #@! TA.AperFunction,ComponentPad*
G36*
G01*
X138313688Y-211816100D02*
X138313683Y-211816095D01*
G75*
G02*
X138227655Y-210227433I751317J837345D01*
G01*
X139537657Y-208767433D01*
G75*
G02*
X141126319Y-208681405I837345J-751317D01*
G01*
X141126319Y-208681405D01*
G75*
G02*
X141212347Y-210270067I-751317J-837345D01*
G01*
X139902345Y-211730067D01*
G75*
G02*
X138313683Y-211816095I-837345J751317D01*
G01*
G37*
G04 #@! TD.AperFunction*
G04 #@! TA.AperFunction,ComponentPad*
G36*
G01*
X145298483Y-210141145D02*
X145297597Y-210141084D01*
G75*
G02*
X144252666Y-208941347I77403J1122334D01*
G01*
X144292666Y-208361347D01*
G75*
G02*
X145492403Y-207316416I1122334J-77403D01*
G01*
X145492403Y-207316416D01*
G75*
G02*
X146537334Y-208516153I-77403J-1122334D01*
G01*
X146497334Y-209096153D01*
G75*
G02*
X145297597Y-210141084I-1122334J77403D01*
G01*
G37*
G04 #@! TD.AperFunction*
X145415000Y-208438750D03*
D14*
X150812500Y-211868750D03*
X150812500Y-215168750D03*
D10*
X199906250Y-209518750D03*
G04 #@! TA.AperFunction,ComponentPad*
G36*
G01*
X197844938Y-211816100D02*
X197844933Y-211816095D01*
G75*
G02*
X197758905Y-210227433I751317J837345D01*
G01*
X199068907Y-208767433D01*
G75*
G02*
X200657569Y-208681405I837345J-751317D01*
G01*
X200657569Y-208681405D01*
G75*
G02*
X200743597Y-210270067I-751317J-837345D01*
G01*
X199433595Y-211730067D01*
G75*
G02*
X197844933Y-211816095I-837345J751317D01*
G01*
G37*
G04 #@! TD.AperFunction*
G04 #@! TA.AperFunction,ComponentPad*
G36*
G01*
X204829733Y-210141145D02*
X204828847Y-210141084D01*
G75*
G02*
X203783916Y-208941347I77403J1122334D01*
G01*
X203823916Y-208361347D01*
G75*
G02*
X205023653Y-207316416I1122334J-77403D01*
G01*
X205023653Y-207316416D01*
G75*
G02*
X206068584Y-208516153I-77403J-1122334D01*
G01*
X206028584Y-209096153D01*
G75*
G02*
X204828847Y-210141084I-1122334J77403D01*
G01*
G37*
G04 #@! TD.AperFunction*
X204946250Y-208438750D03*
D14*
X222837500Y-212368750D03*
X222837500Y-215668750D03*
D10*
X247531250Y-209518750D03*
G04 #@! TA.AperFunction,ComponentPad*
G36*
G01*
X245469938Y-211816100D02*
X245469933Y-211816095D01*
G75*
G02*
X245383905Y-210227433I751317J837345D01*
G01*
X246693907Y-208767433D01*
G75*
G02*
X248282569Y-208681405I837345J-751317D01*
G01*
X248282569Y-208681405D01*
G75*
G02*
X248368597Y-210270067I-751317J-837345D01*
G01*
X247058595Y-211730067D01*
G75*
G02*
X245469933Y-211816095I-837345J751317D01*
G01*
G37*
G04 #@! TD.AperFunction*
G04 #@! TA.AperFunction,ComponentPad*
G36*
G01*
X252454733Y-210141145D02*
X252453847Y-210141084D01*
G75*
G02*
X251408916Y-208941347I77403J1122334D01*
G01*
X251448916Y-208361347D01*
G75*
G02*
X252648653Y-207316416I1122334J-77403D01*
G01*
X252648653Y-207316416D01*
G75*
G02*
X253693584Y-208516153I-77403J-1122334D01*
G01*
X253653584Y-209096153D01*
G75*
G02*
X252453847Y-210141084I-1122334J77403D01*
G01*
G37*
G04 #@! TD.AperFunction*
X252571250Y-208438750D03*
D14*
X275225000Y-212368750D03*
X275225000Y-215668750D03*
X322707000Y-212218000D03*
X322707000Y-215518000D03*
D10*
X288012500Y-209518750D03*
G04 #@! TA.AperFunction,ComponentPad*
G36*
G01*
X285951188Y-211816100D02*
X285951183Y-211816095D01*
G75*
G02*
X285865155Y-210227433I751317J837345D01*
G01*
X287175157Y-208767433D01*
G75*
G02*
X288763819Y-208681405I837345J-751317D01*
G01*
X288763819Y-208681405D01*
G75*
G02*
X288849847Y-210270067I-751317J-837345D01*
G01*
X287539845Y-211730067D01*
G75*
G02*
X285951183Y-211816095I-837345J751317D01*
G01*
G37*
G04 #@! TD.AperFunction*
G04 #@! TA.AperFunction,ComponentPad*
G36*
G01*
X292935983Y-210141145D02*
X292935097Y-210141084D01*
G75*
G02*
X291890166Y-208941347I77403J1122334D01*
G01*
X291930166Y-208361347D01*
G75*
G02*
X293129903Y-207316416I1122334J-77403D01*
G01*
X293129903Y-207316416D01*
G75*
G02*
X294174834Y-208516153I-77403J-1122334D01*
G01*
X294134834Y-209096153D01*
G75*
G02*
X292935097Y-210141084I-1122334J77403D01*
G01*
G37*
G04 #@! TD.AperFunction*
X293052500Y-208438750D03*
D14*
X300831250Y-212345000D03*
X300831250Y-215645000D03*
D10*
X378500000Y-209518750D03*
G04 #@! TA.AperFunction,ComponentPad*
G36*
G01*
X376438688Y-211816100D02*
X376438683Y-211816095D01*
G75*
G02*
X376352655Y-210227433I751317J837345D01*
G01*
X377662657Y-208767433D01*
G75*
G02*
X379251319Y-208681405I837345J-751317D01*
G01*
X379251319Y-208681405D01*
G75*
G02*
X379337347Y-210270067I-751317J-837345D01*
G01*
X378027345Y-211730067D01*
G75*
G02*
X376438683Y-211816095I-837345J751317D01*
G01*
G37*
G04 #@! TD.AperFunction*
G04 #@! TA.AperFunction,ComponentPad*
G36*
G01*
X383423483Y-210141145D02*
X383422597Y-210141084D01*
G75*
G02*
X382377666Y-208941347I77403J1122334D01*
G01*
X382417666Y-208361347D01*
G75*
G02*
X383617403Y-207316416I1122334J-77403D01*
G01*
X383617403Y-207316416D01*
G75*
G02*
X384662334Y-208516153I-77403J-1122334D01*
G01*
X384622334Y-209096153D01*
G75*
G02*
X383422597Y-210141084I-1122334J77403D01*
G01*
G37*
G04 #@! TD.AperFunction*
X383540000Y-208438750D03*
D14*
X389525000Y-212368750D03*
X389525000Y-215668750D03*
D10*
X397550000Y-209518750D03*
G04 #@! TA.AperFunction,ComponentPad*
G36*
G01*
X395488688Y-211816100D02*
X395488683Y-211816095D01*
G75*
G02*
X395402655Y-210227433I751317J837345D01*
G01*
X396712657Y-208767433D01*
G75*
G02*
X398301319Y-208681405I837345J-751317D01*
G01*
X398301319Y-208681405D01*
G75*
G02*
X398387347Y-210270067I-751317J-837345D01*
G01*
X397077345Y-211730067D01*
G75*
G02*
X395488683Y-211816095I-837345J751317D01*
G01*
G37*
G04 #@! TD.AperFunction*
G04 #@! TA.AperFunction,ComponentPad*
G36*
G01*
X402473483Y-210141145D02*
X402472597Y-210141084D01*
G75*
G02*
X401427666Y-208941347I77403J1122334D01*
G01*
X401467666Y-208361347D01*
G75*
G02*
X402667403Y-207316416I1122334J-77403D01*
G01*
X402667403Y-207316416D01*
G75*
G02*
X403712334Y-208516153I-77403J-1122334D01*
G01*
X403672334Y-209096153D01*
G75*
G02*
X402472597Y-210141084I-1122334J77403D01*
G01*
G37*
G04 #@! TD.AperFunction*
X402590000Y-208438750D03*
D14*
X408575000Y-212368750D03*
X408575000Y-215668750D03*
D10*
X416600000Y-209518750D03*
G04 #@! TA.AperFunction,ComponentPad*
G36*
G01*
X414538688Y-211816100D02*
X414538683Y-211816095D01*
G75*
G02*
X414452655Y-210227433I751317J837345D01*
G01*
X415762657Y-208767433D01*
G75*
G02*
X417351319Y-208681405I837345J-751317D01*
G01*
X417351319Y-208681405D01*
G75*
G02*
X417437347Y-210270067I-751317J-837345D01*
G01*
X416127345Y-211730067D01*
G75*
G02*
X414538683Y-211816095I-837345J751317D01*
G01*
G37*
G04 #@! TD.AperFunction*
G04 #@! TA.AperFunction,ComponentPad*
G36*
G01*
X421523483Y-210141145D02*
X421522597Y-210141084D01*
G75*
G02*
X420477666Y-208941347I77403J1122334D01*
G01*
X420517666Y-208361347D01*
G75*
G02*
X421717403Y-207316416I1122334J-77403D01*
G01*
X421717403Y-207316416D01*
G75*
G02*
X422762334Y-208516153I-77403J-1122334D01*
G01*
X422722334Y-209096153D01*
G75*
G02*
X421522597Y-210141084I-1122334J77403D01*
G01*
G37*
G04 #@! TD.AperFunction*
X421640000Y-208438750D03*
D14*
X427625000Y-212368750D03*
X427625000Y-215668750D03*
D15*
X363855000Y-152273000D03*
X329565000Y-148463000D03*
X363607067Y-150996933D03*
X389890000Y-150563749D03*
X341884000Y-159639000D03*
X363982000Y-162306000D03*
X428625000Y-162179000D03*
X410337000Y-157861000D03*
X361272028Y-172359528D03*
X362743750Y-170656250D03*
D16*
X422093000Y-197283000D02*
X422093000Y-191083000D01*
D17*
X366712500Y-147459700D02*
X365048800Y-145796000D01*
X421481250Y-147637500D02*
X366712500Y-147637500D01*
X427037500Y-153193750D02*
X421481250Y-147637500D01*
X429356869Y-153193750D02*
X427037500Y-153193750D01*
X430212500Y-188056869D02*
X430212500Y-154049381D01*
X429356869Y-188912500D02*
X430212500Y-188056869D01*
X422275000Y-188912500D02*
X429356869Y-188912500D01*
X366712500Y-147637500D02*
X366712500Y-147459700D01*
X422093000Y-189094500D02*
X422275000Y-188912500D01*
X430212500Y-154049381D02*
X429356869Y-153193750D01*
X422093000Y-191083000D02*
X422093000Y-189094500D01*
X349808800Y-150876000D02*
X349808800Y-148336000D01*
X362508800Y-148336000D02*
X365048800Y-145796000D01*
X349808800Y-148336000D02*
X362508800Y-148336000D01*
D16*
X120015000Y-153828750D02*
X120015000Y-143033750D01*
X120015000Y-143033750D02*
X120173750Y-142875000D01*
X349427800Y-142875000D02*
X349808800Y-143256000D01*
X120173750Y-142875000D02*
X349427800Y-142875000D01*
X139065000Y-153828750D02*
X139065000Y-144303750D01*
X139065000Y-144303750D02*
X139700000Y-143668750D01*
X347681550Y-143668750D02*
X349808800Y-145796000D01*
X139700000Y-143668750D02*
X347681550Y-143668750D01*
X347853000Y-151460200D02*
X349808800Y-153416000D01*
X340868000Y-147066000D02*
X343027000Y-149225000D01*
X340868000Y-144526000D02*
X340868000Y-147066000D01*
X340464760Y-144122760D02*
X340868000Y-144526000D01*
X347726000Y-149225000D02*
X347853000Y-149352000D01*
X343027000Y-149225000D02*
X347726000Y-149225000D01*
X158137240Y-144122760D02*
X340464760Y-144122760D01*
X158115000Y-144145000D02*
X158137240Y-144122760D01*
X347853000Y-149352000D02*
X347853000Y-151460200D01*
X158115000Y-153828750D02*
X158115000Y-144145000D01*
X348284800Y-154432000D02*
X349808800Y-155956000D01*
X347472000Y-154432000D02*
X348284800Y-154432000D01*
X347398990Y-149679010D02*
X347398990Y-154358990D01*
X342838943Y-149679010D02*
X347398990Y-149679010D01*
X340413991Y-147254057D02*
X342838943Y-149679010D01*
X347398990Y-154358990D02*
X347472000Y-154432000D01*
X340413990Y-144833990D02*
X340413991Y-147254057D01*
X340156770Y-144576770D02*
X340413990Y-144833990D01*
X177165000Y-144576770D02*
X340156770Y-144576770D01*
X177165000Y-153828750D02*
X177165000Y-144576770D01*
X348096744Y-156783944D02*
X349808800Y-158496000D01*
X347283943Y-154886010D02*
X348096744Y-154886010D01*
X346944980Y-154547047D02*
X347283943Y-154886010D01*
X346944980Y-150133020D02*
X346944980Y-154547047D01*
X342650886Y-150133020D02*
X346944980Y-150133020D01*
X339852000Y-147334132D02*
X342650886Y-150133020D01*
X339852000Y-145030780D02*
X339852000Y-147334132D01*
X348096744Y-154886010D02*
X348096744Y-156783944D01*
X196215000Y-145030780D02*
X339852000Y-145030780D01*
X196215000Y-153828750D02*
X196215000Y-145030780D01*
X348681799Y-159908999D02*
X349808800Y-161036000D01*
X347642734Y-156972001D02*
X348681799Y-158011066D01*
X347642734Y-155340020D02*
X347642734Y-156972001D01*
X347095886Y-155340020D02*
X347642734Y-155340020D01*
X346490970Y-154735104D02*
X347095886Y-155340020D01*
X346490970Y-150587030D02*
X346490970Y-154735104D01*
X348681799Y-158011066D02*
X348681799Y-159908999D01*
X339397990Y-147522189D02*
X342462829Y-150587030D01*
X342462829Y-150587030D02*
X346490970Y-150587030D01*
X339397990Y-145484790D02*
X339397990Y-147522189D01*
X215265000Y-145484790D02*
X339397990Y-145484790D01*
X215265000Y-153828750D02*
X215265000Y-145484790D01*
X348227789Y-161994989D02*
X349808800Y-163576000D01*
X348227789Y-158235789D02*
X348227789Y-161994989D01*
X234315000Y-153828750D02*
X234315000Y-145938800D01*
X234315000Y-145938800D02*
X338943980Y-145938800D01*
X338943980Y-145938800D02*
X338943980Y-147710246D01*
X338943980Y-147710246D02*
X342274772Y-151041040D01*
X342274772Y-151041040D02*
X346036960Y-151041040D01*
X346036960Y-151041040D02*
X346036960Y-154923161D01*
X348119122Y-158115000D02*
X348119122Y-158127122D01*
X346036960Y-154923161D02*
X346907829Y-155794030D01*
X346907829Y-155794030D02*
X347183030Y-155794030D01*
X347183030Y-155794030D02*
X347188724Y-155799724D01*
X347188724Y-155799724D02*
X347188724Y-157184602D01*
X347188724Y-157184602D02*
X348119122Y-158115000D01*
X348119122Y-158127122D02*
X348227789Y-158235789D01*
X253365000Y-153828750D02*
X253365000Y-146392810D01*
X253365000Y-146392810D02*
X338489970Y-146392810D01*
X338489970Y-147898303D02*
X342102667Y-151511000D01*
X338489970Y-146392810D02*
X338489970Y-147898303D01*
X342102667Y-151511000D02*
X345582950Y-151511000D01*
X345582950Y-155111218D02*
X346734714Y-156262982D01*
X345582950Y-151511000D02*
X345582950Y-155111218D01*
X346734714Y-157504714D02*
X347726000Y-158496000D01*
X346734714Y-156262982D02*
X346734714Y-157504714D01*
X349808800Y-165243962D02*
X349808800Y-166116000D01*
X347726000Y-163161162D02*
X349808800Y-165243962D01*
X347726000Y-158496000D02*
X347726000Y-163161162D01*
X347083934Y-165931134D02*
X349808800Y-168656000D01*
X347083934Y-158496000D02*
X347083934Y-165931134D01*
X346166666Y-157648209D02*
X347014457Y-158496000D01*
X346166666Y-156337000D02*
X346166666Y-157648209D01*
X346136037Y-156337000D02*
X346166666Y-156337000D01*
X345128940Y-151965010D02*
X345128940Y-155329903D01*
X338035960Y-148086360D02*
X341914610Y-151965010D01*
X338035960Y-146846820D02*
X338035960Y-148086360D01*
X347014457Y-158496000D02*
X347083934Y-158496000D01*
X272415000Y-146846820D02*
X338035960Y-146846820D01*
X345128940Y-155329903D02*
X346136037Y-156337000D01*
X341914610Y-151965010D02*
X345128940Y-151965010D01*
X272415000Y-153828750D02*
X272415000Y-146846820D01*
X291465000Y-153828750D02*
X291465000Y-147300830D01*
X291465000Y-147300830D02*
X337566000Y-147300830D01*
X337566000Y-148258466D02*
X341726553Y-152419020D01*
X337566000Y-147300830D02*
X337566000Y-148258466D01*
X341726553Y-152419020D02*
X344674930Y-152419020D01*
X344674930Y-152419020D02*
X344674930Y-155589789D01*
X345549141Y-156464000D02*
X345620971Y-156464000D01*
X344674930Y-155589789D02*
X345549141Y-156464000D01*
X345620971Y-156464000D02*
X345712656Y-156555685D01*
X345712656Y-157836266D02*
X346560447Y-158684057D01*
X345712656Y-156555685D02*
X345712656Y-157836266D01*
X346560447Y-167947647D02*
X349808800Y-171196000D01*
X346560447Y-158684057D02*
X346560447Y-167947647D01*
X363855000Y-152273000D02*
X363905800Y-152273000D01*
X363905800Y-152273000D02*
X365048800Y-153416000D01*
X329565000Y-153828750D02*
X329565000Y-148971000D01*
X329565000Y-148971000D02*
X329565000Y-148463000D01*
X363127999Y-151476001D02*
X363127999Y-154035199D01*
X363127999Y-154035199D02*
X365048800Y-155956000D01*
X363607067Y-150996933D02*
X363127999Y-151476001D01*
X389890000Y-150563749D02*
X389890000Y-148885260D01*
X389890000Y-148885260D02*
X400177000Y-148885260D01*
X396427229Y-154280759D02*
X396559619Y-154148369D01*
X396052771Y-154280759D02*
X396427229Y-154280759D01*
X395787991Y-154015979D02*
X396052771Y-154280759D01*
X395787991Y-153274269D02*
X395787991Y-154015979D01*
X400177000Y-148885260D02*
X395787991Y-153274269D01*
X410686250Y-206375000D02*
X415290000Y-210978750D01*
X400843750Y-206375000D02*
X410686250Y-206375000D01*
X396240000Y-210978750D02*
X400843750Y-206375000D01*
D18*
X389525000Y-158518750D02*
X389525000Y-161337500D01*
X389525000Y-161337500D02*
X386556250Y-164306250D01*
X365779050Y-164306250D02*
X365048800Y-163576000D01*
X386556250Y-164306250D02*
X365779050Y-164306250D01*
D16*
X151229099Y-158689651D02*
X151400000Y-158518750D01*
X132520901Y-158689651D02*
X151229099Y-158689651D01*
X132350000Y-158518750D02*
X132520901Y-158689651D01*
X170279099Y-158689651D02*
X170450000Y-158518750D01*
X151570901Y-158689651D02*
X170279099Y-158689651D01*
X151400000Y-158518750D02*
X151570901Y-158689651D01*
X189329099Y-158689651D02*
X189500000Y-158518750D01*
X170620901Y-158689651D02*
X189329099Y-158689651D01*
X170450000Y-158518750D02*
X170620901Y-158689651D01*
X208379099Y-158689651D02*
X208550000Y-158518750D01*
X189670901Y-158689651D02*
X208379099Y-158689651D01*
X189500000Y-158518750D02*
X189670901Y-158689651D01*
X246479099Y-158689651D02*
X246650000Y-158518750D01*
X227770901Y-158689651D02*
X246479099Y-158689651D01*
X227600000Y-158518750D02*
X227770901Y-158689651D01*
X265529099Y-158689651D02*
X265700000Y-158518750D01*
X246820901Y-158689651D02*
X265529099Y-158689651D01*
X246650000Y-158518750D02*
X246820901Y-158689651D01*
X284579099Y-158689651D02*
X284750000Y-158518750D01*
X265870901Y-158689651D02*
X284579099Y-158689651D01*
X265700000Y-158518750D02*
X265870901Y-158689651D01*
X303629099Y-158689651D02*
X303800000Y-158518750D01*
X284920901Y-158689651D02*
X303629099Y-158689651D01*
X284750000Y-158518750D02*
X284920901Y-158689651D01*
X322679099Y-158689651D02*
X322850000Y-158518750D01*
X303970901Y-158689651D02*
X322679099Y-158689651D01*
X303800000Y-158518750D02*
X303970901Y-158689651D01*
X323020901Y-158689651D02*
X341729099Y-158689651D01*
X341729099Y-158689651D02*
X341900000Y-158518750D01*
X322850000Y-158518750D02*
X323020901Y-158689651D01*
X341900000Y-159623000D02*
X341884000Y-159639000D01*
X341900000Y-158518750D02*
X341900000Y-159623000D01*
X363982000Y-162509200D02*
X365048800Y-163576000D01*
X363982000Y-162306000D02*
X363982000Y-162509200D01*
X426847999Y-159295751D02*
X427625000Y-158518750D01*
X390302001Y-159295751D02*
X426847999Y-159295751D01*
X389525000Y-158518750D02*
X390302001Y-159295751D01*
X227429099Y-158689651D02*
X227600000Y-158518750D01*
X208720901Y-158689651D02*
X227429099Y-158689651D01*
X208550000Y-158518750D02*
X208720901Y-158689651D01*
D18*
X155993599Y-177737651D02*
X156162500Y-177568750D01*
X146524427Y-177737651D02*
X155993599Y-177737651D01*
X146355526Y-177568750D02*
X146524427Y-177737651D01*
X137112500Y-177568750D02*
X146355526Y-177568750D01*
X175043599Y-177737651D02*
X175212500Y-177568750D01*
X156331401Y-177737651D02*
X175043599Y-177737651D01*
X156162500Y-177568750D02*
X156331401Y-177737651D01*
X194093599Y-177737651D02*
X194262500Y-177568750D01*
X175381401Y-177737651D02*
X194093599Y-177737651D01*
X175212500Y-177568750D02*
X175381401Y-177737651D01*
X213143599Y-177737651D02*
X213312500Y-177568750D01*
X194431401Y-177737651D02*
X213143599Y-177737651D01*
X194262500Y-177568750D02*
X194431401Y-177737651D01*
X232193599Y-177737651D02*
X232362500Y-177568750D01*
X213481401Y-177737651D02*
X232193599Y-177737651D01*
X213312500Y-177568750D02*
X213481401Y-177737651D01*
X251243599Y-177737651D02*
X251412500Y-177568750D01*
X232531401Y-177737651D02*
X251243599Y-177737651D01*
X232362500Y-177568750D02*
X232531401Y-177737651D01*
X251581401Y-177737651D02*
X270293599Y-177737651D01*
X270293599Y-177737651D02*
X270462500Y-177568750D01*
X251412500Y-177568750D02*
X251581401Y-177737651D01*
X289343599Y-177737651D02*
X289512500Y-177568750D01*
X270631401Y-177737651D02*
X289343599Y-177737651D01*
X270462500Y-177568750D02*
X270631401Y-177737651D01*
X308393599Y-177737651D02*
X308562500Y-177568750D01*
X289681401Y-177737651D02*
X308393599Y-177737651D01*
X289512500Y-177568750D02*
X289681401Y-177737651D01*
X341731099Y-177737651D02*
X341900000Y-177568750D01*
X308731401Y-177737651D02*
X341731099Y-177737651D01*
X308562500Y-177568750D02*
X308731401Y-177737651D01*
X353596050Y-177568750D02*
X365048800Y-166116000D01*
X341900000Y-177568750D02*
X353596050Y-177568750D01*
X146637500Y-196618750D02*
X146806401Y-196787651D01*
X408743901Y-215837651D02*
X408575000Y-215668750D01*
X408406099Y-215837651D02*
X408575000Y-215668750D01*
D16*
X408575000Y-215668750D02*
X408575000Y-217874990D01*
X408632010Y-217932000D02*
X424815000Y-217932000D01*
X408575000Y-217874990D02*
X408632010Y-217932000D01*
X424815000Y-217932000D02*
X426085000Y-216662000D01*
X426085000Y-216662000D02*
X426085000Y-212471000D01*
X426085000Y-212471000D02*
X426085000Y-211836000D01*
X426085000Y-211836000D02*
X424053000Y-209804000D01*
X424053000Y-209804000D02*
X423164000Y-210693000D01*
X423164000Y-210693000D02*
X420751000Y-210693000D01*
X420751000Y-210693000D02*
X419735000Y-209677000D01*
X419735000Y-209677000D02*
X419735000Y-199263000D01*
X417515999Y-189921399D02*
X417581399Y-189855999D01*
X417515999Y-198444601D02*
X417515999Y-189921399D01*
X417581399Y-198510001D02*
X417515999Y-198444601D01*
X419204601Y-198510001D02*
X417581399Y-198510001D01*
X419735000Y-197979602D02*
X419204601Y-198510001D01*
X419735000Y-199263000D02*
X419735000Y-197979602D01*
X417581399Y-189855999D02*
X418308185Y-189855999D01*
X420499443Y-187664740D02*
X428539260Y-187664740D01*
X418308185Y-189855999D02*
X420499443Y-187664740D01*
X428539260Y-187664740D02*
X428964740Y-187664740D01*
X428964740Y-187664740D02*
X428964740Y-163407740D01*
X428964740Y-162518740D02*
X428625000Y-162179000D01*
X428964740Y-163407740D02*
X428964740Y-162518740D01*
X409305770Y-157861000D02*
X408931129Y-158235641D01*
X410337000Y-157861000D02*
X409305770Y-157861000D01*
X408404099Y-158689651D02*
X391099651Y-158689651D01*
X408575000Y-158518750D02*
X408404099Y-158689651D01*
X391099651Y-158689651D02*
X390906000Y-158496000D01*
X390906000Y-158496000D02*
X390906000Y-154686000D01*
X390906000Y-154686000D02*
X390398000Y-154178000D01*
X389123488Y-154178000D02*
X386362228Y-151416740D01*
X390398000Y-154178000D02*
X389123488Y-154178000D01*
X386362228Y-151416740D02*
X385350740Y-151416740D01*
X364507839Y-159908999D02*
X363254999Y-161161839D01*
X368810789Y-159908999D02*
X364507839Y-159908999D01*
X378883039Y-149836749D02*
X368810789Y-159908999D01*
X384195105Y-149836749D02*
X378883039Y-149836749D01*
X363254999Y-161161839D02*
X363254999Y-164322199D01*
X385350740Y-150992384D02*
X384195105Y-149836749D01*
X363254999Y-164322199D02*
X365048800Y-166116000D01*
X385350740Y-151416740D02*
X385350740Y-150992384D01*
X146637500Y-196618750D02*
X147424250Y-196618750D01*
X147424250Y-196618750D02*
X148336000Y-195707000D01*
X148336000Y-195707000D02*
X148209000Y-195580000D01*
X148209000Y-195580000D02*
X148209000Y-178054000D01*
X155677250Y-178054000D02*
X156162500Y-177568750D01*
X148209000Y-178054000D02*
X155677250Y-178054000D01*
D18*
X165518599Y-196787651D02*
X165687500Y-196618750D01*
X184568599Y-196787651D02*
X184737500Y-196618750D01*
X165856401Y-196787651D02*
X184568599Y-196787651D01*
X165687500Y-196618750D02*
X165856401Y-196787651D01*
X203618599Y-196787651D02*
X203787500Y-196618750D01*
X184906401Y-196787651D02*
X203618599Y-196787651D01*
X184737500Y-196618750D02*
X184906401Y-196787651D01*
X222668599Y-196787651D02*
X222837500Y-196618750D01*
X203956401Y-196787651D02*
X222668599Y-196787651D01*
X203787500Y-196618750D02*
X203956401Y-196787651D01*
X241718599Y-196787651D02*
X241887500Y-196618750D01*
X223006401Y-196787651D02*
X241718599Y-196787651D01*
X222837500Y-196618750D02*
X223006401Y-196787651D01*
X260768599Y-196787651D02*
X260937500Y-196618750D01*
X242056401Y-196787651D02*
X260768599Y-196787651D01*
X241887500Y-196618750D02*
X242056401Y-196787651D01*
X279818599Y-196787651D02*
X279987500Y-196618750D01*
X261106401Y-196787651D02*
X279818599Y-196787651D01*
X260937500Y-196618750D02*
X261106401Y-196787651D01*
X298868599Y-196787651D02*
X299037500Y-196618750D01*
X280156401Y-196787651D02*
X298868599Y-196787651D01*
X279987500Y-196618750D02*
X280156401Y-196787651D01*
X317918599Y-196787651D02*
X318087500Y-196618750D01*
X299206401Y-196787651D02*
X317918599Y-196787651D01*
X299037500Y-196618750D02*
X299206401Y-196787651D01*
X341731099Y-196787651D02*
X341900000Y-196618750D01*
X318256401Y-196787651D02*
X341731099Y-196787651D01*
X318087500Y-196618750D02*
X318256401Y-196787651D01*
X341900000Y-196618750D02*
X343693750Y-194825000D01*
X343693750Y-194825000D02*
X343693750Y-178018760D01*
X343693750Y-178018760D02*
X353793740Y-178018760D01*
X353793740Y-178018760D02*
X362743750Y-169068750D01*
X364636050Y-169068750D02*
X365048800Y-168656000D01*
X362743750Y-169068750D02*
X364636050Y-169068750D01*
X401331974Y-196618750D02*
X401100724Y-196850000D01*
X408575000Y-196618750D02*
X401331974Y-196618750D01*
X401100724Y-196850000D02*
X345281250Y-196850000D01*
X345281250Y-196850000D02*
X345281250Y-179387500D01*
X354244056Y-179387500D02*
X361272028Y-172359528D01*
X345281250Y-179387500D02*
X354244056Y-179387500D01*
X364744000Y-168656000D02*
X365048800Y-168656000D01*
X362743750Y-170656250D02*
X364744000Y-168656000D01*
X427625000Y-215668750D02*
X427456099Y-215837651D01*
X389525000Y-215668750D02*
X389693901Y-215837651D01*
X323018901Y-215837651D02*
X322850000Y-215668750D01*
X389356099Y-215837651D02*
X323018901Y-215837651D01*
X389525000Y-215668750D02*
X389356099Y-215837651D01*
X179806099Y-215837651D02*
X179975000Y-215668750D01*
X161093901Y-215837651D02*
X179806099Y-215837651D01*
X222668599Y-215837651D02*
X222837500Y-215668750D01*
X180143901Y-215837651D02*
X222668599Y-215837651D01*
X179975000Y-215668750D02*
X180143901Y-215837651D01*
X275056099Y-215837651D02*
X275225000Y-215668750D01*
X223006401Y-215837651D02*
X275056099Y-215837651D01*
X222837500Y-215668750D02*
X223006401Y-215837651D01*
X275393901Y-215837651D02*
X294106099Y-215837651D01*
X275225000Y-215668750D02*
X275393901Y-215837651D01*
X322681099Y-215837651D02*
X322850000Y-215668750D01*
X324485002Y-215668750D02*
X325047502Y-215106250D01*
X322850000Y-215668750D02*
X324485002Y-215668750D01*
X325047502Y-215106250D02*
X343693750Y-215106250D01*
X343693750Y-215106250D02*
X344487500Y-214312500D01*
X344487500Y-214312500D02*
X344487500Y-178593750D01*
X344487500Y-178593750D02*
X354012500Y-178593750D01*
X354012500Y-178593750D02*
X361156250Y-171450000D01*
X364794800Y-171450000D02*
X365048800Y-171196000D01*
X361156250Y-171450000D02*
X364794800Y-171450000D01*
D16*
X392296250Y-218440000D02*
X389525000Y-215668750D01*
X426339000Y-218440000D02*
X392296250Y-218440000D01*
X427454099Y-217324901D02*
X426339000Y-218440000D01*
X427454099Y-215839651D02*
X427454099Y-217324901D01*
X427625000Y-215668750D02*
X427454099Y-215839651D01*
X151481401Y-215837651D02*
X150812500Y-215168750D01*
X161093901Y-215837651D02*
X151481401Y-215837651D01*
X294106099Y-215837651D02*
X294443901Y-215837651D01*
X294443901Y-215837651D02*
X294443901Y-215862651D01*
X294661552Y-215645000D02*
X300831250Y-215645000D01*
X294443901Y-215862651D02*
X294661552Y-215645000D01*
X322385349Y-215839651D02*
X322707000Y-215518000D01*
X301025901Y-215839651D02*
X322385349Y-215839651D01*
X300831250Y-215645000D02*
X301025901Y-215839651D01*
X129000000Y-151868750D02*
X132350000Y-155218750D01*
X126325000Y-151868750D02*
X129000000Y-151868750D01*
X148050000Y-151868750D02*
X151400000Y-155218750D01*
X145375000Y-151868750D02*
X148050000Y-151868750D01*
X167100000Y-151868750D02*
X170450000Y-155218750D01*
X164425000Y-151868750D02*
X167100000Y-151868750D01*
X186150000Y-151868750D02*
X189500000Y-155218750D01*
X183475000Y-151868750D02*
X186150000Y-151868750D01*
X205200000Y-151868750D02*
X208550000Y-155218750D01*
X202525000Y-151868750D02*
X205200000Y-151868750D01*
X224250000Y-151868750D02*
X227600000Y-155218750D01*
X221575000Y-151868750D02*
X224250000Y-151868750D01*
X243300000Y-151868750D02*
X246650000Y-155218750D01*
X240625000Y-151868750D02*
X243300000Y-151868750D01*
X262350000Y-151868750D02*
X265700000Y-155218750D01*
X259675000Y-151868750D02*
X262350000Y-151868750D01*
X281400000Y-151868750D02*
X284750000Y-155218750D01*
X278725000Y-151868750D02*
X281400000Y-151868750D01*
X300450000Y-151868750D02*
X303800000Y-155218750D01*
X297775000Y-151868750D02*
X300450000Y-151868750D01*
X319500000Y-151868750D02*
X322850000Y-155218750D01*
X316825000Y-151868750D02*
X319500000Y-151868750D01*
X338550000Y-151868750D02*
X341900000Y-155218750D01*
X335875000Y-151868750D02*
X338550000Y-151868750D01*
D18*
X386175000Y-151868750D02*
X389525000Y-155218750D01*
X383500000Y-151868750D02*
X386175000Y-151868750D01*
X405225000Y-151868750D02*
X408575000Y-155218750D01*
X402550000Y-151868750D02*
X405225000Y-151868750D01*
D16*
X133762500Y-170918750D02*
X137112500Y-174268750D01*
X128706250Y-170918750D02*
X133762500Y-170918750D01*
X152812500Y-170918750D02*
X156162500Y-174268750D01*
X150137500Y-170918750D02*
X152812500Y-170918750D01*
X171862500Y-170918750D02*
X175212500Y-174268750D01*
X169187500Y-170918750D02*
X171862500Y-170918750D01*
X190912500Y-170918750D02*
X194262500Y-174268750D01*
X188237500Y-170918750D02*
X190912500Y-170918750D01*
X209962500Y-170918750D02*
X213312500Y-174268750D01*
X207287500Y-170918750D02*
X209962500Y-170918750D01*
X229012500Y-170918750D02*
X232362500Y-174268750D01*
X226337500Y-170918750D02*
X229012500Y-170918750D01*
X248062500Y-170918750D02*
X251412500Y-174268750D01*
X245387500Y-170918750D02*
X248062500Y-170918750D01*
X267112500Y-170918750D02*
X270462500Y-174268750D01*
X264437500Y-170918750D02*
X267112500Y-170918750D01*
X286162500Y-170918750D02*
X289512500Y-174268750D01*
X283487500Y-170918750D02*
X286162500Y-170918750D01*
X305212500Y-170918750D02*
X308562500Y-174268750D01*
X302537500Y-170918750D02*
X305212500Y-170918750D01*
X338550000Y-170918750D02*
X341900000Y-174268750D01*
X328731250Y-170918750D02*
X338550000Y-170918750D01*
D18*
X143287500Y-189968750D02*
X146637500Y-193318750D01*
X133468750Y-189968750D02*
X143287500Y-189968750D01*
X162337500Y-189968750D02*
X165687500Y-193318750D01*
X159662500Y-189968750D02*
X162337500Y-189968750D01*
X181387500Y-189968750D02*
X184737500Y-193318750D01*
X178712500Y-189968750D02*
X181387500Y-189968750D01*
X200437500Y-189968750D02*
X203787500Y-193318750D01*
X197762500Y-189968750D02*
X200437500Y-189968750D01*
X219487500Y-189968750D02*
X222837500Y-193318750D01*
X216812500Y-189968750D02*
X219487500Y-189968750D01*
X238537500Y-189968750D02*
X241887500Y-193318750D01*
X235862500Y-189968750D02*
X238537500Y-189968750D01*
X257587500Y-189968750D02*
X260937500Y-193318750D01*
X254912500Y-189968750D02*
X257587500Y-189968750D01*
X276637500Y-189968750D02*
X279987500Y-193318750D01*
X273962500Y-189968750D02*
X276637500Y-189968750D01*
X295687500Y-189968750D02*
X299037500Y-193318750D01*
X293012500Y-189968750D02*
X295687500Y-189968750D01*
X314737500Y-189968750D02*
X318087500Y-193318750D01*
X312062500Y-189968750D02*
X314737500Y-189968750D01*
X338550000Y-189968750D02*
X341900000Y-193318750D01*
X333493750Y-189968750D02*
X338550000Y-189968750D01*
X405225000Y-189968750D02*
X408575000Y-193318750D01*
X402550000Y-189968750D02*
X405225000Y-189968750D01*
D16*
X176537500Y-209018750D02*
X180181250Y-212662500D01*
X169187500Y-209018750D02*
X176537500Y-209018750D01*
X147962500Y-209018750D02*
X150812500Y-211868750D01*
X145375000Y-209018750D02*
X147962500Y-209018750D01*
D18*
X219487500Y-209018750D02*
X222837500Y-212368750D01*
X204906250Y-209018750D02*
X219487500Y-209018750D01*
X271875000Y-209018750D02*
X275225000Y-212368750D01*
X252531250Y-209018750D02*
X271875000Y-209018750D01*
D16*
X319507750Y-209018750D02*
X322707000Y-212218000D01*
X316825000Y-209018750D02*
X319507750Y-209018750D01*
X297505000Y-209018750D02*
X300831250Y-212345000D01*
X293012500Y-209018750D02*
X297505000Y-209018750D01*
D18*
X386175000Y-209018750D02*
X389525000Y-212368750D01*
X383500000Y-209018750D02*
X386175000Y-209018750D01*
X405225000Y-209018750D02*
X408575000Y-212368750D01*
X402550000Y-209018750D02*
X405225000Y-209018750D01*
D17*
X418393000Y-197283000D02*
X418393000Y-191083000D01*
D16*
X365144050Y-148431250D02*
X365048800Y-148336000D01*
X421481250Y-148431250D02*
X365144050Y-148431250D01*
X429418750Y-153987500D02*
X427037500Y-153987500D01*
X429418750Y-188118750D02*
X429418750Y-153987500D01*
X420687500Y-188118750D02*
X429418750Y-188118750D01*
X418393000Y-190413250D02*
X420687500Y-188118750D01*
X427037500Y-153987500D02*
X421481250Y-148431250D01*
X418393000Y-191083000D02*
X418393000Y-190413250D01*
D18*
X424275000Y-209018750D02*
X427625000Y-212368750D01*
X421600000Y-209018750D02*
X424275000Y-209018750D01*
D16*
X424275000Y-151868750D02*
X427625000Y-155218750D01*
X421600000Y-151868750D02*
X424275000Y-151868750D01*
M02*
